<?xml version="1.0" encoding="UTF-8" standalone="no"?>
<!-- Generator: Adobe Illustrator 15.0.0, SVG Export Plug-In . SVG Version: 6.00 Build 0)  -->

<svg
   xmlns:dc="http://purl.org/dc/elements/1.1/"
   xmlns:cc="http://creativecommons.org/ns#"
   xmlns:rdf="http://www.w3.org/1999/02/22-rdf-syntax-ns#"
   xmlns:svg="http://www.w3.org/2000/svg"
   xmlns="http://www.w3.org/2000/svg"
   xmlns:sodipodi="http://sodipodi.sourceforge.net/DTD/sodipodi-0.dtd"
   xmlns:inkscape="http://www.inkscape.org/namespaces/inkscape"
   version="1.1"
   id="Ebene_1"
   x="0px"
   y="0px"
   width="420.94px"
   height="595.28px"
   viewBox="0 0 420.94 595.28"
   enable-background="new 0 0 420.94 595.28"
   xml:space="preserve"
   inkscape:version="0.48.4 r9939"
   sodipodi:docname="erstiheft-vorne.svg"><metadata
     id="metadata322"><rdf:RDF><cc:Work
         rdf:about=""><dc:format>image/svg+xml</dc:format><dc:type
           rdf:resource="http://purl.org/dc/dcmitype/StillImage" /></cc:Work></rdf:RDF></metadata><defs
     id="defs320" /><sodipodi:namedview
     pagecolor="#ffffff"
     bordercolor="#666666"
     borderopacity="1"
     objecttolerance="10"
     gridtolerance="10"
     guidetolerance="10"
     inkscape:pageopacity="0"
     inkscape:pageshadow="2"
     inkscape:window-width="1280"
     inkscape:window-height="748"
     id="namedview318"
     showgrid="false"
     inkscape:zoom="0.87521834"
     inkscape:cx="210.47"
     inkscape:cy="297.64001"
     inkscape:window-x="0"
     inkscape:window-y="0"
     inkscape:window-maximized="1"
     inkscape:current-layer="Ebene_1" /><g
     id="XMLID_2_"><g
       id="g4"><path
         d="M205.914,376.554c-17.885,0-35.367-4.994-50.553-14.445c-15.579-9.692-27.928-23.627-35.715-40.292l-0.137-0.291    l0.628-0.281l0.105,0.023c8.75,2.064,18.204,3.111,28.103,3.111c28.677,0,60.732-8.922,87.951-24.48    c28.087-16.058,47.907-37.022,55.807-59.036l0.273-0.754l0.314,0.738c0.039,0.089,0.083,0.176,0.129,0.266    c0.048,0.095,0.093,0.19,0.136,0.285c21.174,45.946,2.547,100.444-42.405,124.062c-1.449,0.774-2.934,1.51-4.538,2.244    c-1.543,0.731-3.147,1.393-4.564,1.977C230.064,374.242,218.108,376.554,205.914,376.554L205.914,376.554z M120.413,321.957    c15.519,32.798,49.029,53.966,85.501,53.966c12.115,0,23.989-2.297,35.298-6.83c1.405-0.579,3-1.238,4.533-1.965    c1.598-0.729,3.071-1.457,4.508-2.228c44.614-23.439,63.123-77.493,42.188-123.112c-8.119,21.896-27.912,42.702-55.83,58.659    c-27.31,15.611-59.481,24.566-88.264,24.566C138.517,325.014,129.123,323.984,120.413,321.957L120.413,321.957z"
         id="path6" /><path
         d="M206.237,393.448c-21.155,0-41.816-5.925-59.757-17.135c-18.412-11.501-32.972-28.03-42.112-47.793    c-12.565-27.172-13.748-57.636-3.33-85.78c10.419-28.147,31.195-50.601,58.501-63.229c0.041-0.02,1.256-0.626,5.502-2.501    l0.345-0.152l2.412,9.897l-0.228,0.112c-0.039,0.02-0.118,0.054-0.225,0.099l-0.594,0.249c-0.658,0.276-1.761,0.734-3.419,1.522    c-1.722,0.804-3.238,1.558-4.642,2.309c-48.72,25.441-68.874,84.336-45.885,134.083c16.7,36.098,53.312,59.421,93.272,59.421    c13.158,0,26.058-2.492,38.343-7.405l0.436-0.22l3.547,8.311l-0.432,0.173c-13.37,5.334-27.408,8.037-41.727,8.04    C206.243,393.448,206.238,393.448,206.237,393.448L206.237,393.448z M164.95,177.743c-3.946,1.747-5.125,2.333-5.137,2.339    c-27.163,12.56-47.821,34.89-58.182,62.879c-10.359,27.984-9.183,58.274,3.311,85.293c18.134,39.219,57.894,64.559,101.294,64.559    c0.003,0,0.004,0,0.007,0c14.176,0,28.08-2.666,41.322-7.923l-3.034-7.111c-12.337,4.917-25.267,7.405-38.455,7.405    c0,0,0.001,0,0,0c-19.487,0-38.523-5.455-55.048-15.776c-16.961-10.59-30.378-25.813-38.799-44.016    c-23.13-50.054-2.854-109.311,46.164-134.905c1.411-0.755,2.939-1.515,4.668-2.323c1.67-0.793,2.782-1.256,3.446-1.533l0.551-0.23    L164.95,177.743L164.95,177.743z"
         id="path8" /><path
         d="M231.416,267.192c-3.494,0-6.338-2.845-6.338-6.34c0-3.481,2.844-6.312,6.338-6.312c3.496,0,6.339,2.831,6.339,6.312    C237.755,264.347,234.912,267.192,231.416,267.192L231.416,267.192z M231.416,255.172c-3.145,0-5.705,2.549-5.705,5.681    c0,3.147,2.561,5.705,5.705,5.705c3.146,0,5.706-2.558,5.706-5.705C237.122,257.721,234.562,255.172,231.416,255.172    L231.416,255.172z"
         id="path10" /><path
         d="M180.553,278.448c-3.496,0-6.34-2.832-6.34-6.313c0-3.495,2.845-6.338,6.34-6.338c3.496,0,6.338,2.843,6.338,6.338    C186.891,275.616,184.049,278.448,180.553,278.448L180.553,278.448z M180.553,266.43c-3.147,0-5.707,2.56-5.707,5.705    c0,3.131,2.56,5.681,5.707,5.681c3.146,0,5.706-2.549,5.706-5.681C186.259,268.989,183.7,266.43,180.553,266.43L180.553,266.43z"
         id="path12" /><path
         d="M148.339,325.014c-9.903,0-19.369-1.046-28.136-3.105l-0.417,0.188l-0.137-0.271c-0.039-0.084-0.076-0.159-0.109-0.234    c-0.031-0.07-0.062-0.141-0.101-0.214c-21.098-45.763-2.634-100.169,42.029-123.867c1.576-0.879,3.193-1.692,4.938-2.48    c1.312-0.593,2.667-1.207,4.066-1.745c11.526-4.698,23.649-7.081,36.03-7.081c17.859,0,35.316,4.985,50.485,14.414    c15.562,9.674,27.908,23.582,35.7,40.218l0.057,0.119l-0.046,0.123c-7.951,22.151-27.87,43.235-56.088,59.366    c-27.31,15.612-59.483,24.566-88.264,24.569C148.343,325.014,148.34,325.014,148.339,325.014L148.339,325.014z M120.138,321.244    l0.105,0.023c8.749,2.064,18.204,3.111,28.095,3.111c0.003,0,0.004,0,0.007,0c28.674,0,60.731-8.924,87.949-24.484    c28.037-16.026,47.835-36.942,55.766-58.909c-15.47-32.897-49.037-54.149-85.559-54.149c-12.298,0-24.342,2.367-35.797,7.036    c-1.387,0.535-2.735,1.143-4.04,1.731c-1.727,0.783-3.328,1.587-4.894,2.46c-44.373,23.544-62.714,77.587-41.76,123.035    c0.026,0.057,0.052,0.111,0.077,0.167L120.138,321.244L120.138,321.244z M180.553,278.448c-3.496,0-6.34-2.832-6.34-6.313    c0-3.495,2.845-6.338,6.34-6.338c3.496,0,6.338,2.843,6.338,6.338C186.891,275.616,184.049,278.448,180.553,278.448    L180.553,278.448z M180.553,266.43c-3.147,0-5.707,2.56-5.707,5.705c0,3.131,2.56,5.681,5.707,5.681    c3.146,0,5.706-2.549,5.706-5.681C186.259,268.989,183.7,266.43,180.553,266.43L180.553,266.43z M231.416,267.192    c-3.494,0-6.338-2.845-6.338-6.34c0-3.481,2.844-6.312,6.338-6.312c3.496,0,6.339,2.831,6.339,6.312    C237.755,264.347,234.912,267.192,231.416,267.192L231.416,267.192z M231.416,255.172c-3.145,0-5.705,2.549-5.705,5.681    c0,3.147,2.561,5.705,5.705,5.705c3.146,0,5.706-2.558,5.706-5.705C237.122,257.721,234.562,255.172,231.416,255.172    L231.416,255.172z"
         id="path14" /></g><g
       id="g16"><path
         d="M209.374,445.342c-43.391-0.146-54.28-7.238-56.584-9.411c-0.256-0.239-0.436-0.607-0.434-0.96l0.027-4.604    c0.004-0.695,0.57-1.258,1.266-1.258c0.003,0,0.004,0,0.007,0c0.7,0.003,1.263,0.573,1.259,1.275l-0.024,4.016    c2.541,2.007,13.717,8.271,54.488,8.41h0.074c41.079-0.139,52.113-6.337,54.544-8.256l0.024-4.057    c0.003-0.695,0.57-1.257,1.267-1.257c0.002,0,0.004,0,0.008,0c0.699,0.003,1.263,0.574,1.258,1.274l-0.027,4.629    c-0.003,0.346-0.148,0.676-0.401,0.913c-2.288,2.157-13.079,9.139-56.667,9.284H209.374L209.374,445.342z"
         id="path18" /><path
         d="M209.68,402.426c-0.053,0-0.106,0-0.159-0.003c-2.396-0.024-6.539-0.729-7.644-1.298c-0.419-0.218-0.686-0.65-0.686-1.126    v-1.076c0-1.153,0.537-1.712,0.802-1.916l1.317-1.029c0.365-0.286,0.86-0.346,1.285-0.162c0.993,0.434,2.67,0.71,4.603,0.761    c0.029,0,0.059,0.003,0.087,0.006c0.028-0.003,0.056-0.006,0.084-0.006c1.952-0.051,3.601-0.321,4.638-0.763    c0.421-0.182,0.912-0.122,1.275,0.164l1.314,1.029c0.266,0.204,0.804,0.766,0.804,1.916v1.076c0,0.476-0.268,0.911-0.69,1.126    l-0.156,0.079c-0.027,0.014-0.057,0.028-0.086,0.043C215.276,401.747,212.282,402.426,209.68,402.426L209.68,402.426z     M203.725,399.085c1.291,0.324,3.946,0.786,5.823,0.807c1.889,0.03,4.122-0.414,5.322-0.77v-0.199    c0-0.021-0.001-0.041-0.001-0.059l-0.588-0.459c-1.579,0.512-3.46,0.666-4.845,0.702c-0.049,0.003-0.101,0-0.149-0.006    c-0.051,0.006-0.099,0.009-0.151,0.006c-1.147-0.03-3.164-0.161-4.826-0.699l-0.583,0.456c0,0.018-0.001,0.037-0.001,0.059    V399.085L203.725,399.085z"
         id="path20" /><path
         d="M188.155,420.807c-0.141,0-0.285-0.025-0.425-0.075c-0.417-0.148-0.763-0.338-1.042-0.492l-0.112-0.061    c-0.432-0.214-0.729-0.691-0.741-1.236c-0.029-0.927,0.826-2.356,1.91-2.75c1.799-0.752,5.24-1.56,6.74-1.893    c1.121-3.309,4.154-10.562,6.905-14.901c0.373-0.589,1.157-0.764,1.748-0.392c0.59,0.375,0.765,1.158,0.391,1.749    c-2.905,4.582-6.119,12.589-6.852,14.998c-0.134,0.441-0.499,0.773-0.952,0.869c-0.048,0.011-4.672,0.984-6.878,1.855    c0.479,0.31,0.701,0.922,0.501,1.483C189.162,420.483,188.674,420.807,188.155,420.807L188.155,420.807z"
         id="path22" /><path
         d="M190.521,421.676c-0.113,0-0.229-0.018-0.344-0.047c-0.232-0.068-0.463-0.135-0.714-0.243    c-0.642-0.28-0.935-1.026-0.656-1.669c0.278-0.641,1.024-0.934,1.666-0.655c0.13,0.058,0.261,0.091,0.39,0.127    c0.673,0.189,1.064,0.892,0.876,1.562C191.582,421.311,191.074,421.676,190.521,421.676L190.521,421.676z"
         id="path24" /><path
         d="M192.915,422.306l0.261-1.242l-0.269,1.239c-0.512-0.107-1.042-0.222-1.533-0.364c-0.669-0.196-1.055-0.9-0.858-1.57    c0.196-0.672,0.901-1.057,1.57-0.858c0.398,0.114,0.856,0.213,1.343,0.313L192.915,422.306L192.915,422.306z"
         id="path26" /><path
         d="M207.509,423.777c-0.009,0-0.018,0-0.028,0c-5.196-0.111-9.955-0.566-13.759-1.313c-0.686-0.134-1.132-0.8-0.998-1.487    c0.135-0.684,0.797-1.131,1.487-0.997c3.663,0.719,8.27,1.157,13.324,1.266c0.699,0.017,1.253,0.597,1.239,1.294    C208.759,423.229,208.195,423.777,207.509,423.777L207.509,423.777z"
         id="path28" /><path
         d="M209.928,423.795c-0.633,0-1.297-0.006-1.993-0.018c-0.698-0.012-1.255-0.589-1.245-1.285    c0.012-0.702,0.576-1.277,1.287-1.247c1.762,0.027,3.298,0.022,4.699-0.024c0.701-0.031,1.284,0.524,1.306,1.225    c0.023,0.697-0.524,1.281-1.224,1.304C211.872,423.78,210.936,423.795,209.928,423.795L209.928,423.795z"
         id="path30" /><path
         d="M214.452,423.671c-0.675,0-1.236-0.531-1.265-1.21c-0.029-0.698,0.512-1.288,1.212-1.319    c3.197-0.137,6.067-0.405,8.531-0.8c0.683-0.113,1.339,0.362,1.45,1.053c0.11,0.689-0.358,1.338-1.05,1.449    c-2.562,0.408-5.528,0.688-8.824,0.827C214.487,423.671,214.47,423.671,214.452,423.671L214.452,423.671z"
         id="path32" /><path
         d="M224.917,422.542c-0.592,0-1.12-0.419-1.24-1.02c-0.136-0.688,0.31-1.353,0.996-1.489    c2.178-0.432,3.928-0.934,5.224-1.499c-2.182-0.86-6.872-1.845-6.921-1.855c-0.453-0.096-0.817-0.43-0.951-0.873    c-0.732-2.408-3.946-10.414-6.853-14.996c-0.376-0.593-0.2-1.371,0.389-1.745c0.591-0.379,1.374-0.203,1.748,0.387    c2.75,4.335,5.787,11.593,6.907,14.906c1.501,0.331,4.957,1.139,6.816,1.909c0.984,0.394,1.793,1.687,1.851,2.578    c0.036,0.598-0.237,1.115-0.728,1.384c-1.539,0.902-3.902,1.677-6.989,2.289C225.082,422.534,224.998,422.542,224.917,422.542    L224.917,422.542z"
         id="path34" /><path
         d="M209.43,441.136c-0.092,0-0.181-0.009-0.268-0.028c-43.318-0.182-53.873-7.182-56.079-9.326    c-0.419-0.417-0.636-0.836-0.67-1.28c-0.121-0.946,0.484-1.769,1.066-2.205c5.443-4.374,29.873-9.94,33.377-10.628    c0.479-0.098,0.874-0.025,1.16,0.357c0.074,0.056,0.272,0.188,0.658,0.357c0.319,0.159,0.816,0.374,1.657,0.627    c0.047,0.014,0.096,0.034,0.142,0.052c0.13,0.058,0.261,0.091,0.39,0.127l0.249,0.073c0.285,0.087,0.555,0.164,0.839,0.214    c0.022,0.006,0.047,0.009,0.069,0.015l0.408,0.095c0.332,0.078,0.681,0.159,1.054,0.252c0.187,0.039,0.434,0.089,0.707,0.14    c3.491,0.657,7.982,1.084,13.362,1.269h0.405c0.022,0,0.043,0,0.066,0.002l0.069,0.003c0.456,0.022,0.91,0.049,1.363,0.049    c0.078,0,0.155,0.006,0.229,0.021c1.027-0.023,2.027-0.052,2.971-0.099c0.611-0.025,1.189-0.053,1.74-0.079    c2.938-0.153,5.741-0.416,8.563-0.806c0.587-0.097,1.182-0.2,1.725-0.303c4.91-0.9,6.186-1.921,6.197-1.929    c0.298-0.299,0.682-0.387,1.094-0.305c4.222,0.827,28.328,6.291,33.51,10.517c0.139,0.101,1.072,0.844,1.072,1.952    c0,0.549-0.229,1.078-0.644,1.486c-2.243,2.182-12.855,9.232-56.477,9.381C209.433,441.136,209.43,441.136,209.43,441.136    L209.43,441.136z M155.134,430.218c2.307,1.913,13.023,8.221,54.379,8.359c0.086,0,0.17,0.007,0.251,0.022    c41.231-0.173,51.835-6.512,54.058-8.369c-4.518-3.508-25.496-8.549-31.813-9.843c-0.879,0.53-2.824,1.394-6.861,2.133    c-0.554,0.105-1.167,0.215-1.809,0.32c-2.929,0.405-5.804,0.674-8.821,0.83c-0.557,0.025-1.14,0.053-1.746,0.078    c-1.037,0.055-2.134,0.081-3.261,0.106c-0.099,0.009-0.199-0.006-0.293-0.028c-0.417-0.006-0.837-0.026-1.256-0.047l-0.453-0.003    c-5.552-0.189-10.172-0.632-13.775-1.311c-0.296-0.054-0.573-0.108-0.826-0.164c-0.397-0.099-0.73-0.177-1.049-0.25l-0.383-0.09    c-0.41-0.075-0.767-0.179-1.081-0.273l-0.221-0.063c-0.206-0.06-0.411-0.118-0.634-0.21c-0.787-0.237-1.444-0.489-1.954-0.746    c-0.321-0.146-0.579-0.282-0.783-0.407C179.927,421.673,159.492,426.827,155.134,430.218L155.134,430.218z"
         id="path36" /><path
         d="M205.913,377.504c-18.061,0-35.715-5.044-51.053-14.588c-15.735-9.792-28.21-23.865-36.074-40.697    c-0.033-0.064-0.071-0.152-0.112-0.239c-0.025-0.058-0.05-0.116-0.083-0.179c-21.322-46.25-2.676-101.197,42.433-125.13    c1.582-0.883,3.221-1.706,4.99-2.508c1.324-0.598,2.693-1.215,4.115-1.763c11.624-4.737,23.869-7.144,36.372-7.144    c18.037,0,35.668,5.033,50.987,14.557c15.719,9.772,28.188,23.819,36.059,40.621c0.049,0.11,0.084,0.181,0.121,0.252    c0.056,0.11,0.108,0.222,0.159,0.331c21.376,46.389,2.563,101.43-42.836,125.284c-1.458,0.781-2.962,1.522-4.585,2.267    c-1.555,0.734-3.169,1.402-4.594,1.989C230.305,375.168,218.229,377.504,205.913,377.504L205.913,377.504z M206.502,187.788    c-12.174,0-24.097,2.342-35.438,6.964c-1.378,0.531-2.715,1.135-4.006,1.719c-1.702,0.77-3.28,1.562-4.823,2.423    c-43.946,23.318-62.104,76.816-41.36,121.811c0.03,0.057,0.07,0.146,0.109,0.234c0.026,0.055,0.053,0.113,0.083,0.176    c15.292,32.729,48.59,53.857,84.846,53.857c11.992,0,23.75-2.275,34.947-6.761c1.385-0.571,2.969-1.224,4.479-1.941    c1.591-0.728,3.047-1.446,4.467-2.207c44.218-23.232,62.536-76.825,41.714-122.01c-0.043-0.094-0.077-0.163-0.113-0.232    c-0.059-0.118-0.116-0.235-0.166-0.352C275.968,208.874,242.7,187.788,206.502,187.788L206.502,187.788z"
         id="path38" /><path
         d="M248.14,386.724c-0.512,0-0.98-0.312-1.176-0.798l-0.156-0.396l-6.488-15.253c-0.271-0.644,0.029-1.387,0.671-1.658    c0.644-0.274,1.387,0.025,1.66,0.669l6.281,14.771c3.107-0.504,4.691-1.205,6.961-3.088l-6.362-14.735    c-0.279-0.643,0.017-1.386,0.659-1.666c0.642-0.276,1.386,0.021,1.663,0.662l6.734,15.593c0.219,0.503,0.087,1.093-0.327,1.453    c-3.254,2.852-5.392,3.804-9.945,4.433C248.254,386.719,248.197,386.724,248.14,386.724L248.14,386.724z"
         id="path40" /><path
         d="M148.553,325.988c-10.003,0-19.639-1.048-28.673-3.181c-0.681-0.16-1.103-0.841-0.94-1.522    c0.159-0.681,0.838-1.099,1.523-0.942c30.22,7.13,67.426,1.892,102.08-14.376c34.028-15.974,59.697-40.432,68.668-65.424    c0.236-0.658,0.959-0.999,1.619-0.765c0.656,0.237,0.999,0.962,0.764,1.62c-4.752,13.239-13.623,25.993-26.368,37.907    c-11.927,11.148-27.004,21.16-43.605,28.954C198.782,319.917,172.617,325.988,148.553,325.988L148.553,325.988z"
         id="path42" /><g
         id="g44"><path
           d="M186.576,272.135c0,3.313-2.709,5.996-6.022,5.996c-3.34,0-6.023-2.683-6.023-5.996c0-3.338,2.683-6.021,6.023-6.021     C183.866,266.113,186.576,268.796,186.576,272.135z"
           id="path46" /><path
           d="M180.553,279.397c-4.019,0-7.289-3.257-7.289-7.262c0-4.018,3.27-7.287,7.289-7.287c4.019,0,7.289,3.27,7.289,7.287     C187.842,276.14,184.572,279.397,180.553,279.397L180.553,279.397z M180.553,267.379c-2.623,0-4.757,2.132-4.757,4.755     c0,2.609,2.134,4.73,4.757,4.73s4.756-2.121,4.756-4.73C185.31,269.512,183.176,267.379,180.553,267.379L180.553,267.379z"
           id="path48" /></g><path
         d="M206.19,394.419c-42.911,0.003-83.696-24.43-102.685-65.501c-12.672-27.402-13.865-58.123-3.357-86.507    c10.505-28.383,31.458-51.028,58.992-63.761c0.017-0.008,1.252-0.623,5.517-2.507c0.344-0.152,0.737-0.143,1.072,0.024    c0.335,0.165,0.581,0.471,0.669,0.835l2.262,9.283c0.14,0.575-0.138,1.172-0.669,1.435c-0.047,0.022-0.144,0.065-0.28,0.123    l-0.154,0.064c-0.112,0.048-0.261,0.109-0.441,0.185c-0.65,0.271-1.74,0.726-3.377,1.503c-1.709,0.798-3.213,1.545-4.6,2.288    c-48.278,25.209-68.247,83.56-45.472,132.844c22.704,49.075,79.983,71.708,130.403,51.532c0.649-0.259,1.384,0.057,1.644,0.705    c0.26,0.651-0.057,1.386-0.704,1.646c-51.671,20.68-110.371-2.524-133.64-52.82c-23.345-50.513-2.88-110.316,46.586-136.146    c1.419-0.759,2.961-1.525,4.706-2.341c1.529-0.727,2.599-1.179,3.284-1.466l-1.648-6.765c-3.082,1.374-4.048,1.854-4.058,1.859    c-26.958,12.466-47.445,34.606-57.716,62.358c-10.271,27.747-9.105,57.779,3.282,84.565    c24.639,53.29,86.828,77.924,141.579,56.085c0.652-0.259,1.388,0.056,1.645,0.706c0.26,0.649-0.058,1.387-0.705,1.644    C234.513,391.801,220.236,394.419,206.19,394.419L206.19,394.419z"
         id="path50" /><path
         d="M214.506,398.241c-0.701,0-1.268-0.566-1.268-1.266v-3.709c0-0.698,0.566-1.266,1.268-1.266    c0.698,0,1.265,0.567,1.265,1.266v3.709C215.771,397.675,215.204,398.241,214.506,398.241L214.506,398.241z"
         id="path52" /><path
         d="M204.115,398.188c-0.698,0-1.267-0.562-1.267-1.266c0-1.514-0.026-3.479-0.026-3.479l2.532-0.033    c0,0,0.025,1.981,0.025,3.513C205.38,397.625,204.814,398.188,204.115,398.188L204.115,398.188z"
         id="path54" /><path
         d="M161.592,199.003c-0.488,0-0.952-0.286-1.16-0.76l-3.031-6.923c-0.236-0.481-0.158-1.082,0.242-1.473    c0.5-0.49,1.29-0.493,1.777,0.008l0.162,0.165l0.119,0.239l3.05,6.968c0.28,0.641-0.012,1.386-0.652,1.667    C161.935,198.967,161.762,199.003,161.592,199.003L161.592,199.003z"
         id="path56" /><path
         d="M170.587,194.847c-0.479,0-0.936-0.273-1.151-0.737l-3.156-6.836c-0.293-0.635-0.016-1.388,0.619-1.68    c0.633-0.293,1.388-0.017,1.679,0.618l3.157,6.838c0.294,0.635,0.016,1.386-0.619,1.681    C170.945,194.809,170.765,194.847,170.587,194.847L170.587,194.847z"
         id="path58" /><g
         id="g60"><path
           d="M237.438,260.853c0,3.341-2.708,6.024-6.021,6.024c-3.342,0-6.022-2.683-6.022-6.024c0-3.313,2.681-5.996,6.022-5.996     C234.729,254.856,237.438,257.54,237.438,260.853z"
           id="path62" /><path
           d="M231.416,268.141c-4.019,0-7.288-3.269-7.288-7.289c0-4.004,3.27-7.263,7.288-7.263c4.02,0,7.29,3.259,7.29,7.263     C238.706,264.873,235.436,268.141,231.416,268.141L231.416,268.141z M231.416,256.122c-2.623,0-4.756,2.121-4.756,4.73     c0,2.623,2.133,4.758,4.756,4.758s4.757-2.135,4.757-4.758C236.173,258.243,234.039,256.122,231.416,256.122L231.416,256.122z"
           id="path64" /></g></g></g><g
     id="g316" /><text
     xml:space="preserve"
     style="font-size:40px;font-style:normal;font-weight:normal;text-align:center;line-height:125%;letter-spacing:1.5px;word-spacing:0px;text-anchor:middle;fill:#000000;fill-opacity:1;stroke:none;font-family:Cabin Condensed;-inkscape-font-specification:Cabin Condensed"
     x="209.9075"
     y="46.151665"
     id="text3133"
     sodipodi:linespacing="125%"><tspan
       sodipodi:role="line"
       id="tspan3135"
       x="210.6575"
       y="46.151665"
       style="font-size:48px;font-style:normal;font-weight:normal;letter-spacing:1.5px;-inkscape-font-specification:'Cabin Condensed,'">Erstsemester -</tspan><tspan
       sodipodi:role="line"
       x="210.6575"
       y="106.15166"
       id="tspan3137"
       style="font-size:48px;font-style:normal;font-weight:normal;letter-spacing:1.5px;-inkscape-font-specification:'Cabin Condensed,'">Info</tspan></text>
<text
     xml:space="preserve"
     style="font-size:18px;font-style:normal;font-weight:normal;line-height:125%;letter-spacing:0px;word-spacing:0px;fill:#000000;fill-opacity:1;stroke:none;font-family:Cabin Condensed;-inkscape-font-specification:Cabin Condensed"
     x="118.32011"
     y="147.57977"
     id="text3139"
     sodipodi:linespacing="125%"><tspan
       sodipodi:role="line"
       id="tspan3141"
       x="118.32011"
       y="147.57977">Wintersemester 2013/2014</tspan></text>
<text
     xml:space="preserve"
     style="font-size:16px;font-style:normal;font-weight:normal;line-height:125%;letter-spacing:0px;word-spacing:0px;fill:#000000;fill-opacity:1;stroke:none;font-family:Cabin Condensed;-inkscape-font-specification:Cabin Condensed"
     x="71.796822"
     y="578.3374"
     id="text3143"
     sodipodi:linespacing="125%"><tspan
       sodipodi:role="line"
       id="tspan3145"
       x="71.796822"
       y="578.3374">Fachschaft GeoLök &amp; Fachschaft Geoinformatik</tspan></text>
<text
     xml:space="preserve"
     style="font-size:16px;font-style:normal;font-weight:normal;text-align:center;line-height:125%;letter-spacing:1.24999999px;word-spacing:0px;text-anchor:middle;fill:#000000;fill-opacity:1;stroke:none;font-family:Cabin Condensed;-inkscape-font-specification:'Cabin Condensed,'"
     x="210.29649"
     y="473.4548"
     id="text3147"
     sodipodi:linespacing="125%"><tspan
       sodipodi:role="line"
       id="tspan3149"
       x="211.04649"
       y="473.4548">geographie</tspan><tspan
       sodipodi:role="line"
       x="211.04649"
       y="493.4548"
       id="tspan3151">landschaftsökologie</tspan><tspan
       sodipodi:role="line"
       x="211.04649"
       y="513.45483"
       id="tspan3153">geoinformatik</tspan></text>
</svg>