<?xml version="1.0" encoding="utf-8"?>
<!-- Generator: Adobe Illustrator 15.0.0, SVG Export Plug-In . SVG Version: 6.00 Build 0)  -->
<!DOCTYPE svg PUBLIC "-//W3C//DTD SVG 1.1//EN" "http://www.w3.org/Graphics/SVG/1.1/DTD/svg11.dtd">
<svg version="1.1" id="Ebene_1" xmlns="http://www.w3.org/2000/svg" xmlns:xlink="http://www.w3.org/1999/xlink" x="0px" y="0px"
	 width="420.94px" height="595.28px" viewBox="0 0 420.94 595.28" enable-background="new 0 0 420.94 595.28" xml:space="preserve">
<g id="XMLID_2_">
	<g>
		<path d="M205.914,376.554c-17.885,0-35.367-4.994-50.553-14.445c-15.579-9.692-27.928-23.627-35.715-40.292l-0.137-0.291
			l0.628-0.281l0.105,0.023c8.75,2.064,18.204,3.111,28.103,3.111c28.677,0,60.732-8.922,87.951-24.48
			c28.087-16.058,47.907-37.022,55.807-59.036l0.273-0.754l0.314,0.738c0.039,0.089,0.083,0.176,0.129,0.266
			c0.048,0.095,0.093,0.19,0.136,0.285c21.174,45.946,2.547,100.444-42.405,124.062c-1.449,0.774-2.934,1.51-4.538,2.244
			c-1.543,0.731-3.147,1.393-4.564,1.977C230.064,374.242,218.108,376.554,205.914,376.554L205.914,376.554z M120.413,321.957
			c15.519,32.798,49.029,53.966,85.501,53.966c12.115,0,23.989-2.297,35.298-6.83c1.405-0.579,3-1.238,4.533-1.965
			c1.598-0.729,3.071-1.457,4.508-2.228c44.614-23.439,63.123-77.493,42.188-123.112c-8.119,21.896-27.912,42.702-55.83,58.659
			c-27.31,15.611-59.481,24.566-88.264,24.566C138.517,325.014,129.123,323.984,120.413,321.957L120.413,321.957z"/>
		<path d="M206.237,393.448c-21.155,0-41.816-5.925-59.757-17.135c-18.412-11.501-32.972-28.03-42.112-47.793
			c-12.565-27.172-13.748-57.636-3.33-85.78c10.419-28.147,31.195-50.601,58.501-63.229c0.041-0.02,1.256-0.626,5.502-2.501
			l0.345-0.152l2.412,9.897l-0.228,0.112c-0.039,0.02-0.118,0.054-0.225,0.099l-0.594,0.249c-0.658,0.276-1.761,0.734-3.419,1.522
			c-1.722,0.804-3.238,1.558-4.642,2.309c-48.72,25.441-68.874,84.336-45.885,134.083c16.7,36.098,53.312,59.421,93.272,59.421
			c13.158,0,26.058-2.492,38.343-7.405l0.436-0.22l3.547,8.311l-0.432,0.173c-13.37,5.334-27.408,8.037-41.727,8.04
			C206.243,393.448,206.238,393.448,206.237,393.448L206.237,393.448z M164.95,177.743c-3.946,1.747-5.125,2.333-5.137,2.339
			c-27.163,12.56-47.821,34.89-58.182,62.879c-10.359,27.984-9.183,58.274,3.311,85.293c18.134,39.219,57.894,64.559,101.294,64.559
			c0.003,0,0.004,0,0.007,0c14.176,0,28.08-2.666,41.322-7.923l-3.034-7.111c-12.337,4.917-25.267,7.405-38.455,7.405
			c0,0,0.001,0,0,0c-19.487,0-38.523-5.455-55.048-15.776c-16.961-10.59-30.378-25.813-38.799-44.016
			c-23.13-50.054-2.854-109.311,46.164-134.905c1.411-0.755,2.939-1.515,4.668-2.323c1.67-0.793,2.782-1.256,3.446-1.533l0.551-0.23
			L164.95,177.743L164.95,177.743z"/>
		<path d="M231.416,267.192c-3.494,0-6.338-2.845-6.338-6.34c0-3.481,2.844-6.312,6.338-6.312c3.496,0,6.339,2.831,6.339,6.312
			C237.755,264.347,234.912,267.192,231.416,267.192L231.416,267.192z M231.416,255.172c-3.145,0-5.705,2.549-5.705,5.681
			c0,3.147,2.561,5.705,5.705,5.705c3.146,0,5.706-2.558,5.706-5.705C237.122,257.721,234.562,255.172,231.416,255.172
			L231.416,255.172z"/>
		<path d="M180.553,278.448c-3.496,0-6.34-2.832-6.34-6.313c0-3.495,2.845-6.338,6.34-6.338c3.496,0,6.338,2.843,6.338,6.338
			C186.891,275.616,184.049,278.448,180.553,278.448L180.553,278.448z M180.553,266.43c-3.147,0-5.707,2.56-5.707,5.705
			c0,3.131,2.56,5.681,5.707,5.681c3.146,0,5.706-2.549,5.706-5.681C186.259,268.989,183.7,266.43,180.553,266.43L180.553,266.43z"
			/>
		<path d="M148.339,325.014c-9.903,0-19.369-1.046-28.136-3.105l-0.417,0.188l-0.137-0.271c-0.039-0.084-0.076-0.159-0.109-0.234
			c-0.031-0.07-0.062-0.141-0.101-0.214c-21.098-45.763-2.634-100.169,42.029-123.867c1.576-0.879,3.193-1.692,4.938-2.48
			c1.312-0.593,2.667-1.207,4.066-1.745c11.526-4.698,23.649-7.081,36.03-7.081c17.859,0,35.316,4.985,50.485,14.414
			c15.562,9.674,27.908,23.582,35.7,40.218l0.057,0.119l-0.046,0.123c-7.951,22.151-27.87,43.235-56.088,59.366
			c-27.31,15.612-59.483,24.566-88.264,24.569C148.343,325.014,148.34,325.014,148.339,325.014L148.339,325.014z M120.138,321.244
			l0.105,0.023c8.749,2.064,18.204,3.111,28.095,3.111c0.003,0,0.004,0,0.007,0c28.674,0,60.731-8.924,87.949-24.484
			c28.037-16.026,47.835-36.942,55.766-58.909c-15.47-32.897-49.037-54.149-85.559-54.149c-12.298,0-24.342,2.367-35.797,7.036
			c-1.387,0.535-2.735,1.143-4.04,1.731c-1.727,0.783-3.328,1.587-4.894,2.46c-44.373,23.544-62.714,77.587-41.76,123.035
			c0.026,0.057,0.052,0.111,0.077,0.167L120.138,321.244L120.138,321.244z M180.553,278.448c-3.496,0-6.34-2.832-6.34-6.313
			c0-3.495,2.845-6.338,6.34-6.338c3.496,0,6.338,2.843,6.338,6.338C186.891,275.616,184.049,278.448,180.553,278.448
			L180.553,278.448z M180.553,266.43c-3.147,0-5.707,2.56-5.707,5.705c0,3.131,2.56,5.681,5.707,5.681
			c3.146,0,5.706-2.549,5.706-5.681C186.259,268.989,183.7,266.43,180.553,266.43L180.553,266.43z M231.416,267.192
			c-3.494,0-6.338-2.845-6.338-6.34c0-3.481,2.844-6.312,6.338-6.312c3.496,0,6.339,2.831,6.339,6.312
			C237.755,264.347,234.912,267.192,231.416,267.192L231.416,267.192z M231.416,255.172c-3.145,0-5.705,2.549-5.705,5.681
			c0,3.147,2.561,5.705,5.705,5.705c3.146,0,5.706-2.558,5.706-5.705C237.122,257.721,234.562,255.172,231.416,255.172
			L231.416,255.172z"/>
	</g>
	<g>
		<path d="M209.374,445.342c-43.391-0.146-54.28-7.238-56.584-9.411c-0.256-0.239-0.436-0.607-0.434-0.96l0.027-4.604
			c0.004-0.695,0.57-1.258,1.266-1.258c0.003,0,0.004,0,0.007,0c0.7,0.003,1.263,0.573,1.259,1.275l-0.024,4.016
			c2.541,2.007,13.717,8.271,54.488,8.41h0.074c41.079-0.139,52.113-6.337,54.544-8.256l0.024-4.057
			c0.003-0.695,0.57-1.257,1.267-1.257c0.002,0,0.004,0,0.008,0c0.699,0.003,1.263,0.574,1.258,1.274l-0.027,4.629
			c-0.003,0.346-0.148,0.676-0.401,0.913c-2.288,2.157-13.079,9.139-56.667,9.284H209.374L209.374,445.342z"/>
		<path d="M209.68,402.426c-0.053,0-0.106,0-0.159-0.003c-2.396-0.024-6.539-0.729-7.644-1.298c-0.419-0.218-0.686-0.65-0.686-1.126
			v-1.076c0-1.153,0.537-1.712,0.802-1.916l1.317-1.029c0.365-0.286,0.86-0.346,1.285-0.162c0.993,0.434,2.67,0.71,4.603,0.761
			c0.029,0,0.059,0.003,0.087,0.006c0.028-0.003,0.056-0.006,0.084-0.006c1.952-0.051,3.601-0.321,4.638-0.763
			c0.421-0.182,0.912-0.122,1.275,0.164l1.314,1.029c0.266,0.204,0.804,0.766,0.804,1.916v1.076c0,0.476-0.268,0.911-0.69,1.126
			l-0.156,0.079c-0.027,0.014-0.057,0.028-0.086,0.043C215.276,401.747,212.282,402.426,209.68,402.426L209.68,402.426z
			 M203.725,399.085c1.291,0.324,3.946,0.786,5.823,0.807c1.889,0.03,4.122-0.414,5.322-0.77v-0.199
			c0-0.021-0.001-0.041-0.001-0.059l-0.588-0.459c-1.579,0.512-3.46,0.666-4.845,0.702c-0.049,0.003-0.101,0-0.149-0.006
			c-0.051,0.006-0.099,0.009-0.151,0.006c-1.147-0.03-3.164-0.161-4.826-0.699l-0.583,0.456c0,0.018-0.001,0.037-0.001,0.059
			V399.085L203.725,399.085z"/>
		<path d="M188.155,420.807c-0.141,0-0.285-0.025-0.425-0.075c-0.417-0.148-0.763-0.338-1.042-0.492l-0.112-0.061
			c-0.432-0.214-0.729-0.691-0.741-1.236c-0.029-0.927,0.826-2.356,1.91-2.75c1.799-0.752,5.24-1.56,6.74-1.893
			c1.121-3.309,4.154-10.562,6.905-14.901c0.373-0.589,1.157-0.764,1.748-0.392c0.59,0.375,0.765,1.158,0.391,1.749
			c-2.905,4.582-6.119,12.589-6.852,14.998c-0.134,0.441-0.499,0.773-0.952,0.869c-0.048,0.011-4.672,0.984-6.878,1.855
			c0.479,0.31,0.701,0.922,0.501,1.483C189.162,420.483,188.674,420.807,188.155,420.807L188.155,420.807z"/>
		<path d="M190.521,421.676c-0.113,0-0.229-0.018-0.344-0.047c-0.232-0.068-0.463-0.135-0.714-0.243
			c-0.642-0.28-0.935-1.026-0.656-1.669c0.278-0.641,1.024-0.934,1.666-0.655c0.13,0.058,0.261,0.091,0.39,0.127
			c0.673,0.189,1.064,0.892,0.876,1.562C191.582,421.311,191.074,421.676,190.521,421.676L190.521,421.676z"/>
		<path d="M192.915,422.306l0.261-1.242l-0.269,1.239c-0.512-0.107-1.042-0.222-1.533-0.364c-0.669-0.196-1.055-0.9-0.858-1.57
			c0.196-0.672,0.901-1.057,1.57-0.858c0.398,0.114,0.856,0.213,1.343,0.313L192.915,422.306L192.915,422.306z"/>
		<path d="M207.509,423.777c-0.009,0-0.018,0-0.028,0c-5.196-0.111-9.955-0.566-13.759-1.313c-0.686-0.134-1.132-0.8-0.998-1.487
			c0.135-0.684,0.797-1.131,1.487-0.997c3.663,0.719,8.27,1.157,13.324,1.266c0.699,0.017,1.253,0.597,1.239,1.294
			C208.759,423.229,208.195,423.777,207.509,423.777L207.509,423.777z"/>
		<path d="M209.928,423.795c-0.633,0-1.297-0.006-1.993-0.018c-0.698-0.012-1.255-0.589-1.245-1.285
			c0.012-0.702,0.576-1.277,1.287-1.247c1.762,0.027,3.298,0.022,4.699-0.024c0.701-0.031,1.284,0.524,1.306,1.225
			c0.023,0.697-0.524,1.281-1.224,1.304C211.872,423.78,210.936,423.795,209.928,423.795L209.928,423.795z"/>
		<path d="M214.452,423.671c-0.675,0-1.236-0.531-1.265-1.21c-0.029-0.698,0.512-1.288,1.212-1.319
			c3.197-0.137,6.067-0.405,8.531-0.8c0.683-0.113,1.339,0.362,1.45,1.053c0.11,0.689-0.358,1.338-1.05,1.449
			c-2.562,0.408-5.528,0.688-8.824,0.827C214.487,423.671,214.47,423.671,214.452,423.671L214.452,423.671z"/>
		<path d="M224.917,422.542c-0.592,0-1.12-0.419-1.24-1.02c-0.136-0.688,0.31-1.353,0.996-1.489
			c2.178-0.432,3.928-0.934,5.224-1.499c-2.182-0.86-6.872-1.845-6.921-1.855c-0.453-0.096-0.817-0.43-0.951-0.873
			c-0.732-2.408-3.946-10.414-6.853-14.996c-0.376-0.593-0.2-1.371,0.389-1.745c0.591-0.379,1.374-0.203,1.748,0.387
			c2.75,4.335,5.787,11.593,6.907,14.906c1.501,0.331,4.957,1.139,6.816,1.909c0.984,0.394,1.793,1.687,1.851,2.578
			c0.036,0.598-0.237,1.115-0.728,1.384c-1.539,0.902-3.902,1.677-6.989,2.289C225.082,422.534,224.998,422.542,224.917,422.542
			L224.917,422.542z"/>
		<path d="M209.43,441.136c-0.092,0-0.181-0.009-0.268-0.028c-43.318-0.182-53.873-7.182-56.079-9.326
			c-0.419-0.417-0.636-0.836-0.67-1.28c-0.121-0.946,0.484-1.769,1.066-2.205c5.443-4.374,29.873-9.94,33.377-10.628
			c0.479-0.098,0.874-0.025,1.16,0.357c0.074,0.056,0.272,0.188,0.658,0.357c0.319,0.159,0.816,0.374,1.657,0.627
			c0.047,0.014,0.096,0.034,0.142,0.052c0.13,0.058,0.261,0.091,0.39,0.127l0.249,0.073c0.285,0.087,0.555,0.164,0.839,0.214
			c0.022,0.006,0.047,0.009,0.069,0.015l0.408,0.095c0.332,0.078,0.681,0.159,1.054,0.252c0.187,0.039,0.434,0.089,0.707,0.14
			c3.491,0.657,7.982,1.084,13.362,1.269h0.405c0.022,0,0.043,0,0.066,0.002l0.069,0.003c0.456,0.022,0.91,0.049,1.363,0.049
			c0.078,0,0.155,0.006,0.229,0.021c1.027-0.023,2.027-0.052,2.971-0.099c0.611-0.025,1.189-0.053,1.74-0.079
			c2.938-0.153,5.741-0.416,8.563-0.806c0.587-0.097,1.182-0.2,1.725-0.303c4.91-0.9,6.186-1.921,6.197-1.929
			c0.298-0.299,0.682-0.387,1.094-0.305c4.222,0.827,28.328,6.291,33.51,10.517c0.139,0.101,1.072,0.844,1.072,1.952
			c0,0.549-0.229,1.078-0.644,1.486c-2.243,2.182-12.855,9.232-56.477,9.381C209.433,441.136,209.43,441.136,209.43,441.136
			L209.43,441.136z M155.134,430.218c2.307,1.913,13.023,8.221,54.379,8.359c0.086,0,0.17,0.007,0.251,0.022
			c41.231-0.173,51.835-6.512,54.058-8.369c-4.518-3.508-25.496-8.549-31.813-9.843c-0.879,0.53-2.824,1.394-6.861,2.133
			c-0.554,0.105-1.167,0.215-1.809,0.32c-2.929,0.405-5.804,0.674-8.821,0.83c-0.557,0.025-1.14,0.053-1.746,0.078
			c-1.037,0.055-2.134,0.081-3.261,0.106c-0.099,0.009-0.199-0.006-0.293-0.028c-0.417-0.006-0.837-0.026-1.256-0.047l-0.453-0.003
			c-5.552-0.189-10.172-0.632-13.775-1.311c-0.296-0.054-0.573-0.108-0.826-0.164c-0.397-0.099-0.73-0.177-1.049-0.25l-0.383-0.09
			c-0.41-0.075-0.767-0.179-1.081-0.273l-0.221-0.063c-0.206-0.06-0.411-0.118-0.634-0.21c-0.787-0.237-1.444-0.489-1.954-0.746
			c-0.321-0.146-0.579-0.282-0.783-0.407C179.927,421.673,159.492,426.827,155.134,430.218L155.134,430.218z"/>
		<path d="M205.913,377.504c-18.061,0-35.715-5.044-51.053-14.588c-15.735-9.792-28.21-23.865-36.074-40.697
			c-0.033-0.064-0.071-0.152-0.112-0.239c-0.025-0.058-0.05-0.116-0.083-0.179c-21.322-46.25-2.676-101.197,42.433-125.13
			c1.582-0.883,3.221-1.706,4.99-2.508c1.324-0.598,2.693-1.215,4.115-1.763c11.624-4.737,23.869-7.144,36.372-7.144
			c18.037,0,35.668,5.033,50.987,14.557c15.719,9.772,28.188,23.819,36.059,40.621c0.049,0.11,0.084,0.181,0.121,0.252
			c0.056,0.11,0.108,0.222,0.159,0.331c21.376,46.389,2.563,101.43-42.836,125.284c-1.458,0.781-2.962,1.522-4.585,2.267
			c-1.555,0.734-3.169,1.402-4.594,1.989C230.305,375.168,218.229,377.504,205.913,377.504L205.913,377.504z M206.502,187.788
			c-12.174,0-24.097,2.342-35.438,6.964c-1.378,0.531-2.715,1.135-4.006,1.719c-1.702,0.77-3.28,1.562-4.823,2.423
			c-43.946,23.318-62.104,76.816-41.36,121.811c0.03,0.057,0.07,0.146,0.109,0.234c0.026,0.055,0.053,0.113,0.083,0.176
			c15.292,32.729,48.59,53.857,84.846,53.857c11.992,0,23.75-2.275,34.947-6.761c1.385-0.571,2.969-1.224,4.479-1.941
			c1.591-0.728,3.047-1.446,4.467-2.207c44.218-23.232,62.536-76.825,41.714-122.01c-0.043-0.094-0.077-0.163-0.113-0.232
			c-0.059-0.118-0.116-0.235-0.166-0.352C275.968,208.874,242.7,187.788,206.502,187.788L206.502,187.788z"/>
		<path d="M248.14,386.724c-0.512,0-0.98-0.312-1.176-0.798l-0.156-0.396l-6.488-15.253c-0.271-0.644,0.029-1.387,0.671-1.658
			c0.644-0.274,1.387,0.025,1.66,0.669l6.281,14.771c3.107-0.504,4.691-1.205,6.961-3.088l-6.362-14.735
			c-0.279-0.643,0.017-1.386,0.659-1.666c0.642-0.276,1.386,0.021,1.663,0.662l6.734,15.593c0.219,0.503,0.087,1.093-0.327,1.453
			c-3.254,2.852-5.392,3.804-9.945,4.433C248.254,386.719,248.197,386.724,248.14,386.724L248.14,386.724z"/>
		<path d="M148.553,325.988c-10.003,0-19.639-1.048-28.673-3.181c-0.681-0.16-1.103-0.841-0.94-1.522
			c0.159-0.681,0.838-1.099,1.523-0.942c30.22,7.13,67.426,1.892,102.08-14.376c34.028-15.974,59.697-40.432,68.668-65.424
			c0.236-0.658,0.959-0.999,1.619-0.765c0.656,0.237,0.999,0.962,0.764,1.62c-4.752,13.239-13.623,25.993-26.368,37.907
			c-11.927,11.148-27.004,21.16-43.605,28.954C198.782,319.917,172.617,325.988,148.553,325.988L148.553,325.988z"/>
		<g>
			<path d="M186.576,272.135c0,3.313-2.709,5.996-6.022,5.996c-3.34,0-6.023-2.683-6.023-5.996c0-3.338,2.683-6.021,6.023-6.021
				C183.866,266.113,186.576,268.796,186.576,272.135z"/>
			<path d="M180.553,279.397c-4.019,0-7.289-3.257-7.289-7.262c0-4.018,3.27-7.287,7.289-7.287c4.019,0,7.289,3.27,7.289,7.287
				C187.842,276.14,184.572,279.397,180.553,279.397L180.553,279.397z M180.553,267.379c-2.623,0-4.757,2.132-4.757,4.755
				c0,2.609,2.134,4.73,4.757,4.73s4.756-2.121,4.756-4.73C185.31,269.512,183.176,267.379,180.553,267.379L180.553,267.379z"/>
		</g>
		<path d="M206.19,394.419c-42.911,0.003-83.696-24.43-102.685-65.501c-12.672-27.402-13.865-58.123-3.357-86.507
			c10.505-28.383,31.458-51.028,58.992-63.761c0.017-0.008,1.252-0.623,5.517-2.507c0.344-0.152,0.737-0.143,1.072,0.024
			c0.335,0.165,0.581,0.471,0.669,0.835l2.262,9.283c0.14,0.575-0.138,1.172-0.669,1.435c-0.047,0.022-0.144,0.065-0.28,0.123
			l-0.154,0.064c-0.112,0.048-0.261,0.109-0.441,0.185c-0.65,0.271-1.74,0.726-3.377,1.503c-1.709,0.798-3.213,1.545-4.6,2.288
			c-48.278,25.209-68.247,83.56-45.472,132.844c22.704,49.075,79.983,71.708,130.403,51.532c0.649-0.259,1.384,0.057,1.644,0.705
			c0.26,0.651-0.057,1.386-0.704,1.646c-51.671,20.68-110.371-2.524-133.64-52.82c-23.345-50.513-2.88-110.316,46.586-136.146
			c1.419-0.759,2.961-1.525,4.706-2.341c1.529-0.727,2.599-1.179,3.284-1.466l-1.648-6.765c-3.082,1.374-4.048,1.854-4.058,1.859
			c-26.958,12.466-47.445,34.606-57.716,62.358c-10.271,27.747-9.105,57.779,3.282,84.565
			c24.639,53.29,86.828,77.924,141.579,56.085c0.652-0.259,1.388,0.056,1.645,0.706c0.26,0.649-0.058,1.387-0.705,1.644
			C234.513,391.801,220.236,394.419,206.19,394.419L206.19,394.419z"/>
		<path d="M214.506,398.241c-0.701,0-1.268-0.566-1.268-1.266v-3.709c0-0.698,0.566-1.266,1.268-1.266
			c0.698,0,1.265,0.567,1.265,1.266v3.709C215.771,397.675,215.204,398.241,214.506,398.241L214.506,398.241z"/>
		<path d="M204.115,398.188c-0.698,0-1.267-0.562-1.267-1.266c0-1.514-0.026-3.479-0.026-3.479l2.532-0.033
			c0,0,0.025,1.981,0.025,3.513C205.38,397.625,204.814,398.188,204.115,398.188L204.115,398.188z"/>
		<path d="M161.592,199.003c-0.488,0-0.952-0.286-1.16-0.76l-3.031-6.923c-0.236-0.481-0.158-1.082,0.242-1.473
			c0.5-0.49,1.29-0.493,1.777,0.008l0.162,0.165l0.119,0.239l3.05,6.968c0.28,0.641-0.012,1.386-0.652,1.667
			C161.935,198.967,161.762,199.003,161.592,199.003L161.592,199.003z"/>
		<path d="M170.587,194.847c-0.479,0-0.936-0.273-1.151-0.737l-3.156-6.836c-0.293-0.635-0.016-1.388,0.619-1.68
			c0.633-0.293,1.388-0.017,1.679,0.618l3.157,6.838c0.294,0.635,0.016,1.386-0.619,1.681
			C170.945,194.809,170.765,194.847,170.587,194.847L170.587,194.847z"/>
		<g>
			<path d="M237.438,260.853c0,3.341-2.708,6.024-6.021,6.024c-3.342,0-6.022-2.683-6.022-6.024c0-3.313,2.681-5.996,6.022-5.996
				C234.729,254.856,237.438,257.54,237.438,260.853z"/>
			<path d="M231.416,268.141c-4.019,0-7.288-3.269-7.288-7.289c0-4.004,3.27-7.263,7.288-7.263c4.02,0,7.29,3.259,7.29,7.263
				C238.706,264.873,235.436,268.141,231.416,268.141L231.416,268.141z M231.416,256.122c-2.623,0-4.756,2.121-4.756,4.73
				c0,2.623,2.133,4.758,4.756,4.758s4.757-2.135,4.757-4.758C236.173,258.243,234.039,256.122,231.416,256.122L231.416,256.122z"/>
		</g>
	</g>
</g>
<g>
	<rect x="21.143" y="13" fill="none" width="376.284" height="93.431"/>
	<path d="M73.032,12.993h18.261v4.104H77.644v9.822h13.188v4.127H77.644v10.006h14.087v4.104H73.032V12.993z"/>
	<path d="M100.562,23.991v4.865l0.23-0.369c2.029-3.274,4.058-4.911,6.087-4.911c1.583,0,3.236,0.8,4.958,2.398l-2.213,3.689
		c-1.46-1.383-2.813-2.075-4.058-2.075c-1.353,0-2.525,0.646-3.516,1.937c-0.992,1.292-1.487,2.821-1.487,4.588v11.09h-4.219V23.991
		H100.562z"/>
	<path d="M113.727,43.682v-4.519c1.184,0.83,2.394,1.503,3.632,2.018c1.237,0.515,2.278,0.772,3.124,0.772
		c0.876,0,1.629-0.215,2.259-0.646s0.945-0.945,0.945-1.545c0-0.615-0.204-1.126-0.611-1.533s-1.288-0.995-2.64-1.764
		c-2.706-1.506-4.477-2.793-5.314-3.862s-1.256-2.232-1.256-3.493c0-1.629,0.634-2.958,1.902-3.989
		c1.269-1.03,2.901-1.545,4.9-1.545c2.075,0,4.204,0.584,6.387,1.752v4.15c-2.49-1.506-4.527-2.26-6.11-2.26
		c-0.815,0-1.472,0.173-1.971,0.52s-0.75,0.804-0.75,1.374c0,0.493,0.227,0.962,0.679,1.408c0.453,0.446,1.248,0.984,2.386,1.614
		l1.499,0.853c3.537,1.998,5.305,4.21,5.305,6.638c0,1.737-0.68,3.162-2.041,4.276c-1.36,1.114-3.109,1.671-5.245,1.671
		c-1.261,0-2.383-0.135-3.366-0.404C116.455,44.9,115.218,44.405,113.727,43.682z"/>
	<path d="M129.958,27.357l7.885-7.747v4.381h6.709v3.781h-6.709v10.382c0,2.425,1.007,3.637,3.021,3.637
		c1.506,0,3.097-0.499,4.773-1.499v3.92c-1.614,0.907-3.375,1.36-5.28,1.36c-1.921,0-3.52-0.561-4.796-1.684
		c-0.4-0.338-0.73-0.718-0.991-1.141c-0.262-0.422-0.48-0.976-0.657-1.66c-0.177-0.684-0.265-1.986-0.265-3.908v-9.407h-3.689
		V27.357z"/>
	<path d="M147.62,43.682v-4.519c1.184,0.83,2.394,1.503,3.632,2.018c1.237,0.515,2.278,0.772,3.124,0.772
		c0.876,0,1.629-0.215,2.259-0.646s0.945-0.945,0.945-1.545c0-0.615-0.204-1.126-0.611-1.533s-1.288-0.995-2.64-1.764
		c-2.706-1.506-4.477-2.793-5.314-3.862s-1.256-2.232-1.256-3.493c0-1.629,0.634-2.958,1.902-3.989
		c1.269-1.03,2.901-1.545,4.9-1.545c2.075,0,4.204,0.584,6.387,1.752v4.15c-2.49-1.506-4.527-2.26-6.11-2.26
		c-0.815,0-1.472,0.173-1.971,0.52s-0.75,0.804-0.75,1.374c0,0.493,0.227,0.962,0.679,1.408c0.453,0.446,1.248,0.984,2.386,1.614
		l1.499,0.853c3.537,1.998,5.305,4.21,5.305,6.638c0,1.737-0.68,3.162-2.041,4.276c-1.36,1.114-3.109,1.671-5.245,1.671
		c-1.261,0-2.383-0.135-3.366-0.404C150.348,44.9,149.111,44.405,147.62,43.682z"/>
	<path d="M184.902,34.966h-14.918c0.107,2.029,0.788,3.643,2.041,4.842c1.253,1.199,2.871,1.799,4.854,1.799
		c2.767,0,5.318-0.861,7.655-2.583v4.104c-1.291,0.861-2.571,1.476-3.839,1.845c-1.268,0.369-2.755,0.553-4.461,0.553
		c-2.336,0-4.227-0.484-5.672-1.453s-2.602-2.271-3.47-3.908c-0.868-1.637-1.303-3.531-1.303-5.683c0-3.228,0.915-5.853,2.744-7.874
		c1.829-2.021,4.204-3.032,7.125-3.032c2.812,0,5.057,0.984,6.732,2.952c1.675,1.967,2.513,4.604,2.513,7.908V34.966z
		 M170.077,32.453h10.675c-0.107-1.675-0.607-2.966-1.499-3.874c-0.892-0.907-2.091-1.36-3.597-1.36c-1.507,0-2.74,0.454-3.701,1.36
		C170.995,29.487,170.369,30.778,170.077,32.453z"/>
	<path d="M206.829,29.802v15.402h-4.219V33.398c0-2.352-0.315-3.992-0.945-4.922c-0.63-0.93-1.729-1.395-3.297-1.395
		c-0.876,0-1.679,0.2-2.409,0.6c-0.73,0.4-1.564,1.106-2.501,2.121v15.402h-4.196V23.991h4.196v2.79
		c2.136-2.136,4.227-3.205,6.271-3.205c2.69,0,4.773,1.276,6.249,3.828c2.244-2.583,4.587-3.874,7.033-3.874
		c2.059,0,3.754,0.753,5.084,2.259c1.328,1.507,1.994,3.805,1.994,6.894v12.52h-4.197V32.638c0-1.768-0.361-3.12-1.082-4.058
		c-0.723-0.938-1.762-1.406-3.113-1.406C209.956,27.173,208.335,28.049,206.829,29.802z"/>
	<path d="M243.928,34.966H229.01c0.107,2.029,0.788,3.643,2.041,4.842c1.252,1.199,2.87,1.799,4.854,1.799
		c2.767,0,5.317-0.861,7.654-2.583v4.104c-1.291,0.861-2.57,1.476-3.839,1.845c-1.268,0.369-2.755,0.553-4.461,0.553
		c-2.337,0-4.228-0.484-5.673-1.453c-1.444-0.968-2.602-2.271-3.47-3.908c-0.868-1.637-1.303-3.531-1.303-5.683
		c0-3.228,0.915-5.853,2.744-7.874c1.829-2.021,4.204-3.032,7.124-3.032c2.813,0,5.058,0.984,6.732,2.952
		c1.676,1.967,2.514,4.604,2.514,7.908V34.966z M229.103,32.453h10.675c-0.107-1.675-0.607-2.966-1.499-3.874
		c-0.892-0.907-2.09-1.36-3.597-1.36c-1.506,0-2.74,0.454-3.7,1.36C230.021,29.487,229.394,30.778,229.103,32.453z"/>
	<path d="M247.432,43.682v-4.519c1.184,0.83,2.395,1.503,3.632,2.018c1.237,0.515,2.278,0.772,3.124,0.772
		c0.876,0,1.629-0.215,2.26-0.646c0.63-0.43,0.945-0.945,0.945-1.545c0-0.615-0.204-1.126-0.611-1.533s-1.287-0.995-2.64-1.764
		c-2.706-1.506-4.478-2.793-5.314-3.862c-0.838-1.068-1.257-2.232-1.257-3.493c0-1.629,0.634-2.958,1.902-3.989
		c1.268-1.03,2.901-1.545,4.899-1.545c2.075,0,4.204,0.584,6.387,1.752v4.15c-2.49-1.506-4.527-2.26-6.11-2.26
		c-0.814,0-1.472,0.173-1.972,0.52c-0.499,0.346-0.749,0.804-0.749,1.374c0,0.493,0.227,0.962,0.679,1.408
		c0.453,0.446,1.248,0.984,2.386,1.614l1.499,0.853c3.536,1.998,5.305,4.21,5.305,6.638c0,1.737-0.68,3.162-2.04,4.276
		c-1.36,1.114-3.109,1.671-5.246,1.671c-1.26,0-2.382-0.135-3.366-0.404C250.16,44.9,248.923,44.405,247.432,43.682z"/>
	<path d="M263.664,27.357l7.886-7.747v4.381h6.709v3.781h-6.709v10.382c0,2.425,1.006,3.637,3.02,3.637
		c1.507,0,3.098-0.499,4.773-1.499v3.92c-1.614,0.907-3.374,1.36-5.28,1.36c-1.922,0-3.52-0.561-4.796-1.684
		c-0.399-0.338-0.73-0.718-0.991-1.141c-0.262-0.422-0.48-0.976-0.657-1.66c-0.177-0.684-0.265-1.986-0.265-3.908v-9.407h-3.689
		V27.357z"/>
	<path d="M300.439,34.966h-14.918c0.107,2.029,0.788,3.643,2.041,4.842c1.252,1.199,2.87,1.799,4.854,1.799
		c2.767,0,5.317-0.861,7.654-2.583v4.104c-1.291,0.861-2.57,1.476-3.839,1.845c-1.268,0.369-2.755,0.553-4.461,0.553
		c-2.337,0-4.228-0.484-5.673-1.453c-1.444-0.968-2.602-2.271-3.47-3.908c-0.868-1.637-1.303-3.531-1.303-5.683
		c0-3.228,0.915-5.853,2.744-7.874c1.829-2.021,4.204-3.032,7.124-3.032c2.813,0,5.058,0.984,6.732,2.952
		c1.676,1.967,2.514,4.604,2.514,7.908V34.966z M285.614,32.453h10.675c-0.107-1.675-0.607-2.966-1.499-3.874
		c-0.892-0.907-2.09-1.36-3.597-1.36c-1.506,0-2.74,0.454-3.7,1.36C286.532,29.487,285.905,30.778,285.614,32.453z"/>
	<path d="M309.478,23.991v4.865l0.23-0.369c2.028-3.274,4.058-4.911,6.087-4.911c1.583,0,3.235,0.8,4.957,2.398l-2.214,3.689
		c-1.46-1.383-2.812-2.075-4.058-2.075c-1.353,0-2.524,0.646-3.517,1.937c-0.991,1.292-1.486,2.821-1.486,4.588v11.09h-4.22V23.991
		H309.478z"/>
	<path d="M335.716,32.5h11.482v4.496h-11.482V32.5z"/>
	<path d="M176.475,69.657h4.611v32.21h-4.611V69.657z"/>
	<path d="M191.854,80.655v2.698c1.875-2.075,4.004-3.113,6.387-3.113c1.322,0,2.551,0.342,3.689,1.026s2.002,1.622,2.594,2.813
		c0.591,1.191,0.888,3.078,0.888,5.66v12.128h-4.196V89.786c0-2.167-0.331-3.716-0.992-4.646c-0.661-0.93-1.768-1.395-3.32-1.395
		c-1.983,0-3.666,0.991-5.05,2.974v15.148h-4.289V80.655H191.854z"/>
	<path d="M211.752,80.655v-1.268c0-3.412,0.727-5.956,2.18-7.632c1.452-1.675,3.193-2.513,5.222-2.513
		c0.876,0,1.914,0.139,3.113,0.415v4.104c-0.677-0.246-1.322-0.369-1.938-0.369c-1.645,0-2.786,0.438-3.424,1.314
		c-0.638,0.876-0.957,2.437-0.957,4.681v1.268h3.782v3.781h-3.782v17.431h-4.196V84.437h-3.043v-3.781H211.752z"/>
	<path d="M232.757,80.609c3.228,0,5.91,1.042,8.047,3.124c2.137,2.083,3.205,4.7,3.205,7.851c0,3.059-1.084,5.599-3.251,7.62
		c-2.168,2.021-4.896,3.032-8.186,3.032c-3.182,0-5.841-1.026-7.978-3.078c-2.137-2.052-3.205-4.615-3.205-7.689
		c0-3.105,1.08-5.691,3.24-7.759C226.789,81.643,229.498,80.609,232.757,80.609z M232.526,84.391c-2.014,0-3.666,0.661-4.957,1.983
		c-1.291,1.322-1.937,3.005-1.937,5.049c0,2.029,0.66,3.686,1.982,4.969c1.322,1.284,3.021,1.925,5.096,1.925
		c2.06,0,3.746-0.649,5.061-1.948c1.314-1.299,1.972-2.963,1.972-4.992c0-2.014-0.685-3.681-2.052-5.003
		C236.322,85.052,234.602,84.391,232.526,84.391z"/>
</g>
<g>
	<path d="M137.63,130.192h1.672l-4.735,11.763h-0.368l-3.83-9.524l-3.869,9.524h-0.36l-4.721-11.763h1.689l3.228,8.074l3.249-8.074
		h1.585l3.265,8.074L137.63,130.192z"/>
	<path d="M141.18,130.946c0.251,0,0.467,0.087,0.646,0.26s0.269,0.386,0.269,0.637c0,0.246-0.09,0.458-0.269,0.637
		s-0.394,0.268-0.646,0.268c-0.235,0-0.441-0.091-0.621-0.272c-0.179-0.182-0.268-0.393-0.268-0.633
		c0-0.235,0.089-0.443,0.268-0.625C140.739,131.038,140.945,130.946,141.18,130.946z M140.426,134.191h1.526v7.713h-1.526V134.191z"
		/>
	<path d="M145.682,134.191v0.981c0.682-0.755,1.456-1.132,2.322-1.132c0.481,0,0.928,0.124,1.342,0.373
		c0.414,0.249,0.728,0.59,0.943,1.023c0.215,0.433,0.323,1.119,0.323,2.058v4.41h-1.526v-4.394c0-0.788-0.121-1.351-0.361-1.689
		c-0.24-0.338-0.643-0.507-1.207-0.507c-0.721,0-1.333,0.36-1.836,1.082v5.508h-1.56v-7.713H145.682z"/>
	<path d="M151.66,135.416l2.867-2.817v1.593h2.44v1.375h-2.44v3.775c0,0.882,0.366,1.323,1.099,1.323
		c0.548,0,1.126-0.182,1.735-0.545v1.425c-0.587,0.33-1.227,0.495-1.92,0.495c-0.699,0-1.28-0.204-1.744-0.612
		c-0.146-0.123-0.266-0.261-0.361-0.415c-0.095-0.153-0.175-0.355-0.239-0.604c-0.064-0.249-0.097-0.722-0.097-1.421v-3.42h-1.341
		V135.416z"/>
	<path d="M165.033,138.182h-5.425c0.039,0.738,0.287,1.325,0.742,1.761s1.044,0.654,1.765,0.654c1.006,0,1.934-0.313,2.783-0.939
		v1.493c-0.469,0.313-0.935,0.537-1.396,0.67c-0.461,0.134-1.002,0.201-1.622,0.201c-0.85,0-1.537-0.176-2.062-0.528
		c-0.525-0.353-0.946-0.826-1.262-1.421c-0.316-0.595-0.474-1.284-0.474-2.067c0-1.173,0.333-2.128,0.998-2.863
		c0.665-0.735,1.528-1.103,2.59-1.103c1.023,0,1.839,0.357,2.448,1.073c0.609,0.716,0.914,1.674,0.914,2.876V138.182z
		 M159.642,137.268h3.882c-0.039-0.609-0.221-1.079-0.545-1.408c-0.324-0.33-0.76-0.495-1.308-0.495s-0.996,0.165-1.345,0.495
		C159.976,136.189,159.748,136.659,159.642,137.268z"/>
	<path d="M168.319,134.191v1.769l0.084-0.134c0.738-1.19,1.476-1.786,2.213-1.786c0.576,0,1.177,0.291,1.803,0.872l-0.805,1.342
		c-0.531-0.503-1.023-0.755-1.476-0.755c-0.492,0-0.918,0.235-1.278,0.705c-0.36,0.469-0.541,1.025-0.541,1.668v4.033h-1.534v-7.713
		H168.319z"/>
	<path d="M173.107,141.352v-1.644c0.431,0.302,0.871,0.546,1.321,0.734c0.45,0.187,0.829,0.281,1.136,0.281
		c0.319,0,0.593-0.078,0.822-0.235c0.229-0.156,0.344-0.344,0.344-0.562c0-0.224-0.074-0.41-0.222-0.558s-0.468-0.362-0.96-0.642
		c-0.984-0.548-1.628-1.016-1.933-1.404c-0.305-0.388-0.457-0.812-0.457-1.27c0-0.593,0.231-1.076,0.692-1.451
		s1.055-0.562,1.782-0.562c0.754,0,1.529,0.212,2.322,0.637v1.509c-0.905-0.547-1.646-0.821-2.222-0.821
		c-0.296,0-0.535,0.063-0.717,0.188c-0.182,0.126-0.272,0.292-0.272,0.5c0,0.179,0.082,0.35,0.247,0.512s0.454,0.358,0.868,0.587
		l0.545,0.31c1.286,0.727,1.929,1.531,1.929,2.414c0,0.631-0.248,1.15-0.742,1.555c-0.495,0.405-1.13,0.608-1.907,0.608
		c-0.458,0-0.867-0.049-1.224-0.147C174.099,141.794,173.649,141.614,173.107,141.352z"/>
	<path d="M186.664,138.182h-5.425c0.039,0.738,0.287,1.325,0.742,1.761s1.044,0.654,1.765,0.654c1.006,0,1.934-0.313,2.783-0.939
		v1.493c-0.469,0.313-0.935,0.537-1.396,0.67c-0.461,0.134-1.002,0.201-1.622,0.201c-0.85,0-1.537-0.176-2.062-0.528
		c-0.525-0.353-0.946-0.826-1.262-1.421c-0.316-0.595-0.474-1.284-0.474-2.067c0-1.173,0.333-2.128,0.998-2.863
		c0.665-0.735,1.528-1.103,2.59-1.103c1.023,0,1.839,0.357,2.448,1.073c0.609,0.716,0.914,1.674,0.914,2.876V138.182z
		 M181.273,137.268h3.882c-0.039-0.609-0.221-1.079-0.545-1.408c-0.324-0.33-0.76-0.495-1.308-0.495s-0.996,0.165-1.345,0.495
		C181.607,136.189,181.379,136.659,181.273,137.268z"/>
	<path d="M194.638,136.304v5.601h-1.534v-4.293c0-0.855-0.115-1.452-0.344-1.79c-0.229-0.338-0.629-0.507-1.199-0.507
		c-0.318,0-0.611,0.072-0.876,0.218c-0.266,0.146-0.569,0.402-0.91,0.771v5.601h-1.526v-7.713h1.526v1.014
		c0.777-0.777,1.537-1.165,2.28-1.165c0.978,0,1.736,0.464,2.272,1.392c0.816-0.939,1.668-1.409,2.557-1.409
		c0.749,0,1.365,0.274,1.849,0.822s0.725,1.383,0.725,2.507v4.553h-1.526v-4.569c0-0.643-0.131-1.135-0.394-1.476
		s-0.64-0.512-1.132-0.512C195.775,135.348,195.186,135.667,194.638,136.304z"/>
	<path d="M208.128,138.182h-5.425c0.039,0.738,0.287,1.325,0.742,1.761s1.044,0.654,1.765,0.654c1.006,0,1.934-0.313,2.783-0.939
		v1.493c-0.469,0.313-0.935,0.537-1.396,0.67c-0.461,0.134-1.002,0.201-1.622,0.201c-0.85,0-1.537-0.176-2.062-0.528
		c-0.525-0.353-0.946-0.826-1.262-1.421c-0.316-0.595-0.474-1.284-0.474-2.067c0-1.173,0.333-2.128,0.998-2.863
		c0.665-0.735,1.528-1.103,2.59-1.103c1.023,0,1.839,0.357,2.448,1.073c0.609,0.716,0.914,1.674,0.914,2.876V138.182z
		 M202.737,137.268h3.882c-0.039-0.609-0.221-1.079-0.545-1.408c-0.324-0.33-0.76-0.495-1.308-0.495s-0.996,0.165-1.345,0.495
		C203.071,136.189,202.843,136.659,202.737,137.268z"/>
	<path d="M209.402,141.352v-1.644c0.431,0.302,0.871,0.546,1.321,0.734c0.449,0.187,0.828,0.281,1.136,0.281
		c0.319,0,0.593-0.078,0.821-0.235c0.229-0.156,0.344-0.344,0.344-0.562c0-0.224-0.074-0.41-0.222-0.558s-0.468-0.362-0.96-0.642
		c-0.984-0.548-1.628-1.016-1.933-1.404c-0.305-0.388-0.457-0.812-0.457-1.27c0-0.593,0.231-1.076,0.692-1.451
		s1.055-0.562,1.782-0.562c0.754,0,1.529,0.212,2.322,0.637v1.509c-0.905-0.547-1.646-0.821-2.222-0.821
		c-0.296,0-0.535,0.063-0.717,0.188c-0.182,0.126-0.272,0.292-0.272,0.5c0,0.179,0.082,0.35,0.246,0.512
		c0.165,0.162,0.455,0.358,0.868,0.587l0.545,0.31c1.286,0.727,1.929,1.531,1.929,2.414c0,0.631-0.247,1.15-0.742,1.555
		c-0.494,0.405-1.13,0.608-1.906,0.608c-0.459,0-0.867-0.049-1.225-0.147C210.394,141.794,209.944,141.614,209.402,141.352z"/>
	<path d="M215.305,135.416l2.867-2.817v1.593h2.439v1.375h-2.439v3.775c0,0.882,0.366,1.323,1.099,1.323
		c0.548,0,1.126-0.182,1.735-0.545v1.425c-0.587,0.33-1.227,0.495-1.92,0.495c-0.699,0-1.279-0.204-1.744-0.612
		c-0.145-0.123-0.266-0.261-0.36-0.415c-0.095-0.153-0.175-0.355-0.239-0.604s-0.096-0.722-0.096-1.421v-3.42h-1.342V135.416z"/>
	<path d="M228.678,138.182h-5.425c0.039,0.738,0.286,1.325,0.742,1.761s1.044,0.654,1.765,0.654c1.006,0,1.934-0.313,2.783-0.939
		v1.493c-0.469,0.313-0.934,0.537-1.396,0.67c-0.461,0.134-1.002,0.201-1.622,0.201c-0.85,0-1.537-0.176-2.062-0.528
		c-0.525-0.353-0.946-0.826-1.262-1.421c-0.316-0.595-0.475-1.284-0.475-2.067c0-1.173,0.333-2.128,0.998-2.863
		c0.666-0.735,1.529-1.103,2.591-1.103c1.022,0,1.839,0.357,2.448,1.073c0.609,0.716,0.914,1.674,0.914,2.876V138.182z
		 M223.287,137.268h3.881c-0.039-0.609-0.221-1.079-0.545-1.408c-0.324-0.33-0.76-0.495-1.308-0.495s-0.996,0.165-1.345,0.495
		C223.621,136.189,223.393,136.659,223.287,137.268z"/>
	<path d="M231.964,134.191v1.769l0.084-0.134c0.737-1.19,1.476-1.786,2.214-1.786c0.575,0,1.176,0.291,1.803,0.872l-0.805,1.342
		c-0.531-0.503-1.023-0.755-1.477-0.755c-0.492,0-0.918,0.235-1.278,0.705c-0.36,0.469-0.541,1.025-0.541,1.668v4.033h-1.534v-7.713
		H231.964z"/>
	<path d="M244.357,140.287h4.459v1.618h-7.412v-0.117l0.705-0.83c1.101-1.364,1.977-2.521,2.628-3.471s1.076-1.668,1.274-2.155
		c0.199-0.486,0.298-0.967,0.298-1.442c0-0.659-0.188-1.189-0.562-1.588c-0.375-0.4-0.872-0.6-1.492-0.6
		c-0.471,0-0.933,0.138-1.389,0.415c-0.455,0.276-0.864,0.667-1.228,1.169v-2.129c0.911-0.744,1.851-1.115,2.817-1.115
		c1.022,0,1.865,0.341,2.527,1.023s0.994,1.548,0.994,2.6c0,0.47-0.083,0.971-0.248,1.505c-0.164,0.534-0.457,1.149-0.875,1.845
		c-0.42,0.696-1.132,1.645-2.138,2.847L244.357,140.287z"/>
	<path d="M253.764,130.041c1.072,0,1.96,0.563,2.662,1.689c0.701,1.126,1.052,2.556,1.052,4.289c0,1.777-0.351,3.223-1.052,4.334
		c-0.702,1.112-1.611,1.668-2.73,1.668c-1.134,0-2.045-0.545-2.732-1.635s-1.031-2.535-1.031-4.334c0-1.778,0.355-3.224,1.064-4.339
		C251.706,130.599,252.629,130.041,253.764,130.041z M253.779,131.634h-0.084c-0.643,0-1.152,0.396-1.529,1.187
		s-0.566,1.863-0.566,3.215c0,1.386,0.186,2.474,0.554,3.262c0.369,0.788,0.878,1.182,1.526,1.182s1.159-0.394,1.533-1.182
		c0.375-0.788,0.562-1.858,0.562-3.211c0-1.358-0.18-2.439-0.541-3.245C254.874,132.037,254.389,131.634,253.779,131.634z"/>
	<path d="M261.46,130.192h1.677v11.713h-1.677V130.192z"/>
	<path d="M270.113,140.287h4.459v1.618h-7.412v-0.117l0.705-0.83c1.102-1.364,1.977-2.521,2.629-3.471
		c0.65-0.95,1.074-1.668,1.273-2.155s0.297-0.967,0.297-1.442c0-0.659-0.186-1.189-0.561-1.588c-0.375-0.4-0.873-0.6-1.492-0.6
		c-0.471,0-0.932,0.138-1.389,0.415c-0.455,0.276-0.865,0.667-1.229,1.169v-2.129c0.912-0.744,1.852-1.115,2.818-1.115
		c1.021,0,1.865,0.341,2.527,1.023s0.994,1.548,0.994,2.6c0,0.47-0.082,0.971-0.248,1.505c-0.164,0.534-0.457,1.149-0.875,1.845
		c-0.42,0.696-1.133,1.645-2.137,2.847L270.113,140.287z"/>
	<path d="M275.199,142.056l3.373-12.031h1.209l-3.363,12.031H275.199z"/>
	<path d="M283.451,130.192h1.676v11.713h-1.676V130.192z"/>
	<path d="M291.66,135.088h0.1c0.732,0,1.291-0.151,1.674-0.453s0.574-0.741,0.574-1.316c0-0.52-0.186-0.942-0.559-1.266
		c-0.371-0.324-0.859-0.486-1.463-0.486c-0.609,0-1.285,0.19-2.029,0.57v-1.602c0.682-0.341,1.426-0.511,2.23-0.511
		c1.078,0,1.93,0.282,2.553,0.846c0.623,0.564,0.936,1.335,0.936,2.312c0,0.592-0.121,1.091-0.361,1.496s-0.623,0.753-1.148,1.043
		c0.459,0.179,0.795,0.399,1.006,0.659c0.213,0.26,0.379,0.575,0.496,0.944s0.176,0.761,0.176,1.175c0,1.023-0.342,1.87-1.023,2.538
		c-0.682,0.668-1.543,1.003-2.582,1.003c-0.889,0-1.746-0.215-2.574-0.646v-1.828c0.883,0.554,1.742,0.83,2.574,0.83
		c0.564,0,1.02-0.167,1.363-0.503s0.516-0.78,0.516-1.333c0-0.464-0.143-0.869-0.428-1.216c-0.168-0.196-0.354-0.339-0.559-0.432
		c-0.203-0.092-0.645-0.181-1.32-0.264l-0.15-0.017V135.088z"/>
</g>
<g>
	<path d="M72.367,567.542h5.205v1.244h-3.808v2.725h3.808v1.243h-3.808v4.549h-1.397V567.542z"/>
	<path d="M82.931,573.439v2.731c0,0.219,0.075,0.328,0.224,0.328c0.154,0,0.394-0.114,0.72-0.342v0.775
		c-0.289,0.187-0.521,0.313-0.695,0.381c-0.174,0.067-0.357,0.101-0.548,0.101c-0.545,0-0.866-0.214-0.964-0.643
		c-0.541,0.42-1.116,0.629-1.726,0.629c-0.447,0-0.82-0.147-1.118-0.443c-0.298-0.296-0.447-0.667-0.447-1.114
		c0-0.405,0.146-0.768,0.437-1.087s0.705-0.571,1.24-0.758l1.628-0.559v-0.343c0-0.773-0.387-1.16-1.16-1.16
		c-0.694,0-1.37,0.359-2.026,1.076v-1.391c0.494-0.582,1.204-0.873,2.131-0.873c0.694,0,1.25,0.182,1.669,0.545
		c0.14,0.116,0.266,0.271,0.377,0.465s0.183,0.387,0.213,0.58S82.931,572.898,82.931,573.439z M81.681,576.031v-1.907l-0.853,0.328
		c-0.433,0.172-0.739,0.346-0.918,0.521c-0.18,0.175-0.269,0.393-0.269,0.653c0,0.266,0.085,0.482,0.255,0.649
		c0.17,0.168,0.39,0.252,0.66,0.252C80.961,576.527,81.336,576.362,81.681,576.031z"/>
	<path d="M89.82,575.801v1.258c-0.638,0.237-1.262,0.355-1.873,0.355c-1.006,0-1.809-0.298-2.407-0.894
		c-0.599-0.597-0.898-1.396-0.898-2.396c0-1.011,0.291-1.826,0.874-2.445c0.582-0.62,1.348-0.93,2.298-0.93
		c0.331,0,0.628,0.031,0.891,0.095c0.263,0.062,0.588,0.18,0.975,0.353v1.355c-0.643-0.41-1.239-0.615-1.789-0.615
		c-0.573,0-1.043,0.202-1.412,0.604c-0.368,0.403-0.552,0.917-0.552,1.541c0,0.656,0.199,1.179,0.597,1.564
		c0.398,0.387,0.935,0.58,1.611,0.58C88.625,576.227,89.187,576.085,89.82,575.801z"/>
	<path d="M91.239,567.542h1.271v4.178c0.531-0.646,1.19-0.971,1.977-0.971c0.429,0,0.813,0.107,1.153,0.321
		c0.34,0.215,0.593,0.51,0.758,0.888c0.165,0.377,0.248,0.938,0.248,1.684v3.661h-1.271v-3.976c0-0.471-0.116-0.849-0.346-1.136
		c-0.23-0.286-0.534-0.43-0.912-0.43c-0.279,0-0.542,0.072-0.79,0.217s-0.52,0.385-0.817,0.72v4.604h-1.271V567.542z"/>
	<path d="M98.107,576.842v-1.37c0.358,0.252,0.726,0.456,1.101,0.612c0.375,0.155,0.69,0.233,0.947,0.233
		c0.265,0,0.494-0.065,0.685-0.195c0.191-0.131,0.286-0.286,0.286-0.468c0-0.187-0.062-0.342-0.185-0.465
		c-0.124-0.124-0.39-0.302-0.8-0.535c-0.82-0.456-1.357-0.846-1.61-1.17c-0.254-0.323-0.381-0.677-0.381-1.059
		c0-0.493,0.192-0.896,0.576-1.209c0.384-0.312,0.879-0.468,1.485-0.468c0.629,0,1.274,0.177,1.936,0.531v1.258
		c-0.755-0.457-1.372-0.686-1.852-0.686c-0.247,0-0.446,0.053-0.598,0.158c-0.151,0.104-0.227,0.243-0.227,0.416
		c0,0.149,0.069,0.291,0.206,0.427c0.137,0.135,0.378,0.298,0.723,0.489l0.454,0.258c1.072,0.605,1.607,1.276,1.607,2.012
		c0,0.526-0.206,0.958-0.618,1.296s-0.942,0.506-1.589,0.506c-0.382,0-0.722-0.04-1.02-0.122
		C98.934,577.211,98.559,577.061,98.107,576.842z"/>
	<path d="M108.748,575.801v1.258c-0.638,0.237-1.262,0.355-1.873,0.355c-1.006,0-1.809-0.298-2.407-0.894
		c-0.599-0.597-0.898-1.396-0.898-2.396c0-1.011,0.291-1.826,0.874-2.445c0.582-0.62,1.348-0.93,2.298-0.93
		c0.331,0,0.628,0.031,0.891,0.095c0.263,0.062,0.588,0.18,0.975,0.353v1.355c-0.643-0.41-1.239-0.615-1.789-0.615
		c-0.573,0-1.043,0.202-1.412,0.604c-0.368,0.403-0.552,0.917-0.552,1.541c0,0.656,0.199,1.179,0.597,1.564
		c0.398,0.387,0.935,0.58,1.611,0.58C107.553,576.227,108.114,576.085,108.748,575.801z"/>
	<path d="M110.166,567.542h1.271v4.178c0.531-0.646,1.19-0.971,1.977-0.971c0.429,0,0.813,0.107,1.153,0.321
		c0.34,0.215,0.593,0.51,0.758,0.888c0.165,0.377,0.248,0.938,0.248,1.684v3.661h-1.271v-3.976c0-0.471-0.116-0.849-0.346-1.136
		c-0.23-0.286-0.534-0.43-0.912-0.43c-0.279,0-0.542,0.072-0.79,0.217s-0.52,0.385-0.817,0.72v4.604h-1.271V567.542z"/>
	<path d="M121.387,573.439v2.731c0,0.219,0.075,0.328,0.224,0.328c0.154,0,0.394-0.114,0.72-0.342v0.775
		c-0.289,0.187-0.521,0.313-0.695,0.381c-0.174,0.067-0.357,0.101-0.548,0.101c-0.545,0-0.866-0.214-0.964-0.643
		c-0.541,0.42-1.116,0.629-1.726,0.629c-0.447,0-0.82-0.147-1.118-0.443c-0.298-0.296-0.447-0.667-0.447-1.114
		c0-0.405,0.146-0.768,0.437-1.087s0.705-0.571,1.24-0.758l1.628-0.559v-0.343c0-0.773-0.387-1.16-1.16-1.16
		c-0.694,0-1.37,0.359-2.026,1.076v-1.391c0.494-0.582,1.204-0.873,2.131-0.873c0.694,0,1.25,0.182,1.669,0.545
		c0.14,0.116,0.266,0.271,0.377,0.465s0.183,0.387,0.213,0.58S121.387,572.898,121.387,573.439z M120.136,576.031v-1.907
		l-0.853,0.328c-0.433,0.172-0.739,0.346-0.918,0.521c-0.18,0.175-0.269,0.393-0.269,0.653c0,0.266,0.085,0.482,0.255,0.649
		c0.17,0.168,0.39,0.252,0.66,0.252C119.417,576.527,119.792,576.362,120.136,576.031z"/>
	<path d="M123.602,570.875v-0.385c0-1.034,0.22-1.805,0.661-2.312c0.44-0.508,0.967-0.762,1.583-0.762
		c0.265,0,0.58,0.042,0.943,0.126v1.244c-0.205-0.075-0.4-0.112-0.587-0.112c-0.499,0-0.844,0.133-1.038,0.398
		s-0.29,0.738-0.29,1.418v0.385h1.146v1.146h-1.146v5.282h-1.272v-5.282h-0.922v-1.146H123.602z"/>
	<path d="M126.131,571.895l2.39-2.348v1.328h2.033v1.146h-2.033v3.146c0,0.734,0.305,1.102,0.915,1.102
		c0.457,0,0.938-0.151,1.446-0.454v1.188c-0.489,0.275-1.022,0.412-1.6,0.412c-0.582,0-1.066-0.17-1.453-0.51
		c-0.121-0.103-0.221-0.218-0.3-0.346c-0.08-0.128-0.146-0.296-0.199-0.503s-0.081-0.603-0.081-1.185v-2.851h-1.118V571.895z"/>
	<path d="M141.223,572.496h3.277v4.136c-1.202,0.521-2.394,0.782-3.577,0.782c-1.617,0-2.908-0.471-3.875-1.414
		c-0.966-0.943-1.45-2.106-1.45-3.49c0-1.458,0.5-2.671,1.502-3.641c1.001-0.969,2.256-1.453,3.766-1.453
		c0.55,0,1.071,0.06,1.565,0.179c0.494,0.118,1.118,0.336,1.873,0.653v1.425c-1.165-0.675-2.319-1.013-3.465-1.013
		c-1.067,0-1.966,0.363-2.697,1.09c-0.731,0.727-1.097,1.618-1.097,2.676c0,1.108,0.366,2.015,1.097,2.718
		c0.731,0.703,1.672,1.056,2.822,1.056c0.559,0,1.228-0.129,2.005-0.385l0.133-0.042v-2.033h-1.879V572.496z"/>
	<path d="M151.842,574.2h-4.521c0.033,0.615,0.239,1.104,0.619,1.468c0.379,0.363,0.87,0.545,1.471,0.545
		c0.838,0,1.611-0.261,2.319-0.782v1.243c-0.391,0.261-0.779,0.447-1.163,0.559c-0.384,0.112-0.835,0.168-1.352,0.168
		c-0.708,0-1.281-0.146-1.719-0.44c-0.438-0.293-0.789-0.688-1.052-1.184s-0.395-1.07-0.395-1.723c0-0.979,0.277-1.773,0.832-2.386
		c0.554-0.612,1.274-0.919,2.159-0.919c0.853,0,1.533,0.298,2.04,0.895c0.508,0.596,0.762,1.395,0.762,2.396V574.2z M147.35,573.439
		h3.235c-0.033-0.508-0.184-0.899-0.455-1.174c-0.27-0.275-0.633-0.413-1.09-0.413s-0.83,0.138-1.121,0.413
		C147.628,572.54,147.438,572.932,147.35,573.439z"/>
	<path d="M156.293,570.86c0.978,0,1.791,0.316,2.438,0.947s0.971,1.424,0.971,2.379c0,0.927-0.329,1.696-0.985,2.31
		c-0.657,0.612-1.483,0.918-2.48,0.918c-0.964,0-1.77-0.311-2.417-0.933c-0.647-0.621-0.971-1.398-0.971-2.33
		c0-0.94,0.328-1.725,0.982-2.351C154.485,571.174,155.306,570.86,156.293,570.86z M156.224,572.007c-0.61,0-1.111,0.2-1.502,0.601
		c-0.391,0.4-0.587,0.911-0.587,1.53c0,0.615,0.2,1.117,0.601,1.506c0.4,0.389,0.915,0.583,1.544,0.583
		c0.624,0,1.135-0.196,1.534-0.59s0.597-0.898,0.597-1.513c0-0.61-0.207-1.116-0.622-1.517S156.853,572.007,156.224,572.007z"/>
	<path d="M161.289,567.542h1.397v8.489h4.395v1.271h-5.792V567.542z"/>
	<path d="M171.203,570.86c0.978,0,1.791,0.316,2.438,0.947s0.971,1.424,0.971,2.379c0,0.927-0.329,1.696-0.985,2.31
		c-0.657,0.612-1.483,0.918-2.48,0.918c-0.964,0-1.77-0.311-2.417-0.933c-0.647-0.621-0.971-1.398-0.971-2.33
		c0-0.94,0.328-1.725,0.982-2.351C169.395,571.174,170.215,570.86,171.203,570.86z M169.638,567.759
		c0.182,0,0.339,0.065,0.471,0.195c0.133,0.131,0.199,0.289,0.199,0.476c0,0.186-0.062,0.343-0.188,0.472
		c-0.126,0.128-0.279,0.191-0.461,0.191c-0.187,0-0.345-0.066-0.475-0.199c-0.131-0.132-0.196-0.289-0.196-0.471
		c0-0.187,0.064-0.344,0.192-0.472C169.309,567.822,169.461,567.759,169.638,567.759z M171.133,572.007
		c-0.61,0-1.111,0.2-1.502,0.601c-0.391,0.4-0.587,0.911-0.587,1.53c0,0.615,0.2,1.117,0.601,1.506
		c0.4,0.389,0.915,0.583,1.544,0.583c0.624,0,1.135-0.196,1.534-0.59s0.597-0.898,0.597-1.513c0-0.61-0.207-1.116-0.622-1.517
		S171.762,572.007,171.133,572.007z M172.328,567.759c0.182,0,0.339,0.065,0.471,0.195c0.133,0.131,0.199,0.289,0.199,0.476
		c0,0.186-0.063,0.343-0.188,0.472c-0.126,0.128-0.279,0.191-0.461,0.191c-0.187,0-0.345-0.066-0.475-0.199
		c-0.131-0.132-0.196-0.289-0.196-0.471c0-0.187,0.064-0.344,0.192-0.472C171.999,567.822,172.151,567.759,172.328,567.759z"/>
	<path d="M176.024,567.542h1.271v9.761h-1.271V567.542z M180.208,570.875h1.51l-2.743,3.144l3.301,3.284h-1.706l-3.22-3.28
		L180.208,570.875z"/>
	<path d="M193.046,577.303l-1.136-1.332c-0.098,0.098-0.266,0.24-0.503,0.428l-0.014,0.014c-0.331,0.275-0.74,0.512-1.227,0.708
		c-0.487,0.196-0.945,0.294-1.375,0.294c-0.676,0-1.25-0.22-1.72-0.66c-0.471-0.439-0.707-0.977-0.707-1.61
		c0-0.456,0.115-0.868,0.346-1.236c0.23-0.368,0.606-0.743,1.128-1.125l0.021-0.021c0.308-0.229,0.573-0.403,0.797-0.524
		c-0.736-0.787-1.104-1.542-1.104-2.264c0-0.666,0.226-1.206,0.678-1.621c0.452-0.415,1.039-0.622,1.761-0.622
		c0.708,0,1.29,0.203,1.747,0.609c0.457,0.405,0.685,0.923,0.685,1.553c0,0.854-0.57,1.684-1.711,2.49l-0.098,0.077l1.375,1.567
		c0.401-0.438,0.75-0.963,1.049-1.573h1.397c-0.336,0.867-0.866,1.721-1.589,2.56l1.98,2.289H193.046z M190.732,575.282l0.314-0.286
		l-1.586-1.831l-0.615,0.434c-0.727,0.489-1.09,0.985-1.09,1.489c0,0.274,0.119,0.51,0.356,0.705
		c0.237,0.196,0.524,0.294,0.86,0.294c0.261,0,0.556-0.074,0.884-0.224C190.184,575.714,190.476,575.521,190.732,575.282z
		 M189.822,571.518l0.535-0.378c0.497-0.351,0.745-0.757,0.745-1.22c0-0.284-0.104-0.522-0.311-0.714
		c-0.208-0.191-0.469-0.288-0.786-0.288c-0.307,0-0.561,0.089-0.761,0.267c-0.201,0.177-0.301,0.398-0.301,0.665
		c0,0.256,0.079,0.535,0.236,0.836C189.335,570.986,189.55,571.264,189.822,571.518z"/>
	<path d="M199.961,567.542h5.205v1.244h-3.808v2.725h3.808v1.243h-3.808v4.549h-1.397V567.542z"/>
	<path d="M210.525,573.439v2.731c0,0.219,0.075,0.328,0.224,0.328c0.154,0,0.394-0.114,0.72-0.342v0.775
		c-0.289,0.187-0.521,0.313-0.696,0.381c-0.174,0.067-0.357,0.101-0.548,0.101c-0.545,0-0.866-0.214-0.964-0.643
		c-0.541,0.42-1.116,0.629-1.726,0.629c-0.447,0-0.82-0.147-1.118-0.443c-0.298-0.296-0.447-0.667-0.447-1.114
		c0-0.405,0.146-0.768,0.437-1.087s0.705-0.571,1.24-0.758l1.628-0.559v-0.343c0-0.773-0.387-1.16-1.16-1.16
		c-0.694,0-1.37,0.359-2.026,1.076v-1.391c0.494-0.582,1.204-0.873,2.131-0.873c0.694,0,1.25,0.182,1.669,0.545
		c0.14,0.116,0.266,0.271,0.377,0.465s0.183,0.387,0.213,0.58S210.525,572.898,210.525,573.439z M209.274,576.031v-1.907
		l-0.853,0.328c-0.433,0.172-0.739,0.346-0.918,0.521c-0.18,0.175-0.269,0.393-0.269,0.653c0,0.266,0.085,0.482,0.255,0.649
		c0.17,0.168,0.39,0.252,0.66,0.252C208.555,576.527,208.93,576.362,209.274,576.031z"/>
	<path d="M217.414,575.801v1.258c-0.639,0.237-1.262,0.355-1.873,0.355c-1.006,0-1.809-0.298-2.406-0.894
		c-0.599-0.597-0.898-1.396-0.898-2.396c0-1.011,0.291-1.826,0.874-2.445c0.582-0.62,1.349-0.93,2.298-0.93
		c0.332,0,0.629,0.031,0.892,0.095c0.263,0.062,0.588,0.18,0.975,0.353v1.355c-0.644-0.41-1.239-0.615-1.788-0.615
		c-0.574,0-1.044,0.202-1.412,0.604c-0.367,0.403-0.552,0.917-0.552,1.541c0,0.656,0.199,1.179,0.597,1.564
		c0.398,0.387,0.936,0.58,1.611,0.58C216.219,576.227,216.781,576.085,217.414,575.801z"/>
	<path d="M218.832,567.542h1.271v4.178c0.531-0.646,1.19-0.971,1.978-0.971c0.429,0,0.813,0.107,1.153,0.321
		c0.34,0.215,0.592,0.51,0.758,0.888c0.165,0.377,0.248,0.938,0.248,1.684v3.661h-1.271v-3.976c0-0.471-0.115-0.849-0.346-1.136
		c-0.23-0.286-0.535-0.43-0.912-0.43c-0.279,0-0.543,0.072-0.789,0.217c-0.248,0.145-0.52,0.385-0.818,0.72v4.604h-1.271V567.542z"
		/>
	<path d="M225.7,576.842v-1.37c0.358,0.252,0.726,0.456,1.101,0.612c0.375,0.155,0.69,0.233,0.947,0.233
		c0.265,0,0.493-0.065,0.684-0.195c0.191-0.131,0.287-0.286,0.287-0.468c0-0.187-0.062-0.342-0.186-0.465
		c-0.123-0.124-0.391-0.302-0.8-0.535c-0.819-0.456-1.356-0.846-1.61-1.17c-0.254-0.323-0.381-0.677-0.381-1.059
		c0-0.493,0.191-0.896,0.576-1.209c0.385-0.312,0.879-0.468,1.484-0.468c0.629,0,1.274,0.177,1.936,0.531v1.258
		c-0.754-0.457-1.371-0.686-1.852-0.686c-0.246,0-0.445,0.053-0.598,0.158c-0.15,0.104-0.227,0.243-0.227,0.416
		c0,0.149,0.068,0.291,0.205,0.427c0.138,0.135,0.379,0.298,0.724,0.489l0.454,0.258c1.072,0.605,1.607,1.276,1.607,2.012
		c0,0.526-0.206,0.958-0.618,1.296s-0.942,0.506-1.589,0.506c-0.383,0-0.723-0.04-1.021-0.122
		C226.527,577.211,226.152,577.061,225.7,576.842z"/>
	<path d="M236.342,575.801v1.258c-0.639,0.237-1.263,0.355-1.873,0.355c-1.006,0-1.809-0.298-2.406-0.894
		c-0.6-0.597-0.898-1.396-0.898-2.396c0-1.011,0.291-1.826,0.873-2.445c0.582-0.62,1.349-0.93,2.299-0.93
		c0.331,0,0.628,0.031,0.891,0.095c0.264,0.062,0.588,0.18,0.975,0.353v1.355c-0.643-0.41-1.238-0.615-1.788-0.615
		c-0.573,0-1.044,0.202-1.411,0.604c-0.368,0.403-0.553,0.917-0.553,1.541c0,0.656,0.199,1.179,0.598,1.564
		c0.398,0.387,0.936,0.58,1.611,0.58C235.146,576.227,235.708,576.085,236.342,575.801z"/>
	<path d="M237.76,567.542h1.271v4.178c0.531-0.646,1.189-0.971,1.977-0.971c0.43,0,0.813,0.107,1.153,0.321
		c0.341,0.215,0.593,0.51,0.759,0.888c0.164,0.377,0.248,0.938,0.248,1.684v3.661h-1.271v-3.976c0-0.471-0.116-0.849-0.347-1.136
		c-0.23-0.286-0.534-0.43-0.911-0.43c-0.279,0-0.543,0.072-0.79,0.217s-0.52,0.385-0.817,0.72v4.604h-1.271V567.542z"/>
	<path d="M248.98,573.439v2.731c0,0.219,0.074,0.328,0.224,0.328c0.153,0,0.394-0.114,0.72-0.342v0.775
		c-0.289,0.187-0.521,0.313-0.695,0.381c-0.174,0.067-0.357,0.101-0.549,0.101c-0.545,0-0.865-0.214-0.963-0.643
		c-0.541,0.42-1.116,0.629-1.727,0.629c-0.447,0-0.82-0.147-1.117-0.443c-0.299-0.296-0.447-0.667-0.447-1.114
		c0-0.405,0.145-0.768,0.436-1.087s0.705-0.571,1.24-0.758l1.629-0.559v-0.343c0-0.773-0.387-1.16-1.16-1.16
		c-0.694,0-1.369,0.359-2.026,1.076v-1.391c0.493-0.582,1.204-0.873,2.132-0.873c0.693,0,1.25,0.182,1.669,0.545
		c0.14,0.116,0.266,0.271,0.378,0.465c0.111,0.193,0.182,0.387,0.213,0.58C248.965,572.532,248.98,572.898,248.98,573.439z
		 M247.73,576.031v-1.907l-0.854,0.328c-0.433,0.172-0.738,0.346-0.918,0.521s-0.27,0.393-0.27,0.653
		c0,0.266,0.086,0.482,0.256,0.649c0.17,0.168,0.39,0.252,0.66,0.252C247.01,576.527,247.385,576.362,247.73,576.031z"/>
	<path d="M251.195,570.875v-0.385c0-1.034,0.221-1.805,0.66-2.312c0.44-0.508,0.968-0.762,1.583-0.762
		c0.265,0,0.579,0.042,0.942,0.126v1.244c-0.205-0.075-0.4-0.112-0.586-0.112c-0.499,0-0.845,0.133-1.038,0.398
		s-0.29,0.738-0.29,1.418v0.385h1.146v1.146h-1.146v5.282h-1.271v-5.282h-0.922v-1.146H251.195z"/>
	<path d="M253.725,571.895l2.39-2.348v1.328h2.033v1.146h-2.033v3.146c0,0.734,0.305,1.102,0.915,1.102
		c0.457,0,0.938-0.151,1.446-0.454v1.188c-0.489,0.275-1.022,0.412-1.601,0.412c-0.582,0-1.066-0.17-1.453-0.51
		c-0.121-0.103-0.221-0.218-0.3-0.346s-0.146-0.296-0.199-0.503s-0.081-0.603-0.081-1.185v-2.851h-1.117V571.895z"/>
	<path d="M268.816,572.496h3.277v4.136c-1.203,0.521-2.395,0.782-3.578,0.782c-1.615,0-2.908-0.471-3.873-1.414
		c-0.967-0.943-1.451-2.106-1.451-3.49c0-1.458,0.502-2.671,1.502-3.641c1.002-0.969,2.258-1.453,3.768-1.453
		c0.549,0,1.07,0.06,1.564,0.179c0.494,0.118,1.117,0.336,1.873,0.653v1.425c-1.166-0.675-2.32-1.013-3.467-1.013
		c-1.066,0-1.965,0.363-2.697,1.09c-0.73,0.727-1.096,1.618-1.096,2.676c0,1.108,0.365,2.015,1.096,2.718
		c0.732,0.703,1.674,1.056,2.824,1.056c0.559,0,1.227-0.129,2.004-0.385l0.133-0.042v-2.033h-1.879V572.496z"/>
	<path d="M279.436,574.2h-4.52c0.031,0.615,0.238,1.104,0.617,1.468c0.381,0.363,0.871,0.545,1.471,0.545
		c0.84,0,1.613-0.261,2.32-0.782v1.243c-0.391,0.261-0.779,0.447-1.164,0.559c-0.383,0.112-0.834,0.168-1.352,0.168
		c-0.707,0-1.281-0.146-1.719-0.44c-0.438-0.293-0.787-0.688-1.051-1.184s-0.395-1.07-0.395-1.723c0-0.979,0.277-1.773,0.83-2.386
		c0.555-0.612,1.275-0.919,2.16-0.919c0.852,0,1.531,0.298,2.039,0.895c0.508,0.596,0.762,1.395,0.762,2.396V574.2z
		 M274.943,573.439h3.234c-0.031-0.508-0.184-0.899-0.453-1.174c-0.27-0.275-0.633-0.413-1.09-0.413s-0.83,0.138-1.121,0.413
		C275.223,572.54,275.031,572.932,274.943,573.439z"/>
	<path d="M283.887,570.86c0.979,0,1.791,0.316,2.439,0.947c0.646,0.631,0.971,1.424,0.971,2.379c0,0.927-0.328,1.696-0.984,2.31
		c-0.658,0.612-1.484,0.918-2.48,0.918c-0.965,0-1.771-0.311-2.418-0.933c-0.648-0.621-0.971-1.398-0.971-2.33
		c0-0.94,0.326-1.725,0.98-2.351C282.078,571.174,282.9,570.86,283.887,570.86z M283.816,572.007c-0.609,0-1.109,0.2-1.502,0.601
		c-0.391,0.4-0.586,0.911-0.586,1.53c0,0.615,0.199,1.117,0.6,1.506c0.402,0.389,0.916,0.583,1.545,0.583
		c0.625,0,1.135-0.196,1.533-0.59s0.598-0.898,0.598-1.513c0-0.61-0.207-1.116-0.621-1.517
		C284.967,572.207,284.445,572.007,283.816,572.007z"/>
	<path d="M289.363,568.171c0.211,0,0.391,0.072,0.539,0.217s0.223,0.321,0.223,0.53c0,0.205-0.074,0.383-0.223,0.531
		c-0.148,0.149-0.328,0.224-0.539,0.224c-0.195,0-0.367-0.075-0.516-0.227c-0.15-0.151-0.225-0.327-0.225-0.528
		c0-0.195,0.074-0.368,0.225-0.521C288.996,568.247,289.168,568.171,289.363,568.171z M288.736,570.875h1.271v6.428h-1.271V570.875z
		"/>
	<path d="M293.117,570.875v0.817c0.568-0.629,1.213-0.943,1.936-0.943c0.4,0,0.773,0.104,1.117,0.311
		c0.346,0.208,0.607,0.492,0.785,0.853c0.18,0.361,0.27,0.933,0.27,1.716v3.675h-1.271v-3.661c0-0.657-0.1-1.126-0.301-1.408
		c-0.199-0.281-0.535-0.423-1.006-0.423c-0.6,0-1.111,0.301-1.529,0.901v4.591h-1.301v-6.428H293.117z"/>
	<path d="M299.146,570.875v-0.385c0-1.034,0.221-1.805,0.66-2.312s0.967-0.762,1.582-0.762c0.266,0,0.58,0.042,0.943,0.126v1.244
		c-0.205-0.075-0.4-0.112-0.586-0.112c-0.5,0-0.846,0.133-1.039,0.398s-0.289,0.738-0.289,1.418v0.385h1.146v1.146h-1.146v5.282
		h-1.271v-5.282h-0.922v-1.146H299.146z"/>
	<path d="M305.512,570.86c0.979,0,1.791,0.316,2.438,0.947c0.648,0.631,0.971,1.424,0.971,2.379c0,0.927-0.328,1.696-0.984,2.31
		c-0.656,0.612-1.484,0.918-2.48,0.918c-0.965,0-1.77-0.311-2.418-0.933c-0.646-0.621-0.971-1.398-0.971-2.33
		c0-0.94,0.328-1.725,0.982-2.351C303.703,571.174,304.523,570.86,305.512,570.86z M305.441,572.007c-0.611,0-1.111,0.2-1.502,0.601
		s-0.588,0.911-0.588,1.53c0,0.615,0.201,1.117,0.602,1.506s0.916,0.583,1.545,0.583c0.623,0,1.135-0.196,1.533-0.59
		s0.598-0.898,0.598-1.513c0-0.61-0.209-1.116-0.623-1.517S306.07,572.007,305.441,572.007z"/>
	<path d="M311.693,570.875v1.474l0.07-0.111c0.615-0.992,1.23-1.488,1.844-1.488c0.48,0,0.98,0.242,1.504,0.727l-0.672,1.118
		c-0.441-0.419-0.852-0.629-1.229-0.629c-0.41,0-0.766,0.195-1.066,0.587s-0.451,0.854-0.451,1.391v3.36h-1.277v-6.428H311.693z"/>
	<path d="M321.266,572.636v4.667h-1.277v-3.577c0-0.713-0.096-1.21-0.287-1.492c-0.191-0.281-0.523-0.423-0.998-0.423
		c-0.266,0-0.51,0.062-0.73,0.183c-0.223,0.121-0.475,0.335-0.758,0.643v4.667h-1.271v-6.428h1.271v0.845
		c0.646-0.646,1.279-0.971,1.9-0.971c0.814,0,1.445,0.387,1.893,1.16c0.68-0.783,1.391-1.174,2.131-1.174
		c0.625,0,1.139,0.228,1.541,0.685c0.402,0.456,0.604,1.152,0.604,2.089v3.794h-1.271v-3.808c0-0.536-0.109-0.945-0.328-1.229
		s-0.533-0.427-0.943-0.427C322.215,571.839,321.723,572.104,321.266,572.636z"/>
	<path d="M331.068,573.439v2.731c0,0.219,0.074,0.328,0.225,0.328c0.154,0,0.393-0.114,0.719-0.342v0.775
		c-0.289,0.187-0.52,0.313-0.695,0.381c-0.174,0.067-0.357,0.101-0.547,0.101c-0.545,0-0.867-0.214-0.965-0.643
		c-0.541,0.42-1.115,0.629-1.727,0.629c-0.447,0-0.818-0.147-1.117-0.443s-0.447-0.667-0.447-1.114c0-0.405,0.146-0.768,0.438-1.087
		s0.703-0.571,1.24-0.758l1.627-0.559v-0.343c0-0.773-0.387-1.16-1.16-1.16c-0.693,0-1.369,0.359-2.025,1.076v-1.391
		c0.494-0.582,1.203-0.873,2.131-0.873c0.693,0,1.25,0.182,1.67,0.545c0.139,0.116,0.266,0.271,0.377,0.465s0.184,0.387,0.213,0.58
		C331.055,572.532,331.068,572.898,331.068,573.439z M329.818,576.031v-1.907l-0.852,0.328c-0.434,0.172-0.74,0.346-0.92,0.521
		s-0.27,0.393-0.27,0.653c0,0.266,0.086,0.482,0.256,0.649c0.17,0.168,0.391,0.252,0.66,0.252
		C329.1,576.527,329.475,576.362,329.818,576.031z"/>
	<path d="M332.236,571.895l2.389-2.348v1.328h2.033v1.146h-2.033v3.146c0,0.734,0.305,1.102,0.916,1.102
		c0.455,0,0.938-0.151,1.445-0.454v1.188c-0.488,0.275-1.021,0.412-1.6,0.412c-0.582,0-1.066-0.17-1.453-0.51
		c-0.121-0.103-0.221-0.218-0.301-0.346c-0.078-0.128-0.145-0.296-0.199-0.503c-0.053-0.207-0.08-0.603-0.08-1.185v-2.851h-1.117
		V571.895z"/>
	<path d="M338.559,568.171c0.209,0,0.389,0.072,0.537,0.217c0.15,0.145,0.225,0.321,0.225,0.53c0,0.205-0.074,0.383-0.225,0.531
		c-0.148,0.149-0.328,0.224-0.537,0.224c-0.195,0-0.367-0.075-0.518-0.227c-0.148-0.151-0.223-0.327-0.223-0.528
		c0-0.195,0.074-0.368,0.223-0.521C338.191,568.247,338.363,568.171,338.559,568.171z M337.93,570.875h1.271v6.428h-1.271V570.875z"
		/>
	<path d="M341.039,567.542h1.271v9.761h-1.271V567.542z M345.225,570.875h1.51l-2.744,3.144l3.303,3.284h-1.707l-3.219-3.28
		L345.225,570.875z"/>
</g>
<g>
	<path d="M172.236,468.436c0-0.822,0.3-1.472,0.901-1.95c0.601-0.478,1.421-0.717,2.461-0.717h3.177v1.19h-1.559
		c0.302,0.308,0.511,0.587,0.628,0.839c0.118,0.252,0.176,0.539,0.176,0.863c0,0.402-0.115,0.798-0.344,1.187
		c-0.229,0.389-0.524,0.687-0.885,0.894c-0.36,0.206-0.952,0.371-1.773,0.494c-0.576,0.084-0.864,0.282-0.864,0.596
		c0,0.179,0.107,0.325,0.323,0.439c0.215,0.115,0.605,0.233,1.17,0.356c0.944,0.207,1.552,0.369,1.823,0.486
		s0.516,0.285,0.734,0.503c0.369,0.369,0.553,0.833,0.553,1.393c0,0.731-0.326,1.315-0.977,1.752
		c-0.651,0.436-1.522,0.654-2.612,0.654c-1.101,0-1.98-0.22-2.637-0.658c-0.657-0.439-0.985-1.027-0.985-1.766
		c0-1.045,0.646-1.719,1.937-2.021c-0.514-0.329-0.771-0.656-0.771-0.98c0-0.246,0.11-0.47,0.331-0.671s0.519-0.35,0.893-0.444
		C172.804,470.372,172.236,469.559,172.236,468.436z M174.743,473.843c-0.514,0-0.935,0.109-1.262,0.327s-0.491,0.497-0.491,0.839
		c0,0.793,0.716,1.19,2.146,1.19c0.676,0,1.2-0.1,1.572-0.298c0.372-0.198,0.558-0.479,0.558-0.843c0-0.357-0.235-0.649-0.705-0.876
		C176.093,473.956,175.486,473.843,174.743,473.843z M175.104,467.094c-0.414,0-0.766,0.14-1.056,0.419s-0.436,0.615-0.436,1.006
		c0,0.397,0.143,0.726,0.428,0.985s0.646,0.39,1.082,0.39c0.43,0,0.79-0.132,1.077-0.397c0.288-0.266,0.432-0.597,0.432-0.994
		c0-0.402-0.146-0.737-0.436-1.006C175.903,467.228,175.54,467.094,175.104,467.094z"/>
	<path d="M186.531,469.76h-5.425c0.039,0.738,0.287,1.325,0.742,1.761s1.044,0.654,1.765,0.654c1.006,0,1.934-0.313,2.783-0.939
		v1.492c-0.469,0.313-0.935,0.537-1.396,0.671c-0.461,0.135-1.002,0.201-1.622,0.201c-0.85,0-1.537-0.176-2.062-0.528
		c-0.525-0.352-0.946-0.825-1.262-1.421c-0.316-0.596-0.474-1.284-0.474-2.066c0-1.174,0.333-2.129,0.998-2.863
		c0.665-0.735,1.528-1.103,2.59-1.103c1.023,0,1.839,0.357,2.448,1.073c0.609,0.715,0.914,1.674,0.914,2.876V469.76z
		 M181.14,468.846h3.882c-0.039-0.609-0.221-1.078-0.545-1.408s-0.76-0.495-1.308-0.495s-0.996,0.165-1.345,0.495
		C181.474,467.768,181.246,468.236,181.14,468.846z"/>
	<path d="M191.872,465.752c1.174,0,2.149,0.379,2.926,1.136c0.777,0.758,1.166,1.71,1.166,2.855c0,1.112-0.394,2.036-1.182,2.771
		c-0.789,0.735-1.781,1.103-2.977,1.103c-1.157,0-2.124-0.373-2.901-1.119c-0.777-0.746-1.166-1.678-1.166-2.796
		c0-1.129,0.393-2.069,1.178-2.821C189.702,466.128,190.687,465.752,191.872,465.752z M191.789,467.127
		c-0.732,0-1.333,0.24-1.803,0.722c-0.47,0.48-0.705,1.093-0.705,1.836c0,0.737,0.24,1.34,0.721,1.807
		c0.48,0.467,1.098,0.7,1.853,0.7c0.749,0,1.362-0.236,1.84-0.709c0.478-0.472,0.717-1.077,0.717-1.814
		c0-0.732-0.249-1.339-0.746-1.819C193.169,467.367,192.543,467.127,191.789,467.127z"/>
	<path d="M197.263,468.436c0-0.822,0.3-1.472,0.901-1.95c0.601-0.478,1.421-0.717,2.461-0.717h3.177v1.19h-1.559
		c0.302,0.308,0.511,0.587,0.628,0.839c0.118,0.252,0.176,0.539,0.176,0.863c0,0.402-0.115,0.798-0.344,1.187
		c-0.229,0.389-0.524,0.687-0.885,0.894c-0.36,0.206-0.952,0.371-1.773,0.494c-0.576,0.084-0.864,0.282-0.864,0.596
		c0,0.179,0.107,0.325,0.323,0.439c0.215,0.115,0.605,0.233,1.17,0.356c0.944,0.207,1.552,0.369,1.823,0.486
		s0.516,0.285,0.734,0.503c0.369,0.369,0.553,0.833,0.553,1.393c0,0.731-0.326,1.315-0.977,1.752
		c-0.651,0.436-1.522,0.654-2.612,0.654c-1.101,0-1.98-0.22-2.637-0.658c-0.657-0.439-0.985-1.027-0.985-1.766
		c0-1.045,0.646-1.719,1.937-2.021c-0.514-0.329-0.771-0.656-0.771-0.98c0-0.246,0.11-0.47,0.331-0.671s0.519-0.35,0.893-0.444
		C197.831,470.372,197.263,469.559,197.263,468.436z M199.77,473.843c-0.514,0-0.935,0.109-1.262,0.327s-0.491,0.497-0.491,0.839
		c0,0.793,0.716,1.19,2.146,1.19c0.676,0,1.2-0.1,1.572-0.298c0.372-0.198,0.558-0.479,0.558-0.843c0-0.357-0.235-0.649-0.705-0.876
		C201.12,473.956,200.513,473.843,199.77,473.843z M200.13,467.094c-0.414,0-0.766,0.14-1.056,0.419s-0.436,0.615-0.436,1.006
		c0,0.397,0.143,0.726,0.428,0.985s0.646,0.39,1.082,0.39c0.43,0,0.79-0.132,1.077-0.397c0.288-0.266,0.432-0.597,0.432-0.994
		c0-0.402-0.146-0.737-0.436-1.006C200.93,467.228,200.566,467.094,200.13,467.094z"/>
	<path d="M206.62,465.769v1.77l0.084-0.134c0.738-1.191,1.476-1.786,2.213-1.786c0.576,0,1.177,0.29,1.803,0.872l-0.805,1.341
		c-0.531-0.503-1.023-0.754-1.476-0.754c-0.492,0-0.918,0.234-1.278,0.704s-0.541,1.025-0.541,1.668v4.033h-1.534v-7.714H206.62z"/>
	<path d="M216.631,468.846v3.278c0,0.263,0.089,0.395,0.269,0.395c0.185,0,0.472-0.138,0.863-0.411v0.931
		c-0.347,0.224-0.625,0.376-0.834,0.457c-0.21,0.081-0.43,0.121-0.658,0.121c-0.654,0-1.04-0.257-1.157-0.771
		c-0.648,0.503-1.339,0.754-2.071,0.754c-0.536,0-0.983-0.177-1.341-0.532c-0.357-0.354-0.537-0.801-0.537-1.337
		c0-0.486,0.175-0.921,0.524-1.304c0.349-0.383,0.845-0.687,1.488-0.91l1.953-0.671v-0.41c0-0.929-0.464-1.393-1.392-1.393
		c-0.833,0-1.644,0.431-2.432,1.291v-1.668c0.593-0.698,1.445-1.048,2.558-1.048c0.832,0,1.5,0.218,2.004,0.653
		c0.167,0.141,0.318,0.326,0.452,0.558c0.135,0.232,0.22,0.465,0.256,0.696C216.612,467.758,216.631,468.197,216.631,468.846z
		 M215.13,471.956v-2.288l-1.022,0.394c-0.521,0.207-0.888,0.415-1.103,0.625c-0.216,0.209-0.323,0.471-0.323,0.783
		c0,0.319,0.103,0.579,0.307,0.78c0.203,0.201,0.468,0.302,0.792,0.302C214.267,472.552,214.716,472.354,215.13,471.956z"/>
	<path d="M218.844,477.415v-11.646h2.672c1.368,0,2.433,0.342,3.194,1.023c0.763,0.682,1.144,1.635,1.144,2.858
		c0,1.157-0.358,2.107-1.076,2.851c-0.717,0.744-1.631,1.115-2.741,1.115c-0.491,0-1.035-0.108-1.633-0.326v4.125H218.844z
		 M221.482,467.194h-1.079v4.745c0.469,0.24,0.96,0.36,1.473,0.36c0.714,0,1.298-0.248,1.753-0.746
		c0.454-0.497,0.682-1.137,0.682-1.92c0-0.503-0.107-0.947-0.322-1.333s-0.507-0.666-0.878-0.843
		C222.739,467.282,222.197,467.194,221.482,467.194z"/>
	<path d="M227.496,461.77h1.526v5.014c0.637-0.776,1.428-1.165,2.372-1.165c0.515,0,0.976,0.129,1.384,0.386s0.711,0.611,0.91,1.064
		c0.198,0.453,0.297,1.126,0.297,2.021v4.394h-1.525v-4.771c0-0.564-0.139-1.019-0.415-1.362c-0.277-0.344-0.642-0.516-1.095-0.516
		c-0.335,0-0.65,0.086-0.947,0.26c-0.296,0.173-0.623,0.461-0.98,0.863v5.525h-1.526V461.77z"/>
	<path d="M236.904,462.524c0.251,0,0.466,0.087,0.646,0.26c0.179,0.173,0.268,0.386,0.268,0.637c0,0.246-0.089,0.459-0.268,0.638
		c-0.18,0.179-0.395,0.269-0.646,0.269c-0.235,0-0.442-0.091-0.621-0.272s-0.269-0.393-0.269-0.634c0-0.234,0.09-0.442,0.269-0.624
		S236.669,462.524,236.904,462.524z M236.149,465.769h1.525v7.714h-1.525V465.769z"/>
	<path d="M246.453,469.76h-5.424c0.039,0.738,0.286,1.325,0.742,1.761c0.455,0.436,1.043,0.654,1.765,0.654
		c1.006,0,1.934-0.313,2.783-0.939v1.492c-0.47,0.313-0.935,0.537-1.396,0.671c-0.462,0.135-1.002,0.201-1.623,0.201
		c-0.85,0-1.537-0.176-2.062-0.528c-0.525-0.352-0.945-0.825-1.262-1.421c-0.315-0.596-0.474-1.284-0.474-2.066
		c0-1.174,0.333-2.129,0.998-2.863c0.665-0.735,1.528-1.103,2.591-1.103c1.022,0,1.839,0.357,2.448,1.073
		c0.608,0.715,0.913,1.674,0.913,2.876V469.76z M241.062,468.846h3.882c-0.039-0.609-0.221-1.078-0.545-1.408
		s-0.76-0.495-1.308-0.495s-0.997,0.165-1.346,0.495C241.396,467.768,241.169,468.236,241.062,468.846z"/>
	<path d="M143.248,482.375h1.526v11.713h-1.526V482.375z"/>
	<path d="M151.825,489.451v3.278c0,0.263,0.089,0.395,0.268,0.395c0.185,0,0.472-0.138,0.864-0.411v0.931
		c-0.347,0.224-0.625,0.376-0.834,0.457c-0.209,0.081-0.429,0.121-0.658,0.121c-0.654,0-1.04-0.257-1.157-0.771
		c-0.648,0.503-1.339,0.754-2.071,0.754c-0.537,0-0.984-0.177-1.342-0.532c-0.357-0.354-0.537-0.801-0.537-1.337
		c0-0.486,0.175-0.921,0.524-1.304c0.349-0.383,0.845-0.687,1.488-0.91l1.954-0.671v-0.41c0-0.929-0.464-1.393-1.392-1.393
		c-0.833,0-1.644,0.431-2.432,1.291v-1.668c0.593-0.698,1.445-1.048,2.557-1.048c0.833,0,1.501,0.218,2.004,0.653
		c0.168,0.141,0.319,0.326,0.453,0.558c0.134,0.232,0.22,0.465,0.256,0.696C151.807,488.363,151.825,488.803,151.825,489.451z
		 M150.324,492.562v-2.288l-1.023,0.394c-0.52,0.207-0.887,0.415-1.103,0.625c-0.215,0.209-0.323,0.471-0.323,0.783
		c0,0.319,0.102,0.579,0.306,0.78s0.468,0.302,0.792,0.302C149.461,493.157,149.911,492.959,150.324,492.562z"/>
	<path d="M155.833,486.374v0.981c0.682-0.755,1.456-1.132,2.322-1.132c0.481,0,0.928,0.124,1.342,0.373s0.728,0.59,0.943,1.022
		c0.215,0.434,0.323,1.119,0.323,2.059v4.41h-1.526v-4.394c0-0.788-0.121-1.351-0.361-1.689c-0.24-0.338-0.643-0.507-1.207-0.507
		c-0.721,0-1.333,0.36-1.836,1.081v5.509h-1.56v-7.714H155.833z"/>
	<path d="M168.04,482.375h1.534v11.713h-3.261c-1.14,0-2.05-0.36-2.729-1.082c-0.679-0.721-1.019-1.688-1.019-2.9
		c0-1.135,0.356-2.068,1.069-2.801c0.712-0.731,1.622-1.098,2.729-1.098c0.514,0,1.073,0.108,1.677,0.326V482.375z M168.04,492.78
		v-4.889c-0.475-0.24-0.956-0.36-1.442-0.36c-0.76,0-1.366,0.249-1.815,0.746c-0.45,0.498-0.675,1.169-0.675,2.013
		c0,0.794,0.195,1.405,0.587,1.836c0.235,0.257,0.483,0.431,0.746,0.52c0.263,0.09,0.735,0.135,1.417,0.135H168.04z"/>
	<path d="M171.268,493.534v-1.643c0.431,0.302,0.871,0.546,1.321,0.733c0.45,0.188,0.829,0.28,1.136,0.28
		c0.319,0,0.593-0.078,0.822-0.234s0.344-0.344,0.344-0.562c0-0.224-0.074-0.409-0.222-0.558s-0.468-0.362-0.96-0.642
		c-0.984-0.548-1.628-1.016-1.933-1.404s-0.457-0.812-0.457-1.271c0-0.592,0.231-1.075,0.692-1.45
		c0.461-0.374,1.055-0.562,1.782-0.562c0.754,0,1.529,0.212,2.322,0.637v1.51c-0.905-0.548-1.646-0.822-2.222-0.822
		c-0.296,0-0.535,0.063-0.717,0.189s-0.272,0.292-0.272,0.499c0,0.18,0.082,0.35,0.247,0.513c0.165,0.162,0.454,0.357,0.868,0.586
		l0.545,0.311c1.286,0.727,1.929,1.531,1.929,2.414c0,0.632-0.248,1.149-0.742,1.555s-1.13,0.607-1.907,0.607
		c-0.458,0-0.867-0.049-1.224-0.146C172.26,493.978,171.81,493.797,171.268,493.534z"/>
	<path d="M184.037,492.285v1.51c-0.766,0.284-1.515,0.427-2.247,0.427c-1.207,0-2.17-0.357-2.888-1.073
		c-0.718-0.715-1.078-1.674-1.078-2.875c0-1.213,0.35-2.191,1.048-2.935c0.698-0.743,1.618-1.115,2.758-1.115
		c0.397,0,0.753,0.037,1.069,0.113c0.316,0.075,0.706,0.217,1.17,0.423v1.627c-0.771-0.492-1.487-0.738-2.146-0.738
		c-0.688,0-1.252,0.242-1.694,0.726s-0.662,1.1-0.662,1.849c0,0.788,0.239,1.414,0.717,1.878s1.122,0.696,1.933,0.696
		C182.604,492.797,183.277,492.626,184.037,492.285z"/>
	<path d="M185.739,482.375h1.526v5.014c0.637-0.776,1.428-1.165,2.373-1.165c0.514,0,0.975,0.129,1.383,0.386
		c0.408,0.257,0.711,0.611,0.91,1.064s0.298,1.126,0.298,2.021v4.394h-1.526v-4.771c0-0.564-0.139-1.019-0.415-1.362
		c-0.277-0.344-0.642-0.516-1.094-0.516c-0.335,0-0.651,0.086-0.948,0.26c-0.296,0.173-0.623,0.461-0.981,0.863v5.525h-1.526
		V482.375z"/>
	<path d="M199.204,489.451v3.278c0,0.263,0.089,0.395,0.268,0.395c0.185,0,0.472-0.138,0.864-0.411v0.931
		c-0.347,0.224-0.625,0.376-0.834,0.457c-0.209,0.081-0.429,0.121-0.658,0.121c-0.654,0-1.04-0.257-1.157-0.771
		c-0.648,0.503-1.339,0.754-2.071,0.754c-0.537,0-0.984-0.177-1.342-0.532c-0.357-0.354-0.537-0.801-0.537-1.337
		c0-0.486,0.175-0.921,0.524-1.304c0.349-0.383,0.845-0.687,1.488-0.91l1.954-0.671v-0.41c0-0.929-0.464-1.393-1.392-1.393
		c-0.833,0-1.644,0.431-2.432,1.291v-1.668c0.593-0.698,1.445-1.048,2.557-1.048c0.833,0,1.501,0.218,2.004,0.653
		c0.168,0.141,0.319,0.326,0.453,0.558c0.134,0.232,0.22,0.465,0.256,0.696C199.186,488.363,199.204,488.803,199.204,489.451z
		 M197.703,492.562v-2.288l-1.023,0.394c-0.52,0.207-0.887,0.415-1.103,0.625c-0.215,0.209-0.323,0.471-0.323,0.783
		c0,0.319,0.102,0.579,0.306,0.78s0.468,0.302,0.792,0.302C196.84,493.157,197.29,492.959,197.703,492.562z"/>
	<path d="M201.862,486.374v-0.461c0-1.241,0.264-2.166,0.792-2.775c0.528-0.608,1.161-0.914,1.899-0.914
		c0.319,0,0.696,0.051,1.132,0.151v1.492c-0.246-0.089-0.481-0.134-0.705-0.134c-0.598,0-1.013,0.159-1.245,0.478
		c-0.232,0.319-0.348,0.887-0.348,1.702v0.461h1.375v1.375h-1.375v6.339h-1.526v-6.339h-1.107v-1.375H201.862z"/>
	<path d="M204.897,487.599l2.867-2.817v1.593h2.44v1.375h-2.44v3.775c0,0.882,0.366,1.322,1.099,1.322
		c0.548,0,1.126-0.182,1.735-0.545v1.426c-0.587,0.33-1.227,0.494-1.92,0.494c-0.699,0-1.28-0.204-1.744-0.611
		c-0.146-0.123-0.266-0.262-0.361-0.415c-0.095-0.154-0.175-0.355-0.239-0.604c-0.064-0.248-0.097-0.722-0.097-1.421v-3.421h-1.341
		V487.599z"/>
	<path d="M211.318,493.534v-1.643c0.432,0.302,0.871,0.546,1.32,0.733c0.451,0.188,0.83,0.28,1.137,0.28
		c0.318,0,0.592-0.078,0.822-0.234c0.229-0.156,0.344-0.344,0.344-0.562c0-0.224-0.074-0.409-0.223-0.558s-0.469-0.362-0.959-0.642
		c-0.984-0.548-1.629-1.016-1.934-1.404s-0.457-0.812-0.457-1.271c0-0.592,0.23-1.075,0.691-1.45
		c0.461-0.374,1.055-0.562,1.781-0.562c0.756,0,1.529,0.212,2.324,0.637v1.51c-0.906-0.548-1.646-0.822-2.223-0.822
		c-0.297,0-0.535,0.063-0.717,0.189s-0.273,0.292-0.273,0.499c0,0.18,0.084,0.35,0.248,0.513c0.164,0.162,0.453,0.357,0.867,0.586
		l0.545,0.311c1.285,0.727,1.93,1.531,1.93,2.414c0,0.632-0.248,1.149-0.742,1.555s-1.131,0.607-1.908,0.607
		c-0.457,0-0.865-0.049-1.225-0.146C212.311,493.978,211.861,493.797,211.318,493.534z"/>
	<path d="M221.992,486.357c1.174,0,2.149,0.379,2.926,1.136c0.777,0.758,1.166,1.71,1.166,2.855c0,1.112-0.395,2.036-1.183,2.771
		c-0.788,0.735-1.78,1.103-2.977,1.103c-1.156,0-2.124-0.373-2.9-1.119c-0.777-0.746-1.166-1.678-1.166-2.796
		c0-1.129,0.394-2.069,1.179-2.821S220.808,486.357,221.992,486.357z M220.114,482.635c0.218,0,0.406,0.078,0.565,0.235
		c0.16,0.156,0.239,0.347,0.239,0.569c0,0.224-0.075,0.413-0.227,0.566c-0.15,0.153-0.335,0.23-0.553,0.23
		c-0.224,0-0.414-0.08-0.57-0.239s-0.234-0.348-0.234-0.565c0-0.224,0.076-0.412,0.23-0.566
		C219.719,482.712,219.901,482.635,220.114,482.635z M221.908,487.732c-0.732,0-1.333,0.24-1.803,0.722
		c-0.469,0.48-0.704,1.093-0.704,1.836c0,0.737,0.24,1.34,0.722,1.807c0.48,0.467,1.098,0.7,1.853,0.7
		c0.749,0,1.362-0.236,1.84-0.709c0.479-0.472,0.717-1.077,0.717-1.814c0-0.732-0.248-1.339-0.746-1.819
		C223.289,487.973,222.663,487.732,221.908,487.732z M223.342,482.635c0.219,0,0.407,0.078,0.566,0.235
		c0.159,0.156,0.239,0.347,0.239,0.569c0,0.224-0.076,0.413-0.227,0.566c-0.151,0.153-0.336,0.23-0.554,0.23
		c-0.224,0-0.414-0.08-0.57-0.239s-0.234-0.348-0.234-0.565c0-0.224,0.077-0.412,0.23-0.566
		C222.946,482.712,223.13,482.635,223.342,482.635z"/>
	<path d="M227.778,482.375h1.525v11.713h-1.525V482.375z M232.799,486.374h1.812l-3.291,3.773l3.961,3.94h-2.047l-3.863-3.937
		L232.799,486.374z"/>
	<path d="M239.18,486.357c1.174,0,2.149,0.379,2.926,1.136c0.777,0.758,1.166,1.71,1.166,2.855c0,1.112-0.395,2.036-1.183,2.771
		c-0.788,0.735-1.78,1.103-2.977,1.103c-1.156,0-2.124-0.373-2.9-1.119c-0.777-0.746-1.166-1.678-1.166-2.796
		c0-1.129,0.394-2.069,1.179-2.821S237.995,486.357,239.18,486.357z M239.096,487.732c-0.732,0-1.333,0.24-1.803,0.722
		c-0.469,0.48-0.704,1.093-0.704,1.836c0,0.737,0.24,1.34,0.722,1.807c0.48,0.467,1.098,0.7,1.853,0.7
		c0.749,0,1.362-0.236,1.84-0.709c0.479-0.472,0.717-1.077,0.717-1.814c0-0.732-0.248-1.339-0.746-1.819
		C240.477,487.973,239.851,487.732,239.096,487.732z"/>
	<path d="M244.999,482.375h1.525v11.713h-1.525V482.375z"/>
	<path d="M252.418,486.357c1.174,0,2.149,0.379,2.926,1.136c0.777,0.758,1.166,1.71,1.166,2.855c0,1.112-0.395,2.036-1.183,2.771
		c-0.788,0.735-1.78,1.103-2.977,1.103c-1.156,0-2.124-0.373-2.9-1.119c-0.777-0.746-1.166-1.678-1.166-2.796
		c0-1.129,0.394-2.069,1.179-2.821S251.233,486.357,252.418,486.357z M252.334,487.732c-0.732,0-1.333,0.24-1.803,0.722
		c-0.469,0.48-0.704,1.093-0.704,1.836c0,0.737,0.24,1.34,0.722,1.807c0.48,0.467,1.098,0.7,1.853,0.7
		c0.749,0,1.362-0.236,1.84-0.709c0.479-0.472,0.717-1.077,0.717-1.814c0-0.732-0.248-1.339-0.746-1.819
		C253.715,487.973,253.089,487.732,252.334,487.732z"/>
	<path d="M257.81,489.041c0-0.822,0.301-1.472,0.901-1.95c0.601-0.478,1.421-0.717,2.461-0.717h3.178v1.19h-1.56
		c0.302,0.308,0.511,0.587,0.629,0.839c0.117,0.252,0.176,0.539,0.176,0.863c0,0.402-0.114,0.798-0.344,1.187
		s-0.524,0.687-0.885,0.894c-0.36,0.206-0.951,0.371-1.773,0.494c-0.575,0.084-0.863,0.282-0.863,0.596
		c0,0.179,0.107,0.325,0.323,0.439c0.215,0.115,0.604,0.233,1.169,0.356c0.944,0.207,1.553,0.369,1.824,0.486
		c0.271,0.117,0.516,0.285,0.733,0.503c0.369,0.369,0.553,0.833,0.553,1.393c0,0.731-0.325,1.315-0.977,1.752
		c-0.651,0.436-1.521,0.654-2.611,0.654c-1.102,0-1.98-0.22-2.637-0.658c-0.657-0.439-0.985-1.027-0.985-1.766
		c0-1.045,0.646-1.719,1.937-2.021c-0.514-0.329-0.771-0.656-0.771-0.98c0-0.246,0.11-0.47,0.331-0.671
		c0.222-0.201,0.519-0.35,0.894-0.444C258.377,490.978,257.81,490.164,257.81,489.041z M260.316,494.448
		c-0.515,0-0.935,0.109-1.262,0.327s-0.49,0.497-0.49,0.839c0,0.793,0.715,1.19,2.146,1.19c0.676,0,1.2-0.1,1.571-0.298
		c0.372-0.198,0.558-0.479,0.558-0.843c0-0.357-0.234-0.649-0.704-0.876S261.06,494.448,260.316,494.448z M260.677,487.699
		c-0.413,0-0.766,0.14-1.057,0.419c-0.29,0.279-0.436,0.615-0.436,1.006c0,0.397,0.143,0.726,0.428,0.985s0.646,0.39,1.081,0.39
		c0.431,0,0.79-0.132,1.078-0.397c0.287-0.266,0.432-0.597,0.432-0.994c0-0.402-0.146-0.737-0.437-1.006
		C261.477,487.833,261.113,487.699,260.677,487.699z"/>
	<path d="M266.32,483.13c0.251,0,0.466,0.087,0.646,0.26c0.179,0.173,0.268,0.386,0.268,0.637c0,0.246-0.089,0.459-0.268,0.638
		c-0.18,0.179-0.395,0.269-0.646,0.269c-0.235,0-0.442-0.091-0.621-0.272s-0.269-0.393-0.269-0.634c0-0.234,0.09-0.442,0.269-0.624
		S266.085,483.13,266.32,483.13z M265.565,486.374h1.525v7.714h-1.525V486.374z"/>
	<path d="M275.869,490.365h-5.424c0.039,0.738,0.286,1.325,0.742,1.761c0.455,0.436,1.043,0.654,1.765,0.654
		c1.006,0,1.934-0.313,2.783-0.939v1.492c-0.47,0.313-0.935,0.537-1.396,0.671c-0.462,0.135-1.002,0.201-1.623,0.201
		c-0.85,0-1.537-0.176-2.062-0.528c-0.525-0.352-0.945-0.825-1.262-1.421c-0.315-0.596-0.474-1.284-0.474-2.066
		c0-1.174,0.333-2.129,0.998-2.863c0.665-0.735,1.528-1.103,2.591-1.103c1.022,0,1.839,0.357,2.448,1.073
		c0.608,0.715,0.913,1.674,0.913,2.876V490.365z M270.479,489.451h3.882c-0.039-0.609-0.221-1.078-0.545-1.408
		s-0.76-0.495-1.308-0.495s-0.997,0.165-1.346,0.495C270.812,488.373,270.585,488.842,270.479,489.451z"/>
	<path d="M161.949,509.646c0-0.822,0.3-1.472,0.901-1.95c0.601-0.478,1.421-0.717,2.461-0.717h3.177v1.19h-1.559
		c0.302,0.308,0.511,0.587,0.628,0.839c0.118,0.252,0.176,0.539,0.176,0.863c0,0.402-0.115,0.798-0.344,1.187
		c-0.229,0.389-0.524,0.687-0.885,0.894c-0.36,0.206-0.952,0.371-1.773,0.494c-0.576,0.084-0.864,0.282-0.864,0.596
		c0,0.179,0.107,0.325,0.323,0.439c0.215,0.115,0.605,0.233,1.17,0.356c0.944,0.207,1.552,0.369,1.823,0.486
		s0.516,0.285,0.734,0.503c0.369,0.369,0.553,0.833,0.553,1.393c0,0.731-0.326,1.315-0.977,1.752
		c-0.651,0.436-1.522,0.654-2.612,0.654c-1.101,0-1.98-0.22-2.637-0.658c-0.657-0.439-0.985-1.027-0.985-1.766
		c0-1.045,0.646-1.719,1.937-2.021c-0.514-0.329-0.771-0.656-0.771-0.98c0-0.246,0.11-0.47,0.331-0.671s0.519-0.35,0.893-0.444
		C162.516,511.583,161.949,510.77,161.949,509.646z M164.456,515.054c-0.514,0-0.935,0.109-1.262,0.327s-0.491,0.497-0.491,0.839
		c0,0.793,0.716,1.19,2.146,1.19c0.676,0,1.2-0.1,1.572-0.298c0.372-0.198,0.558-0.479,0.558-0.843c0-0.357-0.235-0.649-0.705-0.876
		C165.806,515.167,165.199,515.054,164.456,515.054z M164.816,508.305c-0.414,0-0.766,0.14-1.056,0.419s-0.436,0.615-0.436,1.006
		c0,0.397,0.143,0.726,0.428,0.985s0.646,0.39,1.082,0.39c0.43,0,0.79-0.132,1.077-0.397c0.288-0.266,0.432-0.597,0.432-0.994
		c0-0.402-0.146-0.737-0.436-1.006C165.615,508.438,165.252,508.305,164.816,508.305z"/>
	<path d="M176.244,510.971h-5.425c0.039,0.738,0.287,1.325,0.742,1.761s1.044,0.654,1.765,0.654c1.006,0,1.934-0.313,2.783-0.939
		v1.492c-0.469,0.313-0.935,0.537-1.396,0.671c-0.461,0.135-1.002,0.201-1.622,0.201c-0.85,0-1.537-0.176-2.062-0.528
		c-0.525-0.352-0.946-0.825-1.262-1.421c-0.316-0.596-0.474-1.284-0.474-2.066c0-1.174,0.333-2.129,0.998-2.863
		c0.665-0.735,1.528-1.103,2.59-1.103c1.023,0,1.839,0.357,2.448,1.073c0.609,0.715,0.914,1.674,0.914,2.876V510.971z
		 M170.853,510.057h3.882c-0.039-0.609-0.221-1.078-0.545-1.408s-0.76-0.495-1.308-0.495s-0.996,0.165-1.345,0.495
		C171.187,508.979,170.958,509.447,170.853,510.057z"/>
	<path d="M181.584,506.963c1.174,0,2.149,0.379,2.926,1.136c0.777,0.758,1.166,1.71,1.166,2.855c0,1.112-0.394,2.036-1.182,2.771
		c-0.789,0.735-1.781,1.103-2.977,1.103c-1.157,0-2.124-0.373-2.901-1.119c-0.777-0.746-1.166-1.678-1.166-2.796
		c0-1.129,0.393-2.069,1.178-2.821C179.415,507.339,180.399,506.963,181.584,506.963z M181.501,508.338
		c-0.732,0-1.333,0.24-1.803,0.722c-0.47,0.48-0.705,1.093-0.705,1.836c0,0.737,0.24,1.34,0.721,1.807
		c0.48,0.467,1.098,0.7,1.853,0.7c0.749,0,1.362-0.236,1.84-0.709c0.478-0.472,0.717-1.077,0.717-1.814
		c0-0.732-0.249-1.339-0.746-1.819C182.881,508.578,182.255,508.338,181.501,508.338z"/>
	<path d="M188.158,503.735c0.251,0,0.467,0.087,0.646,0.26s0.269,0.386,0.269,0.637c0,0.246-0.09,0.459-0.269,0.638
		s-0.394,0.269-0.646,0.269c-0.235,0-0.441-0.091-0.621-0.272c-0.179-0.182-0.268-0.393-0.268-0.634
		c0-0.234,0.089-0.442,0.268-0.624C187.716,503.826,187.923,503.735,188.158,503.735z M187.403,506.979h1.526v7.714h-1.526V506.979z
		"/>
	<path d="M192.66,506.979v0.981c0.682-0.755,1.456-1.132,2.322-1.132c0.481,0,0.928,0.124,1.342,0.373s0.728,0.59,0.943,1.022
		c0.215,0.434,0.323,1.119,0.323,2.059v4.41h-1.526V510.3c0-0.788-0.121-1.351-0.361-1.689c-0.24-0.338-0.643-0.507-1.207-0.507
		c-0.721,0-1.333,0.36-1.836,1.081v5.509h-1.56v-7.714H192.66z"/>
	<path d="M199.896,506.979v-0.461c0-1.241,0.264-2.166,0.792-2.775c0.528-0.608,1.161-0.914,1.899-0.914
		c0.319,0,0.696,0.051,1.132,0.151v1.492c-0.246-0.089-0.481-0.134-0.705-0.134c-0.598,0-1.013,0.159-1.245,0.478
		c-0.232,0.319-0.348,0.887-0.348,1.702v0.461h1.375v1.375h-1.375v6.339h-1.526v-6.339h-1.107v-1.375H199.896z"/>
	<path d="M207.534,506.963c1.174,0,2.149,0.379,2.926,1.136c0.776,0.758,1.165,1.71,1.165,2.855c0,1.112-0.394,2.036-1.182,2.771
		c-0.789,0.735-1.781,1.103-2.977,1.103c-1.157,0-2.124-0.373-2.901-1.119c-0.777-0.746-1.166-1.678-1.166-2.796
		c0-1.129,0.393-2.069,1.178-2.821C205.364,507.339,206.349,506.963,207.534,506.963z M207.45,508.338
		c-0.732,0-1.333,0.24-1.803,0.722c-0.47,0.48-0.705,1.093-0.705,1.836c0,0.737,0.24,1.34,0.721,1.807
		c0.48,0.467,1.098,0.7,1.853,0.7c0.749,0,1.362-0.236,1.84-0.709c0.478-0.472,0.717-1.077,0.717-1.814
		c0-0.732-0.249-1.339-0.746-1.819C208.831,508.578,208.205,508.338,207.45,508.338z"/>
	<path d="M214.954,506.979v1.77l0.084-0.134c0.737-1.191,1.476-1.786,2.213-1.786c0.576,0,1.177,0.29,1.803,0.872l-0.805,1.341
		c-0.531-0.503-1.023-0.754-1.476-0.754c-0.492,0-0.918,0.234-1.279,0.704c-0.36,0.47-0.54,1.025-0.54,1.668v4.033h-1.534v-7.714
		H214.954z"/>
	<path d="M226.44,509.093v5.601h-1.534V510.4c0-0.855-0.115-1.451-0.344-1.79c-0.229-0.338-0.629-0.507-1.199-0.507
		c-0.318,0-0.61,0.072-0.876,0.218s-0.569,0.402-0.91,0.771v5.601h-1.525v-7.714h1.525v1.015c0.777-0.776,1.537-1.165,2.281-1.165
		c0.978,0,1.735,0.464,2.271,1.392c0.816-0.939,1.669-1.408,2.558-1.408c0.749,0,1.365,0.273,1.849,0.821s0.726,1.384,0.726,2.507
		v4.553h-1.526v-4.569c0-0.643-0.132-1.135-0.395-1.476s-0.64-0.512-1.132-0.512C227.578,508.137,226.988,508.455,226.44,509.093z"
		/>
	<path d="M238.203,510.057v3.278c0,0.263,0.089,0.395,0.269,0.395c0.185,0,0.472-0.138,0.863-0.411v0.931
		c-0.347,0.224-0.625,0.376-0.834,0.457c-0.21,0.081-0.43,0.121-0.658,0.121c-0.654,0-1.04-0.257-1.157-0.771
		c-0.648,0.503-1.339,0.754-2.071,0.754c-0.536,0-0.983-0.177-1.341-0.532c-0.358-0.354-0.537-0.801-0.537-1.337
		c0-0.486,0.175-0.921,0.524-1.304c0.349-0.383,0.845-0.687,1.488-0.91l1.953-0.671v-0.41c0-0.929-0.464-1.393-1.392-1.393
		c-0.833,0-1.644,0.431-2.432,1.291v-1.668c0.593-0.698,1.445-1.048,2.558-1.048c0.832,0,1.5,0.218,2.004,0.653
		c0.167,0.141,0.318,0.326,0.452,0.558c0.135,0.232,0.22,0.465,0.256,0.696C238.185,508.969,238.203,509.408,238.203,510.057z
		 M236.702,513.167v-2.288l-1.022,0.394c-0.521,0.207-0.888,0.415-1.103,0.625c-0.216,0.209-0.323,0.471-0.323,0.783
		c0,0.319,0.103,0.579,0.307,0.78c0.203,0.201,0.468,0.302,0.792,0.302C235.839,513.763,236.288,513.564,236.702,513.167z"/>
	<path d="M239.604,508.204l2.867-2.817v1.593h2.44v1.375h-2.44v3.775c0,0.882,0.366,1.322,1.099,1.322
		c0.548,0,1.126-0.182,1.735-0.545v1.426c-0.587,0.33-1.227,0.494-1.92,0.494c-0.699,0-1.28-0.204-1.744-0.611
		c-0.146-0.123-0.266-0.262-0.36-0.415c-0.095-0.154-0.175-0.355-0.239-0.604c-0.063-0.248-0.096-0.722-0.096-1.421v-3.421h-1.342
		V508.204z"/>
	<path d="M247.191,503.735c0.251,0,0.466,0.087,0.646,0.26c0.179,0.173,0.268,0.386,0.268,0.637c0,0.246-0.089,0.459-0.268,0.638
		c-0.18,0.179-0.395,0.269-0.646,0.269c-0.235,0-0.442-0.091-0.621-0.272s-0.269-0.393-0.269-0.634c0-0.234,0.09-0.442,0.269-0.624
		S246.956,503.735,247.191,503.735z M246.437,506.979h1.525v7.714h-1.525V506.979z"/>
	<path d="M250.168,502.98h1.525v11.713h-1.525V502.98z M255.188,506.979h1.812l-3.291,3.773l3.961,3.94h-2.047l-3.863-3.937
		L255.188,506.979z"/>
</g>
<g>
</g>
</svg>
