<?xml version="1.0" encoding="UTF-8" standalone="no"?>
<!-- Created with Inkscape (http://www.inkscape.org/) -->

<svg
   xmlns:dc="http://purl.org/dc/elements/1.1/"
   xmlns:cc="http://creativecommons.org/ns#"
   xmlns:rdf="http://www.w3.org/1999/02/22-rdf-syntax-ns#"
   xmlns:svg="http://www.w3.org/2000/svg"
   xmlns="http://www.w3.org/2000/svg"
   xmlns:xlink="http://www.w3.org/1999/xlink"
   xmlns:sodipodi="http://sodipodi.sourceforge.net/DTD/sodipodi-0.dtd"
   xmlns:inkscape="http://www.inkscape.org/namespaces/inkscape"
   id="svg2"
   version="1.1"
   inkscape:version="0.92+devel unknown"
   width="350.653333333"
   height="501.52"
   xml:space="preserve"
   sodipodi:docname="erstiheft-hinten.svg"><sodipodi:namedview
     pagecolor="#ffffff"
     bordercolor="#666666"
     borderopacity="1"
     objecttolerance="10"
     gridtolerance="10"
     guidetolerance="10"
     inkscape:pageopacity="0"
     inkscape:pageshadow="2"
     inkscape:window-width="1680"
     inkscape:window-height="986"
     id="namedview4"
     showgrid="false"
     inkscape:zoom="0.7"
     inkscape:cx="691.46025"
     inkscape:cy="160.96846"
     inkscape:window-x="0"
     inkscape:window-y="27"
     inkscape:window-maximized="1"
     inkscape:current-layer="g10"
     inkscape:document-rotation="0"
     inkscape:document-units="px" /><metadata
     id="metadata8"><rdf:RDF><cc:Work
         rdf:about=""><dc:format>image/svg+xml</dc:format><dc:type
           rdf:resource="http://purl.org/dc/dcmitype/StillImage" /><dc:title></dc:title></cc:Work></rdf:RDF></metadata><defs
     id="defs6"><clipPath
       clipPathUnits="userSpaceOnUse"
       id="clipPath18"><path
         d="m 0,0 2629.91,0 0,3761 L 0,3761 0,0 z"
         id="path20" /></clipPath></defs><g
     id="g10"
     inkscape:groupmode="layer"
     inkscape:label="ink_ext_XXXXXX"
     transform="matrix(1.333333,0.000000,0.000000,-1.333333,0.000000,501.520000)"><g
       id="g11110"><path
         d="m 39.0551,72.3641 c 0.0554,-0.9071 -0.3442,-1.5 -0.8602,-2.0879 -0.1281,-0.1473 -0.4902,-0.4012 -0.4922,-0.4934 0,-0.134 0.4731,-0.4617 0.575,-0.6129 0.4426,-0.664 0.6407,-1.8789 0.2457,-2.8258 -0.3949,-0.1273 -1.2035,-0.1332 -1.5992,0 -0.1254,0.211 -0.0156,0.5 0,0.777 0.0414,0.6641 -0.0844,1.35 -0.3672,1.7187 -0.8847,-0.191 -0.455,-1.732 -0.6554,-2.4957 -0.3719,-0.1191 -1.1911,-0.141 -1.5575,0 -0.1836,1.227 0.1637,2.6598 0.4098,4.0137 0.1156,0.6422 0.2309,1.3024 0.3684,1.925 0.1711,0.766 0.355,1.6863 0.7793,2.0883 0.4675,-0.05 1.1722,0.1367 1.3914,-0.1621 -0.1176,-0.6891 -0.4008,-1.3059 -0.5727,-1.9668 -0.1738,-0.6731 -0.3226,-1.3453 -0.4508,-2.0891 0.2321,-0.0043 0.3243,0.259 0.4508,0.4098 0.1469,0.1762 0.2832,0.3262 0.4098,0.5312 0.2476,0.4039 0.3949,0.8707 0.5726,1.311 0.3801,0.0539 1.036,0.0969 1.3524,-0.041 l 0,0"
         style="fill:#050301;fill-opacity:1;fill-rule:nonzero;stroke:none"
         id="path22"
         inkscape:connector-curvature="0" /><path
         d="m 37.0883,90.7602 c 1.2344,-2.5661 2.173,-5.9161 1.9254,-9.7524 -0.0563,-0.875 -0.1989,-1.7519 -0.3688,-2.5797 -0.159,-0.7832 -0.3574,-1.5609 -0.6551,-2.2519 -0.246,0 -0.4921,0 -0.7363,0 -0.1324,0.0629 0.0313,0.2906 0.0809,0.4488 0.8019,2.4891 1.1785,6.057 0.575,9.1762 -0.5813,2.9957 -1.8942,5.6656 -3.4016,7.6617 -1.5387,2.0391 -3.5894,3.873 -5.941,5.1621 -2.398,1.3191 -5.3504,2.213 -8.8477,2.213 -3.4957,0 -6.4441,-0.879 -8.8886,-2.213 C 8.45508,97.3301 6.44727,95.541 4.89062,93.5039 2.65742,90.5801 0.726172,86.182 1.20352,80.6801 1.34219,79.073 1.76953,77.541 2.14688,76.1762 c -0.24649,0 -0.49219,0 -0.73868,0 -0.19414,0.0898 -0.15468,0.3258 -0.20468,0.4898 -0.364067,1.168 -0.673832,2.602 -0.818364,4.0551 -0.176172,1.7418 -0.022656,3.568 0.285156,5.2051 0.578518,3.066 1.864848,5.7308 3.359768,7.7828 1.55312,2.1351 3.53203,3.9121 5.85781,5.2851 2.35471,1.3889 5.23361,2.4569 8.52071,2.6219 3.7656,0.189 7.2414,-0.612 9.9144,-1.9672 3.9125,-1.9808 6.8465,-4.8988 8.7653,-8.8886 l 0,0"
         style="fill:#050301;fill-opacity:1;fill-rule:nonzero;stroke:none"
         id="path24"
         inkscape:connector-curvature="0" /><path
         d="m 29.3473,82.2781 c 0.4789,0.191 0.7976,0.541 0.8597,1.15 -0.1754,0.2598 -0.498,0.375 -0.7797,0.5309 0.0606,0.5281 0.4907,0.6859 0.4922,1.2699 -0.1261,0.0941 -0.4215,0.0152 -0.4922,0.1641 0.1055,0.2359 0.209,0.4742 0.1661,0.859 -0.1016,0.1878 -0.3496,0.2269 -0.2875,0.5742 0.1214,0.0957 0.3589,0.0789 0.45,0.2058 -0.1114,0.5442 -0.525,0.7871 -0.777,1.1871 -0.2543,-0.0043 -0.4012,0.0918 -0.5746,0.1637 -0.0188,-0.1988 -0.1801,-0.2558 -0.2047,-0.4508 0.2313,-0.1019 0.568,-0.2461 0.5731,-0.4902 0.0062,-0.2148 -0.2262,-0.2188 -0.286,-0.4508 0.0988,-0.6101 -0.2293,-1.059 -0.6551,-1.2699 -0.18,0.0039 -0.1949,0.2109 -0.3293,0.2051 -0.0925,-0.0063 -0.4343,-0.4961 -0.6554,-0.3711 -0.2192,0.191 -0.3059,0.514 -0.409,0.8219 -0.0664,0.0648 -0.1719,-0.0372 -0.327,0 -0.1964,0.1171 -0.2933,0.332 -0.3707,0.5718 -0.1504,-0.0269 -0.2398,-0.1148 -0.3672,-0.1617 -0.2671,0.0859 -0.2171,0.491 -0.614,0.45 0.0183,-0.1742 0.1613,-0.2211 0.1215,-0.45 0.3168,-0.0543 0.5336,-0.207 0.6972,-0.4101 0.0098,-0.1461 -0.0773,-0.1989 -0.0832,-0.3301 0.3274,-0.0821 0.5973,-0.2231 0.6559,-0.5719 0.0043,-0.193 -0.2152,-0.166 -0.2047,-0.3691 0.2129,-0.3239 0.6617,-0.3731 0.9426,-0.6149 0.1902,-0.1629 0.3082,-0.3738 0.4512,-0.573 -0.1036,-0.2379 -0.2961,-0.3879 -0.4098,-0.6129 0.1246,-0.3012 0.407,-0.9731 0,-1.1071 -0.1899,-0.0281 -0.2359,0.0911 -0.4094,0.0801 -0.2234,-0.4051 -0.5293,-0.7269 -0.8601,-1.0242 0.0703,-0.066 0.2523,-0.0187 0.2855,-0.123 0.0352,-0.5137 -0.2855,-0.668 -0.5727,-0.859 0.1133,-0.1719 0.2332,-0.3399 0.2461,-0.6149 -0.0726,-0.1199 -0.364,-0.0179 -0.4097,-0.1629 0.1836,-0.255 0.2191,-0.8632 0.0418,-1.148 -0.0891,-0.0762 -0.3024,-0.027 -0.4516,-0.041 0.0168,-0.5223 -0.0906,-0.9199 -0.4086,-1.1071 -0.1305,0.029 -0.1613,0.302 -0.2879,0.2051 0.0192,-0.5551 -0.3097,-0.948 -0.8597,-0.6941 -0.1664,-0.3692 -0.3043,-0.7629 -0.6973,-0.902 -0.1899,0.0942 -0.2273,0.3461 -0.3266,0.5309 -0.2832,-0.1481 -1.3765,-0.4469 -1.5175,0 -0.0579,0.1902 0.141,0.3461 0.1652,0.5742 -0.2371,0.268 -0.6098,0.4027 -0.7379,0.7777 0.1008,0.0922 0.2105,0.1743 0.3684,0.2051 0.0039,0.1969 -0.1579,0.2262 -0.1637,0.4102 -0.4899,0.0039 -0.8727,-0.0332 -0.9434,0.2867 -0.0594,0.2852 0.2957,0.5473 0.3707,0.8184 -0.1843,0.2039 -0.4738,0.2929 -0.575,0.5769 0.0457,0.2668 0.3953,0.232 0.5328,0.4078 -0.1277,0.0621 -0.1355,0.2461 -0.2039,0.3692 -0.4531,-0.0661 -0.7711,-0.268 -1.2703,-0.2871 -0.1648,0.1351 -0.3347,0.2652 -0.3695,0.5308 -0.4609,-0.0527 -0.627,0.1934 -0.8602,0.3692 -0.1898,-0.027 -0.3429,-0.0942 -0.5312,-0.1231 -0.1324,0.1473 -0.0684,0.4789 -0.0824,0.7371 -0.3043,-0.043 -0.7239,-0.2449 -0.9016,0.041 0.0492,0.2379 0.1836,0.3899 0.2457,0.6168 -0.4609,0.275 -0.7547,0.7184 -0.8602,1.3492 0.145,0.227 0.4114,0.3282 0.6969,0.4098 -0.0047,0.2113 -0.3515,0.409 -0.2875,0.8211 0.0332,0.0102 0.0473,0.0332 0.041,0.082 0.1559,0.0922 0.3871,0.1051 0.5727,0.1641 -0.0863,0.2051 -0.2438,0.7379 0,0.902 0.3273,0.0261 0.5504,-0.0508 0.7383,-0.1661 0.1176,0.2461 0.4527,0.2743 0.7777,0.2051 0.0488,0.2641 0.0949,0.5352 0.2871,0.657 0.2485,-0.2039 0.4781,-0.4261 0.6559,-0.696 0.3703,0.1781 0.7008,0.6058 1.3105,0.4101 0,-0.125 0,-0.2461 0,-0.3711 0.2774,0.1961 0.759,0.3559 1.0653,0.082 0.13,0.254 0.2105,0.5551 0.4921,0.659 0.1282,-0.0398 0.1903,-0.139 0.329,-0.166 0.0699,0.3879 0.5433,0.8668 0.8597,0.4102 0.1555,0.1437 0.5414,0.0558 0.8192,0.0816 0.0246,0.207 0.2082,0.2563 0.2043,0.4902 -0.4211,0.125 -0.6141,0.4782 -0.8602,0.779 -0.273,-0.22 -0.7148,-0.2668 -1.2301,-0.2461 0.0496,-0.1821 0.043,-0.4161 -0.1219,-0.4899 -0.5933,-0.0492 -1.0074,0.086 -1.3109,0.3258 -0.1371,-0.4199 -0.5957,-1.0938 -1.0652,-0.9406 -0.3844,0.125 -0.0621,0.7277 -0.2875,1.0636 -0.0907,-0.182 -0.1571,-0.3886 -0.368,-0.4488 -0.1277,0.0488 -0.2723,0.082 -0.409,0.1231 0.0922,-0.318 -0.0269,-0.725 -0.2461,-0.8629 -0.3515,0.0449 -0.4879,0.3058 -0.6972,0.4918 -0.1586,-0.2289 -0.6879,-0.4852 -0.943,-0.2461 0.0664,0.3453 0.2098,0.6133 0.3703,0.8609 -0.1965,0.2871 -0.4754,0.6973 -0.3703,1.1473 0.2629,0.0168 0.4406,-0.0512 0.6164,-0.1223 0.1219,0.2582 0.0977,0.6684 0.3688,0.7781 0.1878,0.0371 0.198,-0.1019 0.3675,-0.082 0.0575,0.3652 0.2071,0.6402 0.409,0.8609 0.2715,-0.0367 0.2442,-0.3078 0.493,-0.2867 0.3555,0.0289 0.3156,0.641 0.5726,0.941 0.1235,0.1469 0.2391,0.118 0.3286,0.2469 -0.3844,0.2442 -0.6762,0.5801 -0.7778,1.107 0.0313,0.0079 0.0473,0.0329 0.0395,0.0801 0.2047,0.043 0.3968,0.0981 0.655,0.084 -0.0124,0.3809 0.0622,0.8539 -0.2046,0.9801 -0.345,-0.0891 -0.4996,-0.3711 -0.8192,-0.4902 -0.4672,0.28 -1.1222,0.0449 -1.4738,-0.1641 -0.1137,-0.3219 -0.3102,-0.5617 -0.6141,-0.6969 0.3946,-0.3219 -0.0804,-0.7269 -0.2465,-0.9832 0.104,-0.0027 0.1602,-0.0578 0.1641,-0.1637 -0.143,-0.3222 -0.4363,-0.4921 -0.7773,-0.6152 0.0136,-0.2648 0.1324,-0.7211 -0.0828,-0.859 -0.325,-0.1129 -0.5149,0.209 -0.8192,0.2461 -0.0453,-0.2289 -0.0242,-0.5219 -0.2047,-0.6148 -0.1898,0.0039 -0.1488,0.234 -0.3695,0.2047 -0.2965,-0.3008 -0.2981,-1.3008 -0.7781,-1.311 -0.2168,-0.0039 -0.2168,0.1922 -0.4086,0.2871 -0.1227,-0.1269 -0.3828,-0.109 -0.575,-0.1621 -0.1551,-0.2008 -0.3703,-0.3437 -0.6559,-0.4121 -0.2133,0.059 -0.3555,0.1902 -0.6555,0.1641 -0.1613,-0.9 0.6348,-1.7969 0.1247,-2.6617 0.1445,-0.1411 0.1218,-0.4493 0.1218,-0.7364 0.1735,-0.0136 0.2207,0.1051 0.409,0.0801 0.2727,-0.4051 -0.0082,-0.9301 -0.1633,-1.2699 0.1965,-0.0172 0.4528,0.1191 0.6141,0 0.0312,-0.386 -0.1258,-0.582 -0.2852,-0.7789 0.2086,-0.0903 0.4672,-0.1352 0.5313,-0.3672 -0.0656,-0.127 -0.2051,-0.1801 -0.2461,-0.3277 0.1195,-0.0204 0.0973,-0.1782 0.2051,-0.2071 0.1113,0.134 0.2687,0.2258 0.4918,0.2457 0.2683,-0.2328 0.266,-0.7129 0.1246,-1.0648 0.3179,-0.0488 0.6387,-0.0969 0.7765,-0.3281 -0.0261,-0.2008 -0.3617,-0.277 -0.2871,-0.4508 0.3993,-0.1063 0.7028,-0.309 0.9016,-0.6133 -0.0789,-0.1656 -0.2809,-0.209 -0.3262,-0.4098 0.2809,-0.141 0.4457,-0.3968 0.4895,-0.7781 -0.159,-0.0969 -0.4543,-0.0641 -0.5731,-0.2051 0.1223,-0.1519 0.1617,-0.3847 0.2051,-0.6148 -0.1141,-0.1039 -0.2957,-0.141 -0.5312,-0.1231 -0.0082,-0.3199 -0.1762,-0.4789 -0.2465,-0.7379 0.091,-0.25 0.3437,-0.3679 0.4902,-0.614 0.2027,-0.336 0.1594,-0.8238 0.4922,-1.0641 0.1137,0.2153 0.182,0.4723 0.3285,0.6563 0.2672,-0.1852 0.3496,-0.5532 0.736,-0.6153 0.0874,0.1051 -0.0137,0.3961 0.0832,0.4922 0.1652,-0.109 0.2855,-0.264 0.573,-0.2461 0.1074,-0.3582 0.3926,-0.5371 0.5332,-0.8609 -0.1309,-0.1141 -0.25,-0.243 -0.3285,-0.4109 0.4418,-0.209 0.975,0.016 1.3105,0.1636 0.0141,-0.2027 -0.0062,-0.375 -0.039,-0.5308 0.2832,-0.125 0.5808,0.0648 0.7773,0.1621 0.3434,-0.15 0.711,-0.486 1.1891,-0.3672 -0.0207,0.268 -0.2215,0.3539 -0.2461,0.6133 0.2707,0.0508 0.7336,-0.1364 1.0226,-0.0801 0,-0.2551 -0.2187,-0.4801 -0.082,-0.7383 0.4719,0.1043 0.7461,0.4 1.1063,0.6133 -0.0227,-0.418 0.1531,-0.6383 0.2875,-0.902 0.1632,0.086 0.3265,0.2579 0.4089,0.4547 0.0852,0.1992 0.011,0.4864 0.2051,0.6114 0.1906,-0.2461 0.3223,-0.55 0.6547,-0.6543 0.0996,0.2011 0.1848,0.416 0.3297,0.5742 0.3887,-0.086 1.0062,-0.0563 1.3496,0.041 0.0563,0.3539 -0.2582,0.3379 -0.2855,0.6141 0.3601,0.1027 0.7222,0.2046 1.1062,0.2867 -0.0082,0.25 -0.2273,0.289 -0.2461,0.5312 0.6313,-0.0269 1.1067,0.0957 1.5164,0.2867 -0.0519,0.2661 -0.3937,0.2364 -0.4508,0.4942 0.25,0.0609 0.3161,0.3109 0.5727,0.3672 0.1777,0.0379 0.3844,-0.1321 0.6144,0 0.1918,0.1367 0.0762,0.5808 0.2872,0.6976 0.1406,-0.1078 0.3535,-0.141 0.6136,-0.125 0.1282,0.3141 -0.0289,0.6742 -0.0804,0.943 0.5211,0.1332 1.1617,0.1473 1.4332,0.5352 -0.1243,0.1449 -0.3418,0.2011 -0.368,0.4468 0.552,0.1121 1.1227,0.8461 0.6141,1.393 0.2058,0.2312 0.4089,0.4672 0.4089,0.9023 -0.1257,0.1329 -0.3203,0.1977 -0.3675,0.409 l 0,0 z m 7.9062,-17.207 c 0,-0.2449 0,-0.491 0,-0.7352 -11.7301,0 -23.4597,0 -35.18944,0 0,0.2442 0,0.4903 0,0.7352 3.05938,0 6.47735,0 9.66834,0 1.0938,0 2.2227,-0.1293 3.1946,0 0.6804,0.091 1.1625,0.4527 1.6371,0.8238 0.7015,0.8199 0.6832,2.2621 0.7386,3.5621 0.0594,1.4301 -0.0101,2.9399 -0.1636,4.1782 -0.3039,0.0367 -0.5848,0.0976 -0.6141,0.4097 -0.4754,-0.0988 -1.077,-0.0269 -1.2715,0.2852 -0.0371,0.473 0.3145,0.666 0,0.9847 -0.159,-0.498 -0.8332,-0.1918 -1.0238,0.0821 -0.1836,-0.2289 -0.2832,-0.4047 -0.5731,-0.3688 -0.4441,0.0539 -0.6257,0.9078 -0.7378,1.3098 -0.109,0.1 -0.2356,0.1742 -0.2872,0.3281 -0.1671,-0.0039 -0.3347,-0.0082 -0.4484,0.043 -0.1527,0.2289 -0.3105,0.4551 -0.3285,0.8172 -0.3192,0.0636 -0.6723,0.091 -0.902,0.2476 -0.0621,0.1403 -0.0351,0.3711 -0.041,0.5723 -0.0621,0.0609 -0.4945,-0.0043 -0.6144,0.125 -0.1118,0.4019 0.0058,0.916 0.0418,1.3109 -0.38754,0.1559 -1.01957,0.1461 -1.06527,0.6129 -0.01836,0.1871 0.08203,0.3121 0.20469,0.4922 -0.35547,0.2399 -1.63321,1.5207 -0.45118,1.6797 -0.20859,0.332 -0.31601,1.2934 0.20547,1.3512 -0.13672,0.4031 -0.29414,0.9808 -0.16406,1.5179 0.11836,0.111 0.27344,0.1891 0.49258,0.2032 0.01055,0.232 0.08008,0.4097 0.16328,0.5718 -0.18594,0.4051 -0.44023,0.7371 -0.40977,1.352 0.13477,0.207 0.33321,0.3512 0.69536,0.3301 0.0207,0.2172 -0.06059,0.8379 0.1242,1.023 0.1445,0.061 0.3031,0.1059 0.5312,0.082 -0.0148,0.4809 0.1215,0.8071 0.2871,1.1059 0.1411,0.0539 0.3246,0.1289 0.4922,0.041 0.0989,0.566 0.3891,1.1289 1.0231,1.025 0.1,0.0781 0.1636,0.1922 0.2465,0.2871 -0.3168,0.5371 -0.2211,1.25 0.655,1.1039 -0.0078,0.6051 0.3168,1.168 0.9016,0.8219 0.2672,0.1563 0.3641,0.4793 0.6144,0.6543 0.2336,-0.0391 0.2957,-0.2519 0.4918,-0.3281 0.2711,0.2539 0.9207,0.6551 1.2286,0.1621 0.2648,0.1758 0.8828,0.3789 1.2695,0.166 0.3371,0.2231 0.6363,0.4828 1.1058,0.5731 0.1747,-0.1141 0.2157,-0.3602 0.2879,-0.5731 0.1918,0.2578 0.409,0.493 0.6961,0.657 0.1496,-0.0589 0.1516,-0.2601 0.2875,-0.33 0.3493,0.1007 0.6707,0.23 1.1047,0.2461 0.1262,-0.0981 0.043,-0.1922 0.041,-0.368 0.2133,-0.0723 0.3989,-0.1754 0.6137,-0.2461 0.1988,0.0769 0.1516,0.3969 0.3711,0.4519 0.5852,-0.1101 1.0852,-0.3089 1.3918,-0.698 0.1234,0.0391 0.2207,0.1078 0.3695,0.1211 0.3657,-0.15 0.6617,-0.3731 0.7778,-0.775 0.4648,0.459 1.3215,0.2277 1.1054,-0.5352 0.1161,-0.016 0.5543,0.0352 0.6973,-0.08 0.1348,-0.1797 0.1555,-0.2911 0.1633,-0.5329 0.3988,0.445 1.1472,0.07 1.1472,-0.657 0.0997,-0.0109 0.486,0.0281 0.5731,-0.1211 0.1156,-0.1871 0.1242,-0.6758 0,-0.8609 0.5293,-0.016 0.9781,-0.666 0.4512,-1.0262 0.2082,-0.2418 0.4422,-0.4566 0.614,-0.7359 0.1364,-0.2168 -0.207,-0.2231 -0.2054,-0.3688 0.0023,-0.0863 0.3289,-0.3961 0.4101,-0.5312 0.1856,-0.3071 0.5,-0.8867 -0.0812,-1.0258 0.1386,-0.1871 0.1757,-0.632 0.0418,-0.8609 0.0625,-0.1661 0.3597,-0.1032 0.4484,-0.2461 0.1527,-0.5782 -0.1445,-1.0161 -0.3262,-1.3911 0.1879,-0.1789 0.486,-0.2519 0.6133,-0.4921 0.0438,-0.7129 -0.1918,-1.1438 -0.6133,-1.3938 0.3762,-0.307 0.091,-0.9262 -0.1222,-1.2293 0.1304,-0.4199 0.2082,-0.6406 0.0394,-1.0207 -0.0933,-0.2133 -0.4762,-0.4262 -0.4898,-0.5359 -0.0211,-0.1481 0.3531,-0.2653 0.2047,-0.4922 -0.2797,-0.4309 -0.8446,-0.5762 -1.3938,-0.736 0.002,-0.316 0.0207,-0.65 -0.0828,-0.8589 -0.1867,-0.1231 -0.4676,-0.2469 -0.7363,-0.1661 -0.1387,-0.364 -0.3578,-0.6511 -0.9016,-0.614 0.277,-0.609 -0.5133,-1.0172 -1.1891,-1.0641 0.0418,-0.4179 -0.4128,-0.6371 -0.8988,-0.6558 0.3281,-0.836 -0.6105,-0.9262 -1.3527,-0.9403 -0.4363,-0.8277 -0.3699,-2.084 -0.3699,-3.441 0,-0.6449 -0.0789,-1.325 -0.0391,-1.8887 0.0102,-0.1543 0.1051,-0.3011 0.1219,-0.4472 0.0246,-0.209 -0.0145,-0.4117 0,-0.6168 0.0742,-0.9871 0.4922,-1.5903 1.0238,-2.1289 0.6219,-0.3731 1.3871,-0.3301 2.4574,-0.3301 3.5406,0 7.4879,0 11.0211,0 l 0,0"
         style="fill:#050301;fill-opacity:1;fill-rule:nonzero;stroke:none"
         id="path26"
         inkscape:connector-curvature="0" /><path
         d="m 34.3855,74.25 c 0.6598,-0.8789 -0.7062,-1.884 -1.5156,-1.3941 -0.0945,0.0582 -0.3074,0.3261 -0.3285,0.4921 -0.0785,0.654 0.3352,1.0758 0.984,1.1481 0.3641,0.0391 0.7273,-0.0699 0.8601,-0.2461"
         style="fill:#050301;fill-opacity:1;fill-rule:nonzero;stroke:none"
         id="path28"
         inkscape:connector-curvature="0" /><path
         d="m 32.4199,68.5551 c 0.4336,0.6801 0.8043,2.8847 -0.5754,2.5801 -0.6652,-0.1461 -1.1781,-1.1934 -1.1453,-2.1704 0.0149,-0.4507 0.1656,-0.8918 0.5313,-0.9839 0.48,-0.1188 0.9554,0.207 1.1894,0.5742 z m 1.8418,1.598 c 0.0063,-1.8113 -1.0129,-3.375 -2.1711,-3.8519 -1.6332,-0.6703 -2.8801,0.5758 -2.9074,2.1738 -0.0227,1.15 0.4613,2.398 1.0238,3.0699 0.393,0.4711 0.9242,0.8692 1.7207,0.9852 1.5668,0.2179 2.3297,-1.016 2.334,-2.377 l 0,0"
         style="fill:#050301;fill-opacity:1;fill-rule:nonzero;stroke:none"
         id="path30"
         inkscape:connector-curvature="0" /><path
         d="m 32.4199,73.9629 c 0.1324,-0.6988 -0.5105,-1.252 -1.148,-1.2277 -0.3078,0.0089 -0.7547,0.2339 -0.8188,0.5718 -0.1277,0.6598 0.3391,1.1168 0.9821,1.1891 0.4984,0.0527 0.9078,-0.1359 0.9847,-0.5332"
         style="fill:#050301;fill-opacity:1;fill-rule:nonzero;stroke:none"
         id="path32"
         inkscape:connector-curvature="0" /><path
         d="m 31.3941,62.123 c 0.0555,-0.125 0.0555,-0.3261 0,-0.4511 -0.0914,-0.0879 -0.1968,0.0429 -0.3683,0 -0.3621,-0.3867 -0.1055,-1.7481 0.0832,-2.2539 -0.211,-0.1032 -0.3949,-0.2321 -0.6559,-0.2852 -0.3719,0.5981 -0.0722,1.8461 -0.2461,2.5391 -0.1547,0.0312 -0.1965,-0.0489 -0.3285,-0.041 -0.0062,0.1972 -0.0086,0.3929 0.0828,0.4921 0.068,0.0688 0.2399,0.0321 0.3672,0.0411 0.0453,0.1211 0.0938,0.2347 0.0836,0.4089 0.1715,0.1461 0.3738,0.2551 0.6969,0.2481 0.0262,-0.2742 -0.1371,-0.3563 -0.1246,-0.616 0.0582,-0.1071 0.3496,0.0199 0.4097,-0.0821 l 0,0"
         style="fill:#050301;fill-opacity:1;fill-rule:nonzero;stroke:none"
         id="path34"
         inkscape:connector-curvature="0" /><path
         d="m 29.7148,63.1059 c 0.0872,-0.1368 -0.041,-0.35 -0.041,-0.5329 -0.2011,-0.057 -0.4734,-0.0429 -0.4093,-0.3679 0.0578,-0.1071 0.3472,0.0199 0.4093,-0.0821 0.0762,-0.0902 0.0289,-0.3 0.041,-0.4511 -0.105,-0.1008 -0.2007,0.039 -0.3675,0 -0.2532,-0.1989 -0.1848,-0.6481 -0.1641,-0.9821 0.0273,-0.5039 0.1391,-1.057 0.1641,-1.4769 -0.2461,0 -0.4926,0 -0.7387,0 -0.1551,0.7441 -0.0039,1.6762 -0.0805,2.418 -0.1035,0.098 -0.2422,0 -0.3699,0 -0.0043,0.1679 -0.0082,0.3359 0.0414,0.4511 0.0723,0.0918 0.2481,0.0801 0.3672,0.1231 0.0891,0.5687 0.3996,1.1269 1.148,0.9008"
         style="fill:#050301;fill-opacity:1;fill-rule:nonzero;stroke:none"
         id="path36"
         inkscape:connector-curvature="0" /><path
         d="m 28.6918,67.5301 c 0.0305,-0.3789 0.0887,-0.8172 0,-1.1449 -0.627,-0.2153 -1.466,-0.125 -2.2953,-0.125 -0.7957,0 -1.6422,-0.0614 -2.2934,0.0839 -0.2398,0.6598 0.0457,1.3887 0.1629,2.0879 0.2324,1.3711 0.6164,2.6348 1.0238,3.9321 0.2036,0.6398 0.4547,1.3609 0.7379,1.7609 0.3028,0.1121 1.6032,0.1961 1.8844,-0.0801 -0.0582,-0.5578 -0.4078,-0.998 -0.6559,-1.4758 -0.482,-0.9281 -0.8785,-1.8421 -1.1453,-3.073 -0.1132,-0.5172 -0.3019,-1.2402 0.1629,-1.6793 1.0387,-0.2816 1.4684,0.6012 2.1305,0.6973 0.293,-0.1371 0.2539,-0.5961 0.2875,-0.984 l 0,0"
         style="fill:#050301;fill-opacity:1;fill-rule:nonzero;stroke:none"
         id="path38"
         inkscape:connector-curvature="0" /><path
         d="m 27.1344,59.7871 c 0.0886,0.1758 0.1941,0.8149 -0.0824,0.8617 -0.7239,0.1891 -0.811,-1.1777 0.0824,-0.8617 z m 0.0828,2.377 c 0.864,-0.3551 0.5023,-1.8629 0.6555,-2.8672 -1.0313,-0.377 -2.5954,0.1269 -1.927,1.2699 0.0477,0.0781 0.2355,0.2594 0.3281,0.3281 0.2797,0.1949 0.718,0.1602 0.902,0.4082 -0.0574,0.3047 -0.302,0.416 -0.575,0.3688 -0.2832,-0.0508 -0.2477,-0.293 -0.4504,-0.3688 -0.7387,0.561 0.3637,1.15 1.0668,0.861 l 0,0"
         style="fill:#050301;fill-opacity:1;fill-rule:nonzero;stroke:none"
         id="path40"
         inkscape:connector-curvature="0" /><path
         d="m 24.9633,62.2051 c 0.757,-0.2891 0.4051,-2.1403 0.3265,-2.9512 -0.1589,-0.0859 -0.4691,-0.0187 -0.6945,-0.041 0.0192,0.6039 0.4735,1.8633 0,2.459 -0.984,0.0062 -0.525,-1.6867 -0.4922,-2.418 -0.159,-0.0859 -0.4715,-0.0187 -0.6969,-0.041 -0.0183,1.2402 -0.2046,2.9902 0.2051,3.934 0.1918,0 0.3825,0 0.5727,0 0.041,-0.3051 -0.1824,-0.6528 -0.1637,-1.0649 0.3559,-0.0351 0.5856,0.2621 0.943,0.1231 l 0,0"
         style="fill:#050301;fill-opacity:1;fill-rule:nonzero;stroke:none"
         id="path42"
         inkscape:connector-curvature="0" /><path
         d="m 22.9145,60.2801 c 0.0765,-0.6821 -0.2211,-1.086 -0.7364,-1.1473 -1.7699,-0.209 -1.5359,3.0742 0,3.1113 0.341,0.0118 0.4883,-0.0703 0.7364,-0.3261 0.0351,-0.2809 -0.0559,-0.4328 -0.1633,-0.5739 -0.3203,0.07 -0.1965,0.2887 -0.4922,0.3278 -0.9266,0.125 -1.011,-2.0289 0.1242,-1.8028 0.1219,0.0258 0.252,0.1309 0.327,0.2047 0.0511,0.0512 0.0472,0.2821 0.2043,0.2063 l 0,0"
         style="fill:#050301;fill-opacity:1;fill-rule:nonzero;stroke:none"
         id="path44"
         inkscape:connector-curvature="0" /><path
         d="m 20.6215,60.116 c 0.0789,-1.4422 -2.636,-1.2269 -1.925,0.3281 0.157,-0.1742 0.1984,-0.4871 0.4898,-0.614 0.3059,-0.136 0.7199,-0.0801 0.7383,0.2437 0.027,0.4871 -1.1805,0.4871 -1.2281,1.0262 -0.2735,1.2441 1.3578,1.4102 1.8418,0.7359 -0.0457,-0.2257 -0.1754,-0.3711 -0.3266,-0.4918 -0.1844,-0.0101 -0.2293,0.2829 -0.4504,0.3278 -0.1797,0.0371 -0.3824,0.0199 -0.4922,-0.1641 0.1778,-0.541 0.8493,-0.5 1.1473,-0.859 0.0895,-0.1097 0.1926,-0.3297 0.2051,-0.5328"
         style="fill:#050301;fill-opacity:1;fill-rule:nonzero;stroke:none"
         id="path46"
         inkscape:connector-curvature="0" /><path
         d="m 17.4246,62.2441 c 1.0461,-0.0293 0.7156,-2.132 0.5742,-3.0312 -0.2308,0 -0.4644,0 -0.6961,0 0.0121,0.4101 0.1668,0.7441 0.2047,1.2312 0.0324,0.4329 0.0762,1.127 -0.2047,1.2278 -0.7199,0.2601 -0.6078,-1.2789 -0.5726,-1.8028 0.0117,-0.1929 0.0722,-0.416 0.0801,-0.6152 -0.1586,-0.0859 -0.4707,-0.0187 -0.6965,-0.041 -0.027,1.2519 -0.1844,2.9652 0.207,3.934 0.1984,-0.0199 0.4797,0.0429 0.6141,-0.041 -0.066,-0.3438 -0.2086,-0.6118 -0.1653,-1.0649 0.3344,0.0219 0.3532,0.2149 0.6551,0.2031 l 0,0"
         style="fill:#050301;fill-opacity:1;fill-rule:nonzero;stroke:none"
         id="path48"
         inkscape:connector-curvature="0" /><path
         d="m 13.9031,68.3891 c 0.5321,0.5777 1.0403,2.957 -0.3285,2.7871 -1.0297,-0.1274 -1.6273,-2.4262 -0.7363,-3.1133 0.1906,0 0.3808,0 0.5726,0 0.1496,0.1332 0.3625,0.1851 0.4922,0.3262 l 0,0 z m 1.9664,1.8461 c 0.0106,-1.2973 -0.5172,-2.6161 -1.3109,-3.3192 -0.6637,-0.5859 -1.6371,-0.9199 -2.4996,-0.5308 -0.459,0.2027 -0.786,0.6468 -0.943,1.0218 -0.8,1.927 0.5973,4.361 1.7223,4.916 0.234,0.1168 0.5875,0.2008 1.0648,0.2071 1.2594,0.0109 1.9543,-0.9129 1.9664,-2.2949"
         style="fill:#050301;fill-opacity:1;fill-rule:nonzero;stroke:none"
         id="path50"
         inkscape:connector-curvature="0" /><path
         d="m 15.6238,60.2801 c 0.2977,-1.2449 -1.2054,-1.4563 -1.7207,-0.7391 -0.5972,0.8301 -0.1238,2.3399 0.5731,2.6231 0.682,0.28 1.6269,-0.259 0.9422,-0.82 -0.2246,0.102 -0.1547,0.277 -0.3696,0.3278 -0.9761,0.2351 -1.114,-2.0231 0.041,-1.8028 0.1473,0.0297 0.2422,0.118 0.3286,0.2047 0.0504,0.0512 0.0683,0.2453 0.2054,0.2063 l 0,0"
         style="fill:#050301;fill-opacity:1;fill-rule:nonzero;stroke:none"
         id="path52"
         inkscape:connector-curvature="0" /><path
         d="m 12.6316,59.8691 c -0.0203,0.252 0.0477,0.5938 -0.0386,0.7797 -0.4059,0.1114 -0.8004,-0.2386 -0.6969,-0.616 0.0656,-0.2418 0.498,-0.3976 0.7355,-0.1637 z m 0.2461,2.1719 c 0.6285,-0.4898 0.2422,-1.8711 0.4094,-2.7871 -0.9691,-0.125 -2.0055,-0.0801 -2.0469,0.7383 -0.0129,0.2406 0.0973,0.5098 0.2047,0.6566 0.2524,0.3434 0.7629,0.3832 1.1481,0.6153 0.0121,0.3519 -0.3047,0.4629 -0.5754,0.4078 -0.2774,-0.0559 -0.2293,-0.275 -0.4098,-0.3688 -0.1758,0.0348 -0.2621,0.1457 -0.2871,0.2481 -0.182,0.7578 1.127,0.8277 1.557,0.4898 l 0,0"
         style="fill:#050301;fill-opacity:1;fill-rule:nonzero;stroke:none"
         id="path54"
         inkscape:connector-curvature="0" /><path
         d="M 11.1988,63.0238 C 11.1387,62.7289 10.998,62.5141 10.8723,62.2871 10.318,62.7641 9.15,62.366 9.6,61.5078 c 0.4309,0.0223 0.6184,0.2852 1.148,0.2051 0.0125,-0.3551 -0.1527,-0.5289 -0.2046,-0.818 -0.2895,0.027 -0.4051,0.1031 -0.61488,0.0391 -0.62344,-0.182 -0.29727,-1.1469 -0.20391,-1.7211 -0.27305,0 -0.54649,0 -0.81875,0 -0.19297,1.0723 -0.22109,2.8461 0.08047,3.8109 0.73047,-0.0058 1.61287,0.009 2.21247,0 l 0,0"
         style="fill:#050301;fill-opacity:1;fill-rule:nonzero;stroke:none"
         id="path56"
         inkscape:connector-curvature="0" /><path
         d="m 7.87969,69.9891 c 0.38945,0.1269 2.06211,0.4179 1.59883,1.023 -0.49649,0.65 -1.71641,-0.4769 -1.59883,-1.023 z M 10.9117,71.707 C 11.3148,70.7328 10.6426,69.7441 10.0102,69.373 9.67695,69.1781 9.28828,69.0961 8.73984,68.9238 8.46602,68.8359 7.68164,68.6 7.67539,68.268 7.66328,67.5961 9.01758,67.7352 9.43711,67.9809 9.65,68.1078 9.80312,68.2641 9.92852,68.432 10.0531,68.6 10.0453,68.852 10.3805,68.8828 10.7027,68.459 10.5039,67.8789 10.3391,67.5301 9.85938,66.516 7.87969,65.6289 6.73438,66.6699 6.37109,67 6.16406,67.5609 6.11875,67.9809 c -0.22578,2.0839 1.18047,4.566 3.19609,4.5492 0.80856,-0.0082 1.39416,-0.327 1.59686,-0.8231 l 0,0"
         style="fill:#050301;fill-opacity:1;fill-rule:nonzero;stroke:none"
         id="path58"
         inkscape:connector-curvature="0" /><path
         d="m 6.48828,73.225 c 0.17227,-0.9398 -0.56836,-1.4809 -1.43516,-1.35 -0.13398,0.1512 -0.04335,0.5301 -0.1625,0.6941 -0.39765,0.1868 -0.85624,0.1047 -1.18906,-0.039 -0.9164,-0.4051 -1.70195,-2.077 -1.6375,-3.3192 0.01836,-0.3898 0.1875,-0.8418 0.49219,-0.9839 0.73789,-0.3461 1.70703,0.1308 1.67852,0.7789 -0.01211,0.2543 -0.14063,0.3281 -0.2461,0.4511 -0.07851,0.0879 -0.31172,0.2008 -0.28711,0.409 0.02656,0.2078 0.57813,0.4141 0.90156,0.5328 0.41329,0.15 0.70313,0.2184 1.10586,0.2871 0.21719,-0.455 0.14258,-0.975 0.12422,-1.475 C 5.81445,68.7191 5.80625,68.1469 5.66797,67.7352 5.35586,66.8051 4.29102,66.2309 3.00625,66.2191 c -1.71133,-0.014 -2.712891,0.9571 -2.744922,2.6207 -0.02539,1.2891 0.445703,2.5821 1.105862,3.5243 0.61992,0.8859 1.52187,1.75 2.74609,1.8859 1.01914,0.1141 2.22656,-0.2129 2.375,-1.025 l 0,0"
         style="fill:#050301;fill-opacity:1;fill-rule:nonzero;stroke:none"
         id="path60"
         inkscape:connector-curvature="0" /></g><path
       inkscape:connector-curvature="0"
       id="path62"
       style="fill:#050301;fill-opacity:1;fill-rule:nonzero;stroke:none"
       d="m 17.3434,35.0078 6.3375,0 0,-6.4297 -6.3375,0 0,6.4297 z m 6.3375,-11.1367 0,-18.04493 -6.3348,0 c 0,0 0.0039,1.73281 0,2.59766 C 16.941,7.91211 16.4125,7.51602 15.9199,7.0918 14.4301,5.88281 12.5715,5.17812 10.6738,4.95898 10.023,4.85391 9.35664,4.91992 8.70898,4.78281 11.2113,3.28711 14.016,2.29883 16.9105,1.93203 17.718,1.82305 18.5328,1.77812 19.3461,1.74805 l 0.6203,0 c 2.9594,0.05507 5.9102,0.70507 8.5977,1.95 3.8632,1.775 7.1609,4.74804 9.3398,8.39995 0.4832,0.8379 0.9695,1.6872 1.2957,2.6008 -5.1738,2.9692 -15.5187,9.1723 -15.5187,9.1723 z M 19.3461,44.268 C 15.4988,44.198 11.6703,43.0961 8.41211,41.041 7.74531,40.6078 7.06133,40.182 6.47695,39.6391 c 0.61446,0.0449 1.22774,0.098 1.84141,0.148 2.02964,0.0668 4.07114,-0.125 6.03864,-0.6359 4e-4,-2.2293 0.0219,-4.4571 -0.0117,-6.6844 -0.5465,0.2641 -1.0469,0.6211 -1.6219,0.8262 -1.0796,0.3929 -2.2351,0.582 -3.38356,0.5429 C 7.83555,33.891 6.3043,33.5801 4.97227,32.8691 3.38516,32.0352 2.13633,30.6328 1.36172,29.0238 0.457031,27.266 0.111328,25.2801 0.0046875,23.323 0.0210938,22.4852 -0.04375,21.6391 0.0671875,20.8031 0.185156,19.4121 0.509766,18.0352 1.03438,16.7422 1.94141,14.6578 3.4332,12.7441 5.49414,11.709 c 1.20742,-0.6309 2.57383,-0.8961 3.92422,-0.9371 2.22694,0.1211 4.41284,0.9859 6.09764,2.4511 0.7121,0.6801 1.2613,1.518 1.6692,2.4098 0.1043,0.2211 0.1632,0.459 0.1582,0.7031 0.0039,0.5743 -0.0028,1.1493 -0.0051,1.725 -2.3774,0.0121 -4.7531,-0.0019 -7.1313,0.0082 -0.0054,1.9329 -0.0054,3.8649 0,5.7969 4.42,0.007 13.4739,0.0051 13.4739,0.0051 0,0 8.3789,4.8027 11.8656,6.8207 1.0387,0.6113 2.0973,1.1891 3.1219,1.8223 -1.7774,3.5961 -4.6196,6.6437 -8.0508,8.7129 -3.1957,1.941 -6.9172,2.9761 -10.6512,3.041 l -0.6203,0" /><text
       y="-117.457"
       x="56.623402"
       transform="scale(1,-1)"
       id="text66"
       style="line-height:0%;font-family:'Cabin Condensed';-inkscape-font-specification:'Cabin Condensed'"><tspan
         style="font-style:italic;font-variant:normal;font-size:8px;line-height:1.25;font-family:'Cabin Condensed';-inkscape-font-specification:'Cabin Condensed';writing-mode:lr-tb;fill:#231f20;fill-opacity:1;fill-rule:nonzero;stroke:none"
         x="56.623402 62.207401 65.711403 68.054306 71.806305 75.558304 78.390305 81.687119 85.191116 88.943115 92.447113 95.273048"
         y="-117.457"
         sodipodi:role="line"
         id="tspan68">Herausgeber:</tspan></text>
<path
       inkscape:connector-curvature="0"
       id="path98"
       style="fill:#000000;fill-opacity:1;fill-rule:nonzero;stroke:none"
       d="m 150.125,374.636 -1.855,-7.61 0.485,-0.205 c 0.584,-0.243 1.561,-0.65 3.029,-1.348 1.522,-0.709 2.864,-1.377 4.103,-2.04 43.096,-22.503 60.923,-74.6 40.588,-118.604 -7.405,-16.003 -19.2,-29.384 -34.111,-38.696 -14.528,-9.074 -31.262,-13.87 -48.397,-13.87 -0.001,0 0,0 0,0 -11.592,0 -22.9604,2.187 -33.8072,6.512 l -2.6672,-6.251 c 11.6426,-4.625 23.8644,-6.967 36.3284,-6.969 0.003,0 0.004,0 0.007,0 38.154,0.002 73.111,22.279 89.052,56.76 10.986,23.751 12.018,50.382 2.913,74.985 -9.11,24.607 -27.272,44.238 -51.152,55.28 -0.011,0.005 -1.046,0.52 -4.516,2.056 l 0,0 z M 113.828,184.998 c -0.001,0 -0.005,0 -0.007,0 -12.588,0.002 -24.9308,2.379 -36.6855,7.069 l -0.3765,0.153 3.1148,7.305 0.3852,-0.192 c 10.7996,-4.321 22.14,-6.513 33.708,-6.513 35.132,0 67.319,20.505 82.002,52.243 20.211,43.734 2.492,95.512 -40.34,117.878 -1.234,0.659 -2.567,1.323 -4.081,2.029 -1.459,0.693 -2.428,1.096 -3.006,1.338 l -0.522,0.219 c -0.095,0.04 -0.164,0.069 -0.199,0.087 l -0.199,0.098 2.12,8.701 0.303,-0.133 c 3.732,-1.649 4.801,-2.181 4.837,-2.199 24.007,-11.101 42.273,-30.842 51.431,-55.588 9.16,-24.743 8.12,-51.525 -2.927,-75.413 -8.033,-17.375 -20.836,-31.906 -37.023,-42.02 -15.772,-9.853 -33.937,-15.062 -52.535,-15.062 l 0,0" /><path
       inkscape:connector-curvature="0"
       id="path100"
       style="fill:#000000;fill-opacity:1;fill-rule:nonzero;stroke:none"
       d="m 111.068,139.375 c 38.15,0.127 47.722,6.364 49.747,8.272 0.226,0.211 0.384,0.537 0.381,0.845 l -0.022,4.047 c -0.004,0.614 -0.503,1.108 -1.113,1.108 -0.003,0 -0.004,0 -0.007,0 -0.615,-0.004 -1.11,-0.506 -1.108,-1.119 l 0.022,-3.534 c -2.234,-1.763 -12.059,-7.273 -47.903,-7.394 l -0.066,0 c -36.1142,0.121 -45.8142,5.572 -47.9525,7.262 l -0.0215,3.564 c -0.0039,0.611 -0.5016,1.106 -1.1133,1.106 -0.0015,0 -0.0039,0 -0.0062,0 -0.6149,-0.004 -1.1102,-0.506 -1.1063,-1.122 l 0.0246,-4.068 c 0.0024,-0.305 0.1293,-0.596 0.3524,-0.805 2.0125,-1.894 11.4984,-8.035 49.8198,-8.162 l 0.072,0 0,0" /><path
       inkscape:connector-curvature="0"
       id="path102"
       style="fill:#000000;fill-opacity:1;fill-rule:nonzero;stroke:none"
       d="m 116.037,180.041 0,0.145 c 0,0.019 -0.001,0.033 -0.003,0.049 l -0.513,0.402 c -1.459,-0.471 -3.233,-0.588 -4.241,-0.615 -0.046,-0.002 -0.089,0 -0.134,0.006 -0.042,-0.006 -0.088,-0.008 -0.131,-0.006 -1.217,0.031 -2.869,0.168 -4.259,0.615 l -0.515,-0.402 c -0.001,-0.016 -0.001,-0.03 -0.001,-0.049 l 0,-0.176 c 1.052,-0.312 3.015,-0.705 4.677,-0.676 1.649,0.018 3.985,0.422 5.12,0.707 l 0,0 z m -5.237,-2.933 c -2.288,0 -4.92,0.595 -5.968,1.035 -0.027,0.012 -0.051,0.023 -0.076,0.035 l -0.137,0.07 c -0.372,0.19 -0.606,0.573 -0.606,0.991 l 0,0.947 c 0,1.012 0.471,1.504 0.705,1.683 l 1.156,0.905 c 0.32,0.25 0.751,0.306 1.123,0.146 0.91,-0.39 2.358,-0.629 4.076,-0.672 0.025,-0.002 0.05,-0.004 0.073,-0.006 0.026,0.002 0.051,0.004 0.077,0.006 1.698,0.043 3.173,0.287 4.047,0.668 0.373,0.164 0.807,0.11 1.13,-0.142 l 1.158,-0.905 c 0.232,-0.177 0.704,-0.671 0.704,-1.683 l 0,-0.947 c 0,-0.416 -0.232,-0.797 -0.603,-0.991 -0.971,-0.5 -4.613,-1.117 -6.718,-1.14 -0.047,0 -0.094,0 -0.141,0 l 0,0" /><path
       inkscape:connector-curvature="0"
       id="path104"
       style="fill:#000000;fill-opacity:1;fill-rule:nonzero;stroke:none"
       d="m 129.725,160.948 c 0.124,0 0.249,0.019 0.374,0.062 0.365,0.131 0.671,0.299 0.916,0.434 l 0.097,0.052 c 0.38,0.188 0.641,0.61 0.652,1.088 0.025,0.817 -0.726,2.071 -1.681,2.418 -1.58,0.662 -4.605,1.369 -5.924,1.664 -0.985,2.908 -3.654,9.287 -6.071,13.1 -0.327,0.519 -1.015,0.672 -1.536,0.344 -0.518,-0.328 -0.673,-1.018 -0.343,-1.536 2.555,-4.029 5.381,-11.068 6.023,-13.183 0.12,-0.391 0.44,-0.684 0.837,-0.768 0.041,-0.007 4.11,-0.865 6.049,-1.631 -0.422,-0.273 -0.617,-0.81 -0.441,-1.304 0.162,-0.455 0.591,-0.74 1.048,-0.74 l 0,0" /><path
       inkscape:connector-curvature="0"
       id="path106"
       style="fill:#000000;fill-opacity:1;fill-rule:nonzero;stroke:none"
       d="m 127.644,160.182 c 0.1,0 0.202,0.014 0.303,0.043 0.203,0.057 0.407,0.117 0.628,0.215 0.563,0.244 0.821,0.898 0.575,1.463 -0.243,0.562 -0.901,0.822 -1.463,0.578 -0.115,-0.051 -0.229,-0.08 -0.343,-0.114 -0.593,-0.166 -0.938,-0.781 -0.771,-1.373 0.138,-0.492 0.584,-0.812 1.071,-0.812 l 0,0" /><path
       inkscape:connector-curvature="0"
       id="path108"
       style="fill:#000000;fill-opacity:1;fill-rule:nonzero;stroke:none"
       d="m 125.541,159.629 -0.23,1.09 0.237,-1.088 c 0.45,0.096 0.914,0.193 1.346,0.32 0.59,0.172 0.927,0.791 0.755,1.381 -0.172,0.59 -0.793,0.928 -1.38,0.754 -0.35,-0.101 -0.753,-0.187 -1.181,-0.275 l 0.453,-2.182 0,0" /><path
       inkscape:connector-curvature="0"
       id="path110"
       style="fill:#000000;fill-opacity:1;fill-rule:nonzero;stroke:none"
       d="m 112.709,158.334 c 0.009,0 0.017,0 0.024,0 4.571,0.1 8.752,0.498 12.097,1.155 0.603,0.119 0.994,0.703 0.878,1.306 -0.119,0.604 -0.702,0.996 -1.308,0.879 -3.219,-0.635 -7.272,-1.019 -11.715,-1.113 -0.614,-0.014 -1.102,-0.522 -1.088,-1.137 0.014,-0.607 0.509,-1.09 1.112,-1.09 l 0,0" /><path
       inkscape:connector-curvature="0"
       id="path112"
       style="fill:#000000;fill-opacity:1;fill-rule:nonzero;stroke:none"
       d="m 110.583,158.319 c 0.557,0 1.14,0.005 1.752,0.015 0.614,0.01 1.104,0.518 1.094,1.131 -0.01,0.615 -0.505,1.121 -1.131,1.096 -1.55,-0.026 -2.901,-0.02 -4.131,0.021 -0.616,0.028 -1.129,-0.461 -1.149,-1.076 -0.02,-0.615 0.462,-1.129 1.077,-1.148 0.778,-0.026 1.602,-0.039 2.488,-0.039 l 0,0" /><path
       inkscape:connector-curvature="0"
       id="path114"
       style="fill:#000000;fill-opacity:1;fill-rule:nonzero;stroke:none"
       d="m 106.605,158.426 c 0.593,0 1.086,0.467 1.111,1.066 0.027,0.616 -0.449,1.133 -1.064,1.161 -2.81,0.117 -5.336,0.355 -7.5012,0.701 -0.5988,0.099 -1.1774,-0.317 -1.2746,-0.924 -0.0965,-0.606 0.3164,-1.178 0.9242,-1.273 2.2496,-0.362 4.8596,-0.606 7.7566,-0.729 0.017,0 0.032,-0.002 0.048,-0.002 l 0,0" /><path
       inkscape:connector-curvature="0"
       id="path116"
       style="fill:#000000;fill-opacity:1;fill-rule:nonzero;stroke:none"
       d="m 97.4055,159.422 c 0.5203,0 0.9847,0.367 1.0902,0.897 0.1195,0.603 -0.273,1.187 -0.8762,1.306 -1.9152,0.379 -3.4547,0.821 -4.5918,1.319 1.9172,0.755 6.0407,1.621 6.0828,1.63 0.3985,0.084 0.7196,0.377 0.8375,0.766 0.644,2.119 3.469,9.16 6.024,13.188 0.33,0.517 0.176,1.205 -0.343,1.535 -0.518,0.328 -1.206,0.176 -1.536,-0.344 -2.417,-3.811 -5.0856,-10.191 -6.0719,-13.102 -1.3195,-0.293 -4.3563,-1.003 -5.9938,-1.681 -0.8648,-0.344 -1.5765,-1.481 -1.625,-2.266 -0.0316,-0.525 0.2071,-0.98 0.6387,-1.215 1.3531,-0.793 3.4301,-1.476 6.1469,-2.013 0.0723,-0.014 0.1461,-0.02 0.2176,-0.02 l 0,0" /><path
       inkscape:connector-curvature="0"
       id="path118"
       style="fill:#000000;fill-opacity:1;fill-rule:nonzero;stroke:none"
       d="m 158.756,152.672 c -3.832,2.983 -21.798,7.514 -27.841,8.754 -0.18,-0.111 -0.406,-0.234 -0.689,-0.359 -0.448,-0.227 -1.027,-0.448 -1.717,-0.657 -0.196,-0.08 -0.378,-0.134 -0.559,-0.183 l -0.193,-0.057 c -0.277,-0.084 -0.591,-0.176 -0.952,-0.24 l -0.336,-0.08 c -0.28,-0.065 -0.573,-0.133 -0.921,-0.219 -0.223,-0.049 -0.467,-0.098 -0.727,-0.144 -3.168,-0.598 -7.23,-0.987 -12.111,-1.153 l -0.397,-0.002 c -0.369,-0.019 -0.737,-0.039 -1.105,-0.043 -0.084,-0.017 -0.171,-0.031 -0.257,-0.023 -0.99,0.021 -1.958,0.047 -2.869,0.092 -0.531,0.023 -1.044,0.047 -1.534,0.07 -2.654,0.137 -5.181,0.373 -7.755,0.729 -0.5657,0.093 -1.1035,0.191 -1.5899,0.283 -3.5492,0.648 -5.2597,1.406 -6.0328,1.873 -5.5527,-1.135 -23.9965,-5.569 -27.9691,-8.653 1.955,-1.634 11.2773,-7.207 47.5268,-7.359 0.071,0.016 0.144,0.022 0.219,0.022 36.358,0.123 45.781,5.668 47.809,7.349 l 0,0 z m -47.735,-9.599 c -0.001,0 -0.002,0 -0.004,0 -38.3486,0.13 -47.6795,6.328 -49.6514,8.251 -0.3656,0.356 -0.5664,0.821 -0.5664,1.303 0,0.975 0.8203,1.629 0.9418,1.717 4.5555,3.715 25.75,8.518 29.4598,9.246 0.3633,0.07 0.6996,-0.004 0.9625,-0.267 0.0101,-0.008 1.1328,-0.907 5.4488,-1.696 0.4774,-0.09 0.9992,-0.183 1.5156,-0.269 2.4803,-0.342 4.9453,-0.573 7.5293,-0.705 0.483,-0.024 0.993,-0.049 1.531,-0.071 0.828,-0.041 1.707,-0.066 2.609,-0.086 0.066,0.01 0.134,0.018 0.202,0.018 0.399,0 0.797,0.021 1.199,0.041 l 0.061,0.004 c 0.019,0.002 0.038,0.002 0.058,0.002 l 0.355,0 c 4.731,0.16 8.679,0.537 11.747,1.115 0.24,0.043 0.457,0.088 0.621,0.123 0.33,0.082 0.636,0.152 0.927,0.221 l 0.359,0.082 c 0.021,0.004 0.041,0.01 0.061,0.014 0.25,0.042 0.487,0.113 0.738,0.187 l 0.219,0.064 c 0.114,0.034 0.228,0.063 0.343,0.114 0.04,0.015 0.083,0.031 0.125,0.045 0.739,0.22 1.176,0.41 1.456,0.548 0.337,0.153 0.513,0.268 0.579,0.317 0.25,0.336 0.598,0.4 1.019,0.314 3.081,-0.605 24.56,-5.5 29.343,-9.343 0.513,-0.385 1.044,-1.108 0.937,-1.938 -0.029,-0.391 -0.219,-0.762 -0.587,-1.125 -1.94,-1.889 -11.22,-8.041 -49.303,-8.201 -0.076,-0.016 -0.155,-0.025 -0.235,-0.025 l 0,0" /><path
       inkscape:connector-curvature="0"
       id="path120"
       style="fill:#000000;fill-opacity:1;fill-rule:nonzero;stroke:none"
       d="m 113.594,365.806 c -31.8229,0 -61.0706,-18.538 -74.496,-47.195 -0.0445,-0.104 -0.0953,-0.206 -0.1472,-0.309 -0.0305,-0.061 -0.0613,-0.122 -0.0977,-0.204 -18.3066,-39.727 -2.2011,-86.842 36.6719,-107.267 1.2477,-0.667 2.5273,-1.3 3.9262,-1.94 1.3281,-0.629 2.7207,-1.203 3.9383,-1.706 9.8429,-3.944 20.1795,-5.944 30.7225,-5.944 31.875,0 61.151,18.575 74.593,47.349 0.027,0.054 0.051,0.105 0.073,0.155 0.036,0.077 0.07,0.154 0.097,0.205 18.235,39.557 2.272,86.592 -36.362,107.091 -1.358,0.756 -2.745,1.454 -4.241,2.131 -1.134,0.513 -2.31,1.043 -3.521,1.51 -9.971,4.064 -20.454,6.124 -31.157,6.124 l 0,0 z m 0.518,-166.79 c -10.828,0 -21.4436,2.052 -31.56,6.108 -1.2536,0.516 -2.6754,1.101 -4.0403,1.749 -1.4281,0.652 -2.7496,1.306 -4.0308,1.993 -39.9141,20.971 -56.452,69.36 -37.6579,110.143 0.0418,0.097 0.0903,0.194 0.1383,0.291 0.0321,0.063 0.0637,0.126 0.1055,0.222 6.9215,14.772 17.8824,27.122 31.7012,35.712 13.4699,8.373 28.9699,12.798 44.826,12.798 10.992,0 21.758,-2.115 31.977,-6.281 1.249,-0.481 2.453,-1.025 3.618,-1.551 1.554,-0.704 2.997,-1.428 4.387,-2.204 39.658,-21.042 56.051,-69.349 37.305,-110.009 -0.028,-0.055 -0.051,-0.105 -0.073,-0.156 -0.035,-0.078 -0.07,-0.154 -0.097,-0.211 -6.916,-14.798 -17.882,-27.171 -31.716,-35.78 -13.483,-8.39 -29.004,-12.824 -44.883,-12.824 l 0,0" /><path
       inkscape:connector-curvature="0"
       id="path122"
       style="fill:#000000;fill-opacity:1;fill-rule:nonzero;stroke:none"
       d="m 76.9883,190.911 c 0.4508,0 0.8633,0.273 1.0336,0.701 l 0.1383,0.347 5.7027,13.409 c 0.2402,0.567 -0.0238,1.219 -0.5891,1.459 -0.5664,0.241 -1.2203,-0.024 -1.4597,-0.589 l -5.5227,-12.984 c -2.7309,0.441 -4.1242,1.06 -6.1191,2.714 l 5.5949,12.955 c 0.2433,0.564 -0.0168,1.219 -0.5801,1.463 -0.5664,0.243 -1.2203,-0.017 -1.4641,-0.581 l -5.9199,-13.708 c -0.1914,-0.444 -0.0746,-0.961 0.2887,-1.278 2.8598,-2.508 4.7402,-3.345 8.7434,-3.898 0.0515,-0.007 0.1023,-0.01 0.1531,-0.01 l 0,0" /><path
       id="path124"
       style="fill:#000000;fill-opacity:1;fill-rule:nonzero;stroke:none"
       d="m 61.7262,320.163 0,0 c 21.1566,0 44.1598,-5.337 65.9958,-15.587 14.593,-6.852 27.85,-15.653 38.336,-25.454 11.204,-10.475 19.003,-21.687 23.181,-33.326 0.208,-0.578 -0.093,-1.216 -0.672,-1.424 -0.578,-0.208 -1.215,0.093 -1.424,0.672 -7.886,21.973 -30.454,43.474 -60.367,57.517 -30.4678,14.301 -63.1783,18.909 -89.7463,12.641 -0.6,-0.14 -1.1969,0.228 -1.3395,0.827 -0.1406,0.599 0.2301,1.198 0.8286,1.339 7.9417,1.873 16.4132,2.795 25.2074,2.795" /><path
       inkscape:connector-curvature="0"
       id="path126"
       style="fill:#000000;fill-opacity:1;fill-rule:nonzero;stroke:none"
       d="m 113.868,184.145 c 37.726,-0.002 73.581,21.477 90.277,57.586 11.14,24.09 12.188,51.099 2.952,76.052 -9.238,24.954 -27.658,44.861 -51.865,56.056 -0.012,0.007 -1.099,0.547 -4.849,2.204 -0.302,0.132 -0.648,0.125 -0.943,-0.02 -0.294,-0.146 -0.51,-0.415 -0.588,-0.735 l -1.989,-8.162 c -0.124,-0.506 0.122,-1.031 0.59,-1.261 0.04,-0.021 0.127,-0.058 0.245,-0.108 l 0.136,-0.057 c 0.097,-0.043 0.229,-0.097 0.387,-0.163 0.572,-0.238 1.53,-0.637 2.968,-1.321 1.504,-0.702 2.825,-1.359 4.046,-2.012 42.445,-22.163 60,-73.462 39.975,-116.791 -19.959,-43.144 -70.316,-63.044 -114.6416,-45.305 -0.5723,0.23 -1.2188,-0.049 -1.4473,-0.62 -0.2285,-0.57 0.05,-1.218 0.6195,-1.446 45.4264,-18.178 97.0324,2.22 117.4904,46.437 20.523,44.409 2.533,96.985 -40.957,119.694 -1.247,0.666 -2.602,1.341 -4.135,2.057 -1.345,0.639 -2.285,1.037 -2.889,1.289 l 1.45,5.948 c 2.709,-1.208 3.559,-1.629 3.568,-1.634 23.7,-10.961 41.709,-30.424 50.741,-54.823 9.03,-24.393 8.005,-50.796 -2.886,-74.346 -21.661,-46.85 -76.335,-68.507 -124.4691,-49.306 -0.5727,0.226 -1.2187,-0.051 -1.4465,-0.621 -0.2285,-0.572 0.05,-1.219 0.6211,-1.447 12.1406,-4.842 24.6925,-7.145 37.0395,-7.145 l 0,0" /><path
       inkscape:connector-curvature="0"
       id="path128"
       style="fill:#000000;fill-opacity:1;fill-rule:nonzero;stroke:none"
       d="m 106.559,180.783 c 0.614,0 1.113,0.499 1.113,1.114 l 0,3.26 c 0,0.615 -0.499,1.115 -1.113,1.115 -0.615,0 -1.113,-0.5 -1.113,-1.115 l 0,-3.26 c 0,-0.615 0.498,-1.114 1.113,-1.114 l 0,0" /><path
       inkscape:connector-curvature="0"
       id="path130"
       style="fill:#000000;fill-opacity:1;fill-rule:nonzero;stroke:none"
       d="m 115.693,180.828 c 0.614,0 1.113,0.498 1.113,1.116 0,1.334 0.023,3.058 0.023,3.058 l -2.227,0.03 c 0,0 -0.023,-1.741 -0.023,-3.088 0,-0.618 0.498,-1.116 1.114,-1.116 l 0,0" /><path
       inkscape:connector-curvature="0"
       id="path132"
       style="fill:#000000;fill-opacity:1;fill-rule:nonzero;stroke:none"
       d="m 153.077,355.946 c 0.429,0 0.838,0.25 1.02,0.667 l 2.666,6.087 c 0.206,0.423 0.137,0.951 -0.214,1.294 -0.441,0.429 -1.134,0.433 -1.564,-0.006 l -0.141,-0.146 -0.104,-0.21 -2.681,-6.126 c -0.247,-0.563 0.009,-1.22 0.572,-1.466 0.145,-0.063 0.296,-0.094 0.446,-0.094 l 0,0" /><path
       inkscape:connector-curvature="0"
       id="path134"
       style="fill:#000000;fill-opacity:1;fill-rule:nonzero;stroke:none"
       d="m 145.17,359.599 c 0.421,0 0.823,0.24 1.011,0.648 l 2.774,6.012 c 0.257,0.557 0.013,1.218 -0.544,1.476 -0.557,0.258 -1.221,0.015 -1.476,-0.544 l -2.776,-6.011 c -0.257,-0.559 -0.013,-1.22 0.545,-1.478 0.15,-0.069 0.309,-0.103 0.466,-0.103 l 0,0" /><text
       xml:space="preserve"
       style="font-style:normal;font-weight:normal;font-size:16px;line-height:0%;font-family:'Cabin Condensed';-inkscape-font-specification:'Cabin Condensed';text-align:start;letter-spacing:0px;word-spacing:0px;text-anchor:start;fill:#000000;fill-opacity:1;stroke:none"
       id="text3395"
       x="54.818817"
       y="0"><textPath
         xlink:href="#path124"
         id="textPath3399"></textPath></text>
<g
       transform="translate(-7.2777776,-11.75641)"
       style="font-size:16px;font-style:normal;font-weight:normal;line-height:125%;letter-spacing:0px;word-spacing:0px;fill:#000000;fill-opacity:1;stroke:none;font-family:Cabin Condensed;-inkscape-font-specification:Cabin Condensed"
       id="text3452"><path
         inkscape:connector-curvature="0"
         d="m 56.959344,316.1733 c 0,0 -1.695724,0.0266 -1.695724,0.0266 0,0 -3.424075,11.25453 -3.424075,11.25453 0,0 1.567744,-0.0245 1.567744,-0.0245 0,0 2.731495,-9.49954 2.731495,-9.49954 0,0 2.995572,9.40987 2.995572,9.40987 0,0 1.551747,-0.0243 1.551747,-0.0243 0,0 -3.726759,-11.14257 -3.726759,-11.14257"
         id="path3457" /><path
         inkscape:connector-curvature="0"
         d="m 61.627411,325.701 c 0,0 0.02505,1.59974 0.02505,1.59974 0,0 1.439765,-0.0225 1.439765,-0.0225 0,0 -0.02505,-1.59974 -0.02505,-1.59974 0,0 -1.439766,0.0225 -1.439766,0.0225 m -0.15029,-9.59843 c 0,0 0.122737,7.83872 0.122737,7.83872 0,0 1.439766,-0.0225 1.439766,-0.0225 0,0 -0.122737,-7.83873 -0.122737,-7.83873 0,0 -1.439766,0.0226 -1.439766,0.0226"
         id="path3459" /><path
         inkscape:connector-curvature="0"
         d="m 65.790545,319.95286 c 0.01739,-0.54538 0.09227,-1.00265 0.224622,-1.37184 0.132844,-0.35853 0.295295,-0.65437 0.487352,-0.88752 0.203202,-0.22298 0.430684,-0.38303 0.682445,-0.48014 0.262411,-0.0976 0.532127,-0.15284 0.809156,-0.16569 0.308984,-0.0143 0.646339,0.007 1.01207,0.0651 0.376375,0.0573 0.638237,0.16059 0.948235,0.29734 0,0 0.04095,-1.14242 0.04095,-1.14242 -0.276465,-0.1179 -0.49501,-0.24029 -0.885006,-0.361 -0.378858,-0.11054 -0.813343,-0.15444 -1.303458,-0.13169 -0.607327,0.0282 -1.13512,0.15947 -1.583381,0.39382 -0.447772,0.24502 -0.713799,0.5533 -1.017236,0.93141 -0.303273,0.38878 -0.53097,0.83505 -0.683095,1.33881 -0.141461,0.50359 -0.207766,1.03801 -0.198915,1.60324 0.0085,0.54391 0.09127,1.05999 0.24826,1.54824 0.15699,0.48826 0.376967,0.91151 0.659935,1.26978 0.282964,0.35825 0.733157,0.63474 1.147932,0.82905 0.425425,0.1938 0.899181,0.2786 1.421269,0.25436 0.426186,-0.0198 0.81695,-0.1127 1.172295,-0.27865 0.355333,-0.16598 0.65443,-0.39342 0.897293,-0.68231 0.253504,-0.28939 0.517611,-0.66366 0.634772,-1.08983 0.117148,-0.42616 0.155788,-0.89981 0.115919,-1.42093 -0.009,-0.11699 -0.0236,-0.23889 -0.04403,-0.3657 -0.0204,-0.1268 -0.05185,-0.25811 -0.09433,-0.39393 0,0 -4.693061,0.24047 -4.693061,0.24047 m 1.967773,2.71157 c -0.511432,0.0237 -0.913078,-0.11779 -1.204936,-0.42457 -0.280714,-0.29662 -0.487698,-0.73015 -0.62095,-1.30056 0,0 3.212418,-0.14911 3.212418,-0.14911 0.02571,0.55405 -0.07121,0.99634 -0.290777,1.32686 -0.208424,0.34068 -0.573675,0.52314 -1.095755,0.54738"
         id="path3461" /><path
         inkscape:connector-curvature="0"
         d="m 73.581232,315.37874 c 0,0 -0.354691,0.032 -0.354691,0.032 -0.319058,0.0244 -0.586188,0.0983 -0.801384,0.22179 -0.215203,0.12344 -0.385422,0.27554 -0.510657,0.45627 -0.124424,0.19139 -0.209997,0.40118 -0.256717,0.6294 -0.04591,0.23886 -0.05991,0.47528 -0.04201,0.70925 0,0 0.783679,10.24168 0.783679,10.24168 0,0 1.43575,-0.10986 1.43575,-0.10986 0,0 -0.720203,-9.41214 -0.720203,-9.41214 -0.02604,-0.34032 -0.03616,-0.61233 -0.03035,-0.81603 0.0058,-0.20369 0.04146,-0.36688 0.106954,-0.48957 0.0663,-0.11204 0.156326,-0.19382 0.270061,-0.24531 0.125178,-0.0417 0.20395,-0.068 0.416089,-0.0905 0,0 -0.296525,-1.12697 -0.296525,-1.12697"
         id="path3463" /><path
         inkscape:connector-curvature="0"
         d="m 80.883916,314.43768 c -0.665922,0.09 -1.269705,0.24159 -1.811338,0.45477 -0.5325,0.20116 -0.948296,0.42959 -1.247388,0.68529 0,0 0.4282,1.7342 0.4282,1.7342 0.289656,-0.4051 0.685875,-0.73853 1.188661,-1.00024 0.513352,-0.26315 1.034282,-0.43044 1.562792,-0.5019 0.687055,-0.0929 1.150862,-0.0209 1.557071,0.21516 0.418451,0.24484 0.670829,0.6304 0.757137,1.15668 0.0466,0.28419 0.0328,0.52965 -0.04138,0.73638 -0.07247,0.21725 -0.195749,0.42121 -0.369842,0.61189 -0.172377,0.20121 -0.394704,0.39439 -0.666981,0.57956 -0.270561,0.19569 -0.601571,0.39787 -0.948657,0.61701 -0.447078,0.27571 -0.842732,0.53371 -1.186961,0.77399 -0.342804,0.25085 -0.626043,0.50441 -0.849714,0.76068 -0.222246,0.26683 -0.381352,0.56281 -0.47732,0.88793 -0.09597,0.32511 -0.11466,0.70435 -0.05607,1.13773 0.06145,0.45451 0.191891,0.86203 0.391316,1.22255 0.199425,0.36051 0.460415,0.65889 0.782966,0.89514 0.334546,0.24537 0.72394,0.41875 1.168185,0.52015 0.454807,0.1 0.962321,0.11206 1.522544,0.0363 0.285388,-0.0386 0.771575,-0.13338 1.048865,-0.22212 0.279012,-0.0782 0.544056,-0.17566 0.795117,-0.29252 0.263307,-0.10803 0.497715,-0.22755 0.703229,-0.35852 0.216025,-0.1327 0.394353,-0.26463 0.534986,-0.39577 0,0 -0.440602,-1.50043 -0.440602,-1.50043 -0.481587,0.42485 -0.932197,0.74194 -1.351833,0.95127 -0.407396,0.21813 -0.950894,0.3838 -1.299703,0.43097 -0.581362,0.0786 -1.08831,-0.009 -1.520843,-0.2626 -0.432542,-0.25366 -0.682393,-0.62889 -0.749556,-1.12568 -0.0343,-0.25368 -0.01075,-0.47752 0.07066,-0.6715 0.09198,-0.19542 0.217807,-0.37926 0.377495,-0.55153 0.161111,-0.16171 0.355365,-0.31713 0.582763,-0.46627 0.228819,-0.13857 0.46821,-0.27857 0.718178,-0.42 0.528773,-0.30828 1.042427,-0.62662 1.428942,-0.90618 0.397029,-0.28128 0.716067,-0.57679 0.957117,-0.88654 0.241037,-0.30975 0.405896,-0.65564 0.494578,-1.03768 0.09039,-0.37151 0.09331,-0.81515 0.0087,-1.33091 -0.158804,-0.96837 -0.566411,-1.67436 -1.222821,-2.11797 -0.654698,-0.43307 -1.517278,-0.53795 -2.838541,-0.35932"
         id="path3465" /><path
         inkscape:connector-curvature="0"
         d="m 88.792818,313.12306 c -0.324697,0.0625 -0.641715,0.22131 -0.951054,0.47639 -0.298872,0.25306 -0.532459,0.59132 -0.700762,1.01476 0,0 -0.91955,-4.77613 -0.91955,-4.77613 0,0 -1.413986,0.27223 -1.413986,0.27223 0,0 2.214179,11.50043 2.214179,11.50043 0,0 1.162611,-0.22384 1.162611,-0.22384 0,0 -0.08605,-1.12397 -0.08605,-1.12397 0.34895,0.34558 0.691236,0.60012 1.026858,0.76361 0.335615,0.16349 0.739089,0.19986 1.210421,0.10911 0.492273,-0.0948 1.011754,-0.31653 1.348799,-0.62039 0.337034,-0.30386 0.594324,-0.67202 0.771872,-1.1045 0.179835,-0.42206 0.284532,-0.88759 0.314087,-1.3966 0.02954,-0.50902 -0.01321,-1.0239 -0.128255,-1.54466 -0.124264,-0.56242 -0.308164,-1.07342 -0.551706,-1.53303 -0.230836,-0.45148 -0.516709,-0.83072 -0.85762,-1.13774 -0.33862,-0.29658 -0.723618,-0.50645 -1.154997,-0.62963 -0.41867,-0.11504 -0.771625,-0.14485 -1.284846,-0.046 m 1.174992,6.77992 c -0.513228,0.0988 -0.991255,-0.0427 -1.434078,-0.42451 -0.432356,-0.38384 -0.738269,-1.04185 -0.91774,-1.97403 -0.185524,-0.9636 -0.147814,-1.69864 0.113134,-2.20509 0.273434,-0.49799 0.666764,-0.7964 1.179992,-0.89521 0.282793,-0.0544 0.54829,-0.0295 0.796473,0.0748 0.248182,0.1043 0.408889,0.26599 0.618045,0.47102 0.211447,0.21545 0.390445,0.48176 0.536989,0.79894 0.156951,0.31487 0.276846,0.65979 0.35969,1.03473 0.08513,0.38537 0.122862,0.7539 0.113176,1.10559 0.003,0.35981 -0.04711,0.67675 -0.150412,0.95081 -0.103309,0.27406 -0.309758,0.51933 -0.503491,0.69784 -0.191727,0.18898 -0.428985,0.3107 -0.711778,0.36515"
         id="path3467" /><path
         inkscape:connector-curvature="0"
         d="m 98.274669,310.89146 c 0,0 -0.308326,0.0856 -0.308326,0.0856 -0.493327,0.13698 -0.71905,0.28948 -0.889948,0.52996 -0.168327,0.25082 -0.274611,0.57412 -0.318854,0.96989 -0.320604,-0.27184 -0.682646,-0.4674 -1.08613,-0.58668 -0.393139,-0.12185 -0.796701,-0.13118 -1.210684,-0.028 -0.58993,0.14706 -0.915082,0.44781 -1.197987,0.94725 -0.272489,0.49715 -0.3374,1.06859 -0.194736,1.71433 0.119656,0.54159 0.347639,0.95547 0.683954,1.24164 0.338615,0.2966 0.723896,0.5011 1.155854,0.60229 0.444882,0.10895 0.900163,0.14936 1.365838,0.12122 0.476013,-0.0308 0.901614,-0.0874 1.276785,-0.16988 0.0903,0.36224 0.132779,0.66494 0.127441,0.90811 0.005,0.2406 -0.03393,0.43718 -0.116813,0.58975 -0.08031,0.16292 -0.198101,0.28573 -0.35337,0.36841 -0.152706,0.093 -0.337716,0.16663 -0.555055,0.22081 -0.269093,0.0671 -0.554967,0.0889 -0.857625,0.0654 -0.300073,-0.0131 -0.718688,-0.0985 -1.134931,-0.30146 0,0 0.08011,1.17843 0.08011,1.17843 0.386208,0.16591 0.879431,0.24953 1.298489,0.29897 0.429403,0.0469 0.861448,0.0161 1.296135,-0.0922 0.393282,-0.098 0.719339,-0.24528 0.978173,-0.44171 0.269176,-0.19902 0.465965,-0.46794 0.590376,-0.80674 0.126978,-0.32846 0.178993,-0.73716 0.156047,-1.22612 -0.01261,-0.49153 -0.08215,-1.08738 -0.270487,-1.7657 0,0 -0.428058,-1.54162 -0.428058,-1.54162 -0.151253,-0.54471 -0.226574,-0.95552 -0.225972,-1.23244 5.95e-4,-0.2769 0.149917,-0.45675 0.447971,-0.53951 0,0 0.169579,-0.0471 0.169579,-0.0471 0,0 -0.477781,-1.06289 -0.477781,-1.06289 m -0.964171,4.46514 c -0.765854,0.1469 -1.393183,0.14393 -1.882015,-0.009 -0.486255,-0.14261 -0.800331,-0.49853 -0.942228,-1.06776 -0.103199,-0.41398 -0.09522,-0.73476 0.02393,-0.96234 0.121733,-0.21722 0.337843,-0.36453 0.648335,-0.44193 0.248388,-0.0619 0.525173,-0.032 0.830357,0.0898 0.315525,0.11922 0.605137,0.31085 0.868833,0.5749 0,0 0.452784,1.81636 0.452784,1.81636"
         id="path3469" /><path
         inkscape:connector-curvature="0"
         d="m 102.77762,309.60869 c -0.14279,0.0437 -0.26881,0.0875 -0.37778,0.1324 -0.0989,0.0415 -0.20285,0.0844 -0.3119,0.12896 0,0 0.36067,1.17799 0.36067,1.17799 0.35697,-0.1093 0.6746,-0.20132 0.9532,-0.27512 0.2816,-0.0639 0.52868,-0.0949 0.7412,-0.0931 0.21565,0.0121 0.39121,0.0754 0.52673,0.19012 0.14882,0.12176 0.26539,0.32032 0.34971,0.5957 0.0874,0.28557 0.11607,0.56126 0.0859,0.82706 -0.0271,0.27601 -0.0858,0.53942 -0.17637,0.79024 -0.0874,0.26102 -0.19636,0.50633 -0.32685,0.73592 -0.12738,0.23979 -0.24258,0.46469 -0.3456,0.67472 -0.0999,0.22022 -0.17742,0.42245 -0.23257,0.60666 -0.0552,0.18421 -0.0593,0.35281 -0.0125,0.50579 0.0562,0.18359 0.18339,0.36217 0.38156,0.53575 0.20836,0.17046 0.43316,0.3582 0.67442,0.56321 0.24437,0.21521 0.48125,0.4606 0.71065,0.73618 0.24271,0.28265 0.42496,0.62286 0.54675,1.02062 0.0812,0.26517 0.11106,0.49028 0.0896,0.67532 -0.008,0.19212 -0.0526,0.35635 -0.1336,0.49269 -0.0708,0.13322 -0.17796,0.23854 -0.32157,0.31599 -0.13029,0.0845 -0.27194,0.15019 -0.42492,0.19703 -0.41817,0.12802 -0.93393,0.13954 -1.21367,-0.0706 -0.26662,-0.20272 -0.50124,-0.66893 -0.70385,-1.39863 0,0 -2.92792,-10.54474 -2.92792,-10.54474 0,0 -1.387466,0.38525 -1.387466,0.38525 0,0 2.380006,8.57146 2.380006,8.57146 0,0 -1.04831,0.29108 -1.04831,0.29108 0,0 0.45381,1.03633 0.45381,1.03633 0,0 0.89414,-0.24827 0.89414,-0.24827 0,0 0.37241,1.34121 0.37241,1.34121 0.11986,0.43165 0.29739,0.79194 0.53259,1.08088 0.23521,0.28892 0.50239,0.51362 0.80156,0.6741 0.29916,0.16046 0.62374,0.25299 0.97374,0.27758 0.35284,0.0349 0.90601,-0.0672 1.26298,-0.17645 0.31616,-0.0968 0.60808,-0.23638 0.87576,-0.41874 0.27786,-0.18547 0.50285,-0.41611 0.67498,-0.69191 0.17524,-0.2656 0.28585,-0.57835 0.33184,-0.93824 0.0562,-0.36301 0.014,-0.774 -0.12651,-1.23294 -0.14053,-0.45896 -0.32664,-0.84818 -0.55831,-1.16768 -0.22857,-0.30929 -0.45328,-0.56957 -0.67412,-0.78082 -0.22086,-0.21126 -0.41903,-0.38485 -0.5945,-0.52076 -0.17547,-0.1359 -0.27882,-0.25485 -0.31005,-0.35685 -0.0375,-0.12238 0.0145,-0.3168 0.15608,-0.58323 0.14464,-0.25624 0.29408,-0.56971 0.4483,-0.94043 0.16753,-0.36364 0.29396,-0.77047 0.37928,-1.22049 0.0853,-0.45001 0.0483,-0.93509 -0.11091,-1.45525 -0.13116,-0.42835 -0.3236,-0.76543 -0.57734,-1.01125 -0.25375,-0.2458 -0.54642,-0.41834 -0.87799,-0.51761 -0.32139,-0.10239 -0.67305,-0.13973 -1.055,-0.11203 -0.37487,0.0144 -0.75099,0.0793 -1.12835,0.19488"
         id="path3471" /><path
         inkscape:connector-curvature="0"
         d="m 112.60631,306.3192 c -0.32075,0.11673 -0.60865,0.32367 -0.86373,0.62082 -0.25509,0.29716 -0.43724,0.66992 -0.54647,1.11831 0,0 -0.41443,-0.9048 -0.41443,-0.9048 0,0 -1.1357,0.40791 -1.1357,0.40791 0,0 3.81074,11.37849 3.81074,11.37849 0,0 1.54913,-0.55409 1.54913,-0.55409 0,0 -1.71269,-4.70589 -1.71269,-4.70589 0.37918,0.29333 0.74601,0.4436 1.10051,0.45079 0.36815,0.0136 0.7076,-0.0362 1.01832,-0.14927 0.47109,-0.17145 0.85376,-0.42991 1.14801,-0.77537 0.29425,-0.34546 0.56844,-0.78949 0.67602,-1.24445 0.1214,-0.44893 0.15682,-0.92707 0.10624,-1.43443 -0.0506,-0.50735 -0.1735,-1.00918 -0.36873,-1.50548 -0.21087,-0.53599 -0.47756,-1.00991 -0.80002,-1.42178 -0.31858,-0.40191 -0.68021,-0.72387 -1.08487,-0.96586 -0.39084,-0.23595 -0.71673,-0.40696 -1.16055,-0.47246 -0.43015,-0.0591 -0.87074,-0.007 -1.32178,0.15756 m 2.23262,6.50873 c -0.48111,0.1751 -0.96548,0.10733 -1.45311,-0.20328 -0.48762,-0.31062 -0.89377,-0.91196 -1.21843,-1.80402 -0.33561,-0.92213 -0.41463,-1.65387 -0.23708,-2.19523 0.1812,-0.53133 0.51236,-0.88454 0.99347,-1.05964 0.27062,-0.0985 0.53672,-0.11585 0.79828,-0.0522 0.27157,0.0601 0.52448,0.17802 0.75874,0.35383 0.23789,0.18584 0.41608,0.43535 0.62044,0.72173 0.20433,0.28641 0.37682,0.60826 0.5174,0.96559 0.14447,0.36727 0.23945,0.72534 0.28503,1.0742 0.0495,0.35878 0.006,0.6969 -0.0604,0.98214 -0.0664,0.28526 -0.18622,0.53316 -0.3593,0.74371 -0.15942,0.21693 -0.37444,0.37465 -0.64506,0.47314"
         id="path3473" /><path
         inkscape:connector-curvature="0"
         d="m 119.2841,308.11279 c -0.15941,-0.52185 -0.26298,-0.96728 -0.26684,-1.35946 2.9e-4,-0.38236 0.0501,-0.71618 0.1494,-1.00146 0.11328,-0.2796 0.27117,-0.5086 0.47364,-0.68698 0.2123,-0.1825 0.44613,-0.32786 0.70152,-0.43597 0.28485,-0.12059 0.6088,-0.21722 0.97188,-0.28981 0.37291,-0.0768 0.72804,-0.0997 1.06545,-0.0688 0,0 -0.32498,-1.09599 -0.32498,-1.09599 -0.29962,-0.0237 -0.65327,-0.0246 -1.06093,-0.003 -0.39369,0.0277 -0.81645,0.13715 -1.26827,0.32842 -0.55988,0.23702 -1.00943,0.54316 -1.34863,0.9184 -0.33505,0.38508 -0.4957,0.76765 -0.64689,1.2283 -0.14729,0.47057 -0.2036,0.9684 -0.16897,1.49349 0.0446,0.52119 0.17032,1.04482 0.37727,1.57089 0.19914,0.50623 0.45804,0.96029 0.77659,1.36223 0.31858,0.40193 0.67328,0.72087 1.06413,0.95683 0.39083,0.23595 0.89616,0.34951 1.35259,0.38795 0.46624,0.0343 0.94001,-0.0505 1.42131,-0.2542 0.3929,-0.16633 0.72721,-0.38897 1.00298,-0.66783 0.27574,-0.2789 0.47742,-0.59593 0.60506,-0.95111 0.13744,-0.35935 0.19384,-0.75966 0.16919,-1.20095 -0.0247,-0.44129 -0.1134,-0.91766 -0.32941,-1.39359 -0.0485,-0.10684 -0.10374,-0.21647 -0.16666,-0.32848 -0.0626,-0.11213 -0.13714,-0.22473 -0.22359,-0.33778 0,0 -4.32584,1.82852 -4.32584,1.82852 m 2.78402,1.86628 c -0.47147,0.1996 -0.89728,0.20611 -1.27741,0.0196 -0.36615,-0.18089 -0.74402,-0.5009 -1.05413,-0.99786 0,0 2.98223,-1.26043 2.98223,-1.26043 0.21622,0.51078 0.27866,0.95924 0.18732,1.34539 -0.0774,0.39181 -0.35671,0.6896 -0.83801,0.89335"
         id="path3475" /><path
         inkscape:connector-curvature="0"
         d="m 127.18785,310.89783 c 0,0 0.66127,1.45691 0.66127,1.45691 0,0 1.31122,-0.59514 1.31122,-0.59514 0,0 -0.66127,-1.45691 -0.66127,-1.45691 0,0 -1.31122,0.59514 -1.31122,0.59514 m -3.96762,-8.74145 c 0,0 3.24022,7.13886 3.24022,7.13886 0,0 1.31122,-0.59515 1.31122,-0.59515 0,0 -3.24022,-7.13885 -3.24022,-7.13885 0,0 -1.31122,0.59514 -1.31122,0.59514"
         id="path3477" /><path
         inkscape:connector-curvature="0"
         d="m 133.86456,296.90763 c 0,0 2.18194,4.05838 2.18194,4.05838 0.3485,0.64822 0.5024,1.17097 0.4617,1.56826 -0.0263,0.40163 -0.27427,0.72873 -0.74397,0.98126 -0.31003,0.16668 -0.59435,0.23474 -0.85293,0.20426 -0.24415,-0.0262 -0.47093,-0.11011 -0.68033,-0.25183 -0.19496,-0.13738 -0.37185,-0.3087 -0.53064,-0.51397 -0.14435,-0.20091 -0.29285,-0.38949 -0.39169,-0.59049 0,0 -2.00516,-4.07738 -2.00516,-4.07738 0,0 -1.29213,0.63544 -1.29213,0.63544 0,0 1.90631,3.87638 1.90631,3.87638 0.21181,0.43071 0.35726,0.79897 0.43633,1.10478 0.0791,0.3058 0.10119,0.56832 0.0664,0.78751 -0.0349,0.21919 -0.12429,0.39987 -0.26832,0.54202 -0.12976,0.14705 -0.29994,0.2723 -0.5105,0.37585 -0.30629,0.15063 -0.6215,0.21059 -0.94567,0.1798 -0.30989,-0.0259 -0.61428,-0.16147 -0.91318,-0.40672 0,0 -2.51351,-5.11108 -2.51351,-5.11108 0,0 -1.29213,0.63543 -1.29213,0.63543 0,0 3.45961,7.03492 3.45961,7.03492 0,0 1.0337,-0.50835 1.0337,-0.50835 0,0 -0.26664,-0.79599 -0.26664,-0.79599 0.45642,0.22721 0.84688,0.33235 1.17136,0.31541 0.33405,-0.0216 0.66379,-0.11249 0.98922,-0.27252 0.17228,-0.0847 0.33995,-0.19092 0.50296,-0.31867 0.16301,-0.12774 0.30479,-0.28658 0.42531,-0.47659 0.1252,-0.18043 0.21967,-0.39924 0.28338,-0.6564 0.0733,-0.26188 0.0992,-0.57177 0.0777,-0.92966 0.37923,0.36025 0.90876,0.53004 1.37829,0.59247 0.47891,0.0574 0.9955,-0.0629 1.54978,-0.36093 0.77972,-0.41921 1.23338,-0.97192 1.36097,-1.65812 0.13696,-0.69125 -0.0698,-1.54886 -0.62035,-2.57286 0,0 -2.18951,-4.07247 -2.18951,-4.07247 0,0 -1.26825,0.68186 -1.26825,0.68186"
         id="path3479" /><path
         inkscape:connector-curvature="0"
         d="m 141.35517,292.37769 c -0.56675,0.361 -0.93864,0.63484 -1.35631,1.04024 -0.41388,0.39078 -0.70955,0.76178 -0.88702,1.11296 0,0 1.0633,1.4353 1.0633,1.4353 0.1112,-0.48542 0.34835,-0.94575 0.71148,-1.38097 0.37232,-0.44061 0.70396,-0.72615 1.15377,-1.01266 0.58474,-0.37246 1.11027,-0.53015 1.57659,-0.4731 0.48103,0.0603 0.8648,0.31541 1.15132,0.7652 0.1547,0.2429 0.23869,0.47394 0.25184,0.69319 0.0189,0.22823 -0.0141,0.46425 -0.0991,0.70806 -0.0792,0.25282 -0.20756,0.51792 -0.38495,0.79531 -0.17168,0.28639 -0.3907,0.62628 -0.62655,0.96223 -0.30632,0.42667 -0.57202,0.81718 -0.79709,1.17153 -0.21968,0.36356 -0.38335,0.70666 -0.49101,1.02932 -0.10228,0.33185 -0.13506,0.66627 -0.0984,1.00326 0.0367,0.33698 0.16557,0.69413 0.38661,1.07147 0.23182,0.39573 0.50923,0.72151 0.83213,0.97737 0.32292,0.25583 0.67872,0.43061 1.06739,0.52434 0.40324,0.0975 0.82937,0.10749 1.27837,0.0299 0.4582,-0.083 1.16959,-0.4029 1.64639,-0.7066 0.24288,-0.15471 0.47434,-0.32738 0.6943,-0.51812 0.2257,-0.1817 0.43097,-0.37564 0.61574,-0.58189 0.19952,-0.20296 0.36794,-0.4051 0.50529,-0.60639 0.14634,-0.20703 0.25832,-0.3985 0.33598,-0.57442 0,0 -0.99568,-1.20578 -0.99568,-1.20578 -0.27544,0.58011 -0.56483,1.04898 -0.86816,1.40659 -0.28862,0.36089 -0.58137,0.63587 -0.87823,0.82497 -0.49479,0.31516 -1.18799,0.54345 -1.68485,0.47603 -0.49687,-0.0674 -0.87199,-0.31741 -1.12538,-0.74996 -0.12939,-0.22087 -0.19392,-0.43648 -0.19351,-0.64686 0.01,-0.21577 0.0549,-0.43389 0.13584,-0.65439 0.0864,-0.21129 0.20574,-0.42955 0.35811,-0.65479 0.15776,-0.21603 0.40214,-0.49322 0.56975,-0.72644 0.35072,-0.50161 0.64871,-0.95698 0.89395,-1.36611 0.25423,-0.41486 0.43116,-0.81209 0.53081,-1.19171 0.0996,-0.37962 0.11501,-0.76247 0.0461,-1.14856 -0.0632,-0.37709 -0.23513,-0.78604 -0.5159,-1.22685 -0.52719,-0.82763 -1.17979,-1.31614 -1.95781,-1.46551 -0.7723,-0.14037 -1.7207,0.14758 -2.84521,0.86385"
         id="path3481" /><path
         inkscape:connector-curvature="0"
         d="m 148.13754,288.02087 c 0,0 -0.94724,0.65551 -0.94724,0.65551 -0.26312,0.18208 -0.46082,0.38371 -0.59306,0.60498 -0.12349,0.21517 -0.19807,0.43541 -0.22375,0.66071 -0.0108,0.22801 0.12042,0.37643 0.18677,0.59973 0.0664,0.2233 0.16258,0.43391 0.28864,0.63182 0,0 2.69032,4.22365 2.69032,4.22365 0,0 -0.9176,0.58448 -0.9176,0.58448 0,0 0.70963,0.87583 0.70963,0.87583 0,0 0.80964,-0.51572 0.80964,-0.51572 0,0 1.04003,1.63279 1.04003,1.63279 0,0 1.4425,-0.8006 1.4425,-0.8006 0,0 -1.18356,-1.71028 -1.18356,-1.71028 0,0 1.36822,-0.94685 1.36822,-0.94685 0,0 -0.6373,-0.92092 -0.6373,-0.92092 0,0 -1.36822,0.94685 -1.36822,0.94685 0,0 -2.34891,-3.39425 -2.34891,-3.39425 -0.21243,-0.30697 -0.37054,-0.55424 -0.47442,-0.74178 -0.10387,-0.18753 -0.15101,-0.34948 -0.14157,-0.48573 0.009,-0.13623 0.0709,-0.26307 0.18423,-0.38042 0.12822,-0.11463 0.31508,-0.25695 0.56066,-0.4269 0,0 0.31574,-0.2185 0.31574,-0.2185 0,0 -0.76075,-0.8744 -0.76075,-0.8744"
         id="path3483" /><path
         inkscape:connector-curvature="0"
         d="m 152.73483,284.91717 c 0,0 0.44257,0.74816 0.44257,0.74816 -0.74274,-0.29552 -1.40821,-0.22211 -1.99638,0.22025 -0.73308,0.55134 -1.00225,1.05995 -1.04623,1.76487 -0.0352,0.69885 0.28404,1.53505 0.95776,2.50859 0,0 2.59472,3.74946 2.59472,3.74946 0,0 1.18404,-0.81939 1.18404,-0.81939 0,0 -2.36711,-3.42055 -2.36711,-3.42055 -0.47343,-0.68411 -0.74247,-1.26969 -0.80714,-1.75675 -0.0559,-0.49313 0.0274,-0.83343 0.44507,-1.14757 0.2472,-0.18592 0.51049,-0.29722 0.7899,-0.33383 0.28581,-0.0281 0.58987,0.0301 0.91217,0.17477 0,0 3.50038,4.65422 3.50038,4.65422 0,0 1.13798,-0.85586 1.13798,-0.85586 0,0 -4.71204,-6.2653 -4.71204,-6.2653 0,0 -1.03569,0.77893 -1.03569,0.77893"
         id="path3485" /><path
         inkscape:connector-curvature="0"
         d="m 158.90571,280.0289 c 0,0 0.56641,0.81823 0.56641,0.81823 -0.43305,-0.14172 -0.84655,-0.1754 -1.24052,-0.10101 -0.38571,0.0676 -0.70649,0.20616 -0.96235,0.4156 -0.3714,0.30402 -0.6456,0.65943 -0.82261,1.06621 -0.17026,0.41504 -0.24782,0.8507 -0.23271,1.30696 0.0219,0.46453 0.20139,0.88303 0.36843,1.3713 0.18198,0.4904 0.44605,0.96574 0.79225,1.42605 0.32054,0.42621 0.68365,0.79372 1.08939,1.10247 0.41425,0.30236 0.90811,0.45502 1.3509,0.575 0.4578,0.12146 0.91033,0.14387 1.35758,0.0672 0.4555,-0.0834 0.87721,-0.28388 1.26511,-0.60141 0.2476,-0.20268 0.45879,-0.45826 0.63357,-0.76674 0.17478,-0.30847 0.23697,-0.70398 0.18658,-1.1865 0,0 3.16181,3.86255 3.16181,3.86255 0,0 1.34423,-1.14579 1.34423,-1.14579 0,0 -7.99428,-8.94806 -7.99428,-8.94806 0,0 -0.86379,0.73792 -0.86379,0.73792 m 2.79544,6.39541 c -0.22284,0.18241 -0.46823,0.28676 -0.73612,0.31311 -0.26115,0.0346 -0.53131,0.008 -0.8105,-0.0808 -0.27918,-0.0885 -0.56327,-0.24188 -0.85224,-0.4602 -0.27399,-0.21679 -0.53593,-0.4779 -0.78591,-0.78328 -0.24322,-0.29712 -0.44406,-0.60136 -0.60245,-0.91278 -0.15019,-0.31813 -0.24442,-0.62694 -0.28277,-0.92636 -0.0316,-0.29116 -0.008,-0.56546 0.0707,-0.82288 0.0787,-0.25742 0.22952,-0.47734 0.45236,-0.65975 0.19808,-0.16215 0.41418,-0.27702 0.64831,-0.34462 0.24913,-0.0661 0.51066,-0.0665 0.78459,-0.001 0.27392,0.0652 0.55613,0.19949 0.8466,0.40279 0.30548,0.20481 0.61361,0.49703 0.92439,0.87668 0.60128,0.73454 0.90612,1.40163 0.91452,2.00123 0.0234,0.60111 -0.16709,1.06718 -0.57151,1.39822"
         id="path3487" /><path
         inkscape:connector-curvature="0"
         d="m 167.51534,285.24296 c 0,0 1.0659,1.19307 1.0659,1.19307 0,0 1.07377,-0.95931 1.07377,-0.95931 0,0 -1.06591,-1.19307 -1.06591,-1.19307 0,0 -1.07376,0.95931 -1.07376,0.95931 m -6.39543,-7.15845 c 0,0 5.22293,5.84607 5.22293,5.84607 0,0 1.07377,-0.95932 1.07377,-0.95932 0,0 -5.22293,-5.84607 -5.22293,-5.84607 0,0 -1.07377,0.95932 -1.07377,0.95932"
         id="path3489" /><path
         inkscape:connector-curvature="0"
         d="m 166.87276,278.14276 c -0.34531,-0.42249 -0.58945,-0.81633 -0.73235,-1.18157 -0.13552,-0.35753 -0.20753,-0.68727 -0.21601,-0.98923 0.007,-0.30161 0.0729,-0.57175 0.19877,-0.81041 0.13365,-0.24602 0.24209,-0.42344 0.43775,-0.61997 0.21824,-0.2192 0.48173,-0.43099 0.79054,-0.6353 0.31633,-0.21186 0.63651,-0.3672 0.96061,-0.46597 0,0 -0.77874,-0.8293 -0.77874,-0.8293 -0.28405,0.0982 -0.55018,0.16097 -0.91937,0.33526 -0.35411,0.17426 -0.70424,0.43523 -1.05042,0.78295 -0.42896,0.43085 -0.66767,0.80574 -0.85149,1.277 -0.17645,0.47897 -0.24732,0.96025 -0.21262,1.44382 0.0421,0.49128 0.17864,0.97333 0.40971,1.44611 0.23879,0.46541 0.56514,0.88206 0.94176,1.30361 0.3624,0.40564 0.79062,0.7221 1.23775,0.97331 0.44716,0.25119 0.89629,0.41188 1.3474,0.4821 0.4511,0.0702 0.89682,0.0422 1.33714,-0.0839 0.44802,-0.13354 0.93325,-0.44242 1.30201,-0.81281 0.30102,-0.30236 0.52653,-0.63474 0.6766,-0.99708 0.15004,-0.36236 0.21711,-0.73209 0.20119,-1.10916 -0.008,-0.38464 -0.0653,-0.82047 -0.26457,-1.21498 -0.19929,-0.3945 -0.48864,-0.77147 -0.86806,-1.13093 -0.0852,-0.0807 -0.17766,-0.16142 -0.27815,-0.24146 -0.10028,-0.0803 -0.21171,-0.1565 -0.33439,-0.22864 0,0 -3.33506,3.30658 -3.33506,3.30658 m 3.30665,0.70126 c -0.36122,0.36282 -0.80696,0.56045 -1.22856,0.52105 -0.40653,-0.0391 -0.84746,-0.22976 -1.3228,-0.57209 0,0 2.30866,-2.26769 2.30866,-2.26769 0.39307,0.39134 0.62019,0.78304 0.6814,1.1751 0.0763,0.39202 -0.0699,0.77324 -0.4387,1.14363"
         id="path3491" /><path
         inkscape:connector-curvature="0"
         d="m 175.37473,273.11115 c 0,0 -0.34249,0.38057 -0.34249,0.38057 -0.0928,0.10307 -0.21288,0.1887 -0.36034,0.25688 -0.13238,0.0674 -0.27709,0.11655 -0.43407,0.14747 -0.15698,0.0309 -0.31475,0.0468 -0.47331,0.0476 -0.15143,-0.007 -0.29256,-0.0337 -0.42337,-0.0797 0,0 -4.11483,-3.70321 -4.11483,-3.70321 0,0 -0.94587,1.01023 -0.94587,1.01023 0,0 5.69132,5.39177 5.69132,5.39177 0,0 0.93206,-0.99108 0.93206,-0.99108 0,0 -0.89907,-0.93829 -0.89907,-0.93829 1.19875,0.24655 2.05856,0.0804 2.57944,-0.49833 0,0 0.17125,-0.19028 0.17125,-0.19028 0,0 -1.38072,-0.83364 -1.38072,-0.83364"
         id="path3493" /><path
         inkscape:connector-curvature="0"
         d="m 174.85193,269.70035 c -0.38608,-0.3856 -0.66862,-0.75286 -0.84756,-1.10186 -0.17082,-0.34207 -0.27564,-0.66289 -0.31448,-0.96245 -0.0238,-0.30075 -0.0397,-0.5251 0.0548,-0.77788 0.10115,-0.26105 0.2388,-0.49949 0.41303,-0.71527 0.19432,-0.24066 0.43442,-0.47864 0.72036,-0.71387 0.29265,-0.24353 0.53844,-0.38172 0.84674,-0.52226 0,0 -0.82585,-0.79042 -0.82585,-0.79042 -0.27192,0.12802 -0.50487,0.22271 -0.85399,0.43435 -0.33411,0.21006 -0.65529,0.50595 -0.96352,0.88769 -0.38195,0.47303 -0.55947,0.87149 -0.69492,1.35885 -0.12733,0.49429 -0.1494,0.98025 -0.0662,1.45788 0.0913,0.48455 0.2757,0.95039 0.55318,1.39751 0.28442,0.43902 0.64164,0.842 1.07166,1.20896 0.4138,0.35311 0.8558,0.63209 1.32594,0.83702 0.47017,0.20491 0.93319,0.31958 1.38908,0.34403 0.45587,0.0245 0.89651,-0.0482 1.32189,-0.21809 0.4323,-0.17796 0.87837,-0.55464 1.20671,-0.96128 0.26803,-0.33194 0.45784,-0.68593 0.56952,-1.06188 0.11163,-0.37597 0.1951,-0.82653 0.12973,-1.19823 -0.0589,-0.38019 -0.20852,-0.75575 -0.44883,-1.12669 -0.24031,-0.37093 -0.56831,-0.71481 -0.98397,-1.03165 -0.0933,-0.0711 -0.1939,-0.14151 -0.30236,-0.21036 -0.10828,-0.0691 -0.22723,-0.13296 -0.35691,-0.19157 0,0 -2.944,3.65747 -2.944,3.65747 m 3.35102,0.34637 c -0.32164,0.39834 -0.73705,0.65731 -1.16048,0.66055 -0.40839,0.002 -0.86627,-0.14329 -1.37365,-0.43604 0,0 2.0522,-2.50553 2.0522,-2.50553 0.43154,0.34844 0.69807,0.71446 0.79962,1.09806 0.11654,0.38199 0.0106,0.77632 -0.31769,1.18296"
         id="path3495" /><path
         inkscape:connector-curvature="0"
         d="m 177.94704,259.08982 c 0,0 3.5827,2.41354 3.5827,2.41354 0.69001,0.46483 1.12571,0.90625 1.3071,1.32425 0.1814,0.418 0.1112,0.86584 -0.21061,1.34354 -0.1907,0.28308 -0.49059,0.55209 -0.79718,0.68654 -0.29168,0.13202 -0.62715,0.16042 -1.0064,0.0852 0,0 -4.62748,-3.32092 -4.62748,-3.32092 0,0 -0.77522,1.07185 -0.77522,1.07185 0,0 6.235,4.7525 6.235,4.7525 0,0 0.78824,-1.08444 0.78824,-1.08444 0,0 -0.62928,-0.55007 -0.62928,-0.55007 0.50964,-0.015 0.91285,-0.11948 1.20963,-0.3135 0.29677,-0.194 0.60166,-0.51913 0.78044,-0.78452 0.28605,-0.42461 0.45667,-0.83054 0.51176,-1.21783 0.0611,-0.39612 0.0787,-0.85789 -0.0726,-1.218 -0.1456,-0.36913 -0.38681,-0.71657 -0.72364,-1.04233 -0.32213,-0.32909 -0.72232,-0.64434 -1.20057,-0.94576 0,0 -3.65458,-2.30324 -3.65458,-2.30324 0,0 -0.71735,1.10321 -0.71735,1.10321"
         id="path3497" /><path
         inkscape:connector-curvature="0"
         d="m 182.8913,257.21086 c 0,0 -0.50236,0.85534 -0.50236,0.85534 0,0 7.27679,4.97005 7.27679,4.97005 0,0 0.99966,-1.68626 0.99966,-1.68626 0,0 -7.77409,-4.13913 -7.77409,-4.13913 m -3.35877,-0.59963 c 0,0 1.18645,0.69682 1.18645,0.69682 0,0 0.70492,-1.20024 0.70492,-1.20024 0,0 -1.18644,-0.69682 -1.18644,-0.69682 0,0 -0.70493,1.20024 -0.70493,1.20024"
         id="path3499" /></g><text
       transform="scale(1,-1)"
       id="text11080"
       y="-95.191345"
       x="52.607399"
       style="font-style:normal;font-variant:normal;font-weight:normal;font-stretch:normal;line-height:0%;font-family:'Cabin Condensed';-inkscape-font-specification:'Cabin Condensed';letter-spacing:0px;word-spacing:0px;fill:#000000;fill-opacity:1;stroke:none"
       xml:space="preserve"><tspan
         style="font-style:normal;font-variant:normal;font-weight:normal;font-stretch:normal;font-size:9.60000038px;line-height:1.25;font-family:'Cabin Condensed';-inkscape-font-specification:'Cabin Condensed, '"
         y="-95.191345"
         x="52.607399"
         id="tspan11082"
         sodipodi:role="line">Fachschaftsvertretung Geographie/Landschaftskologie</tspan><tspan
         style="font-style:normal;font-variant:normal;font-weight:normal;font-stretch:normal;font-size:9.60000038px;line-height:1.25;font-family:'Cabin Condensed';-inkscape-font-specification:'Cabin Condensed, '"
         id="tspan11084"
         y="-83.191345"
         x="52.607399"
         sodipodi:role="line">Heisenbergstr. 2, 48149 Mnster, Raum 23</tspan><tspan
         style="font-style:normal;font-variant:normal;font-weight:normal;font-stretch:normal;font-size:9.60000038px;line-height:1.25;font-family:'Cabin Condensed';-inkscape-font-specification:'Cabin Condensed, '"
         id="tspan11086"
         y="-71.191345"
         x="52.607399"
         sodipodi:role="line">fsgelok<tspan
   id="tspan11100"
   style="font-style:normal;font-variant:normal;font-weight:normal;font-stretch:normal;font-size:8px;font-family:sans;-inkscape-font-specification:sans">@</tspan>uni-muenster.de</tspan><tspan
         id="tspan11092"
         style="font-style:normal;font-variant:normal;font-weight:normal;font-stretch:normal;font-size:9.60000038px;line-height:1.25;font-family:'Cabin Condensed';-inkscape-font-specification:'Cabin Condensed, '"
         y="-59.191345"
         x="52.607399"
         sodipodi:role="line">www.uni-muenster.de/fslo</tspan><tspan
         style="font-style:normal;font-variant:normal;font-weight:normal;font-stretch:normal;font-size:9.60000038px;line-height:1.25;font-family:'Cabin Condensed';-inkscape-font-specification:'Cabin Condensed, '"
         id="tspan11088"
         y="-52.898846"
         x="52.607399"
         sodipodi:role="line" /></text>
<text
       transform="scale(1,-1)"
       id="text11080-3"
       y="-38.608025"
       x="52.559399"
       style="font-style:normal;font-variant:normal;font-weight:normal;font-stretch:normal;line-height:0%;font-family:'Cabin Condensed';-inkscape-font-specification:'Cabin Condensed';letter-spacing:0px;word-spacing:0px;fill:#000000;fill-opacity:1;stroke:none"
       xml:space="preserve"><tspan
         style="font-style:normal;font-variant:normal;font-weight:normal;font-stretch:normal;font-size:9.60000038px;line-height:1.25;font-family:'Cabin Condensed';-inkscape-font-specification:'Cabin Condensed, '"
         y="-38.608025"
         x="52.559399"
         id="tspan11082-6"
         sodipodi:role="line">Fachschaftsvertretung Geoinformatik</tspan><tspan
         style="font-style:normal;font-variant:normal;font-weight:normal;font-stretch:normal;font-size:9.60000038px;line-height:1.25;font-family:'Cabin Condensed';-inkscape-font-specification:'Cabin Condensed, '"
         id="tspan11084-4"
         y="-26.608025"
         x="52.559399"
         sodipodi:role="line">Heisenbergstr. 2, 48149 Mnster, Raum 24</tspan><tspan
         style="font-style:normal;font-variant:normal;font-weight:normal;font-stretch:normal;font-size:9.60000038px;line-height:1.25;font-family:'Cabin Condensed';-inkscape-font-specification:'Cabin Condensed, '"
         id="tspan11086-1"
         y="-14.608024"
         x="52.559399"
         sodipodi:role="line">fsgi<tspan
   id="tspan11100-8"
   style="font-style:normal;font-variant:normal;font-weight:normal;font-stretch:normal;font-size:8px;font-family:sans;-inkscape-font-specification:sans">@</tspan>uni-muenster.de</tspan><tspan
         style="font-style:normal;font-variant:normal;font-weight:normal;font-stretch:normal;font-size:9.60000038px;line-height:1.25;font-family:'Cabin Condensed';-inkscape-font-specification:'Cabin Condensed, '"
         id="tspan11088-2"
         y="-2.6080232"
         x="52.559399"
         sodipodi:role="line">https://geofs.uni-muenster.de</tspan></text>
</g></svg>